<svg width="72" height="72" viewBox="0 0 72 72" fill="none" xmlns="http://www.w3.org/2000/svg">
<path d="M0 36C0 16.1178 16.1178 0 36 0C55.8823 0 72 16.1178 72 36C72 55.8823 55.8823 72 36 72C16.1178 72 0 55.8823 0 36Z" fill="#EA4C89"/>
<g clip-path="url(#clip0_109_190)">
<path d="M25.8484 52H45.1517C46.3003 52 47.2566 51.1215 47.2566 50.0419V26.6286C47.2566 25.5487 46.3003 24.6609 45.1517 24.6609H41.9696V26.4487C41.9742 26.759 41.7294 27.0158 41.4193 27.0261H29.543C29.2267 27.0185 28.9712 26.765 28.9609 26.4487V24.6609H25.8484C24.6998 24.6609 23.7435 25.5487 23.7435 26.6286V50.0419C23.7435 51.1215 24.6998 52 25.8484 52ZM30.1435 34.0522C30.1435 33.7449 30.3927 33.4957 30.7001 33.4957H33.5522V30.6435C33.5522 30.3362 33.8014 30.087 34.1087 30.087H36.8914C37.1987 30.087 37.4479 30.3362 37.4479 30.6435V33.4957H40.3001C40.6074 33.4957 40.8566 33.7449 40.8566 34.0522V36.8348C40.8566 37.1421 40.6074 37.3913 40.3001 37.3913H37.4479V40.2435C37.4479 40.5508 37.1987 40.8 36.8914 40.8H34.1087C33.8014 40.8 33.5522 40.5508 33.5522 40.2435V37.3913H30.7001C30.3927 37.3913 30.1435 37.1421 30.1435 36.8348V34.0522ZM30.3702 43.6522H40.6299C40.9376 43.6522 41.1865 43.9014 41.1865 44.2087C41.1865 44.5161 40.9376 44.7652 40.6299 44.7652H30.3702C30.0626 44.7652 29.8136 44.5161 29.8136 44.2087C29.8136 43.9014 30.0626 43.6522 30.3702 43.6522ZM28.2832 46.4348H42.7169C43.0245 46.4348 43.2734 46.684 43.2734 46.9913C43.2734 47.2987 43.0245 47.5478 42.7169 47.5478H28.2832C27.9756 47.5478 27.7267 47.2987 27.7267 46.9913C27.7267 46.684 27.9756 46.4348 28.2832 46.4348Z" fill="white"/>
<path d="M40.8565 22.1565H38.2521C37.9902 22.1563 37.7635 21.9734 37.7084 21.7171C37.4931 20.7226 36.5486 20 35.4622 20H35.4554C34.398 19.9989 33.4744 20.7144 33.2114 21.7383C33.148 21.9842 32.9263 22.1563 32.6722 22.1565H30.0739V25.913H40.8565V22.1565Z" fill="white"/>
<path d="M34.6652 36.8347V39.6869H36.3347V36.8347C36.3347 36.5274 36.5839 36.2782 36.8913 36.2782H39.7434V34.6086H36.8913C36.5839 34.6086 36.3347 34.3595 36.3347 34.0521V31.2H34.6652V34.0521C34.6652 34.3595 34.416 34.6086 34.1086 34.6086H31.2565V36.2782H34.1086C34.416 36.2782 34.6652 36.5274 34.6652 36.8347Z" fill="white"/>
</g>
<defs>
<clipPath id="clip0_109_190">
<rect width="32" height="32" fill="white" transform="translate(19.5 20)"/>
</clipPath>
</defs>
</svg>
