<svg width="72" height="72" viewBox="0 0 72 72" fill="none" xmlns="http://www.w3.org/2000/svg">
<path d="M0 36C0 16.1178 16.1178 0 36 0C55.8823 0 72 16.1178 72 36C72 55.8823 55.8823 72 36 72C16.1178 72 0 55.8823 0 36Z" fill="#EA4C89"/>
<g clip-path="url(#clip0_109_201)">
<path d="M31.1705 36.3349C31.5644 36.2533 31.9761 36.0745 32.3644 35.7942C33.481 34.9865 33.9766 33.6603 33.4702 32.8305C32.9196 31.9279 31.4134 31.9886 30.256 33.0158C29.1492 33.9714 28.9131 34.9699 28.9131 36.0194C28.9131 36.7609 29.1503 38.0849 30.599 39.2347C31.2831 38.7062 32.0986 38.2714 33.0243 37.957L33.0365 37.9525C32.3253 37.6561 31.3981 37.0711 31.1705 36.3349ZM30.9918 33.7827C30.9918 33.4726 31.2389 33.2233 31.5436 33.2233C31.848 33.2233 32.0953 33.4738 32.0953 33.7838C32.0953 34.0939 31.848 34.3432 31.5436 34.3432C31.2389 34.3432 30.9918 34.0927 30.9918 33.7827Z" fill="white"/>
<path d="M44.107 36.0203C44.1036 34.9698 43.8686 33.9713 42.7609 33.0157C41.6043 31.9895 40.0971 31.9266 39.5465 32.8304C39.0411 33.6601 39.5354 34.9864 40.652 35.7941C41.0405 36.0744 41.4521 36.2531 41.846 36.3347C41.7092 36.7772 41.2932 37.2274 40.6588 37.607C39.7864 38.1276 39.3152 38.192 33.7336 40.0455C31.6681 40.7473 30.439 42.1419 30.439 43.7761C30.439 44.9402 31.0336 45.8384 31.86 46.4961C32.3798 45.9609 33.0287 45.4964 33.7867 45.1245C32.9139 44.6832 32.6446 44.3488 32.6446 43.7761C32.6446 42.8309 34.5339 42.2905 35.4055 42.003V44.3952L37.6123 43.4109V42.0041C38.4853 42.2932 40.3698 42.8329 40.3698 43.7761C40.3698 45.3454 35.8762 46.2708 33.9644 47.5895C33.0365 48.2328 32.5375 49.0505 32.5375 50.0115C32.5375 50.5632 32.6017 51.2474 33.5704 51.9271C33.8451 52.1465 34.2267 51.826 34.0483 51.5176C33.4082 50.2366 34.0879 49.5966 35.4076 49.0427V50.8942C35.4076 51.5033 35.902 51.9976 36.5111 51.9976C37.1201 51.9976 37.6145 51.5033 37.6145 50.8942V49.0438C38.8822 49.5756 39.6801 50.327 38.9706 51.5176C38.7947 51.82 39.1692 52.1492 39.4472 51.9271C40.3851 51.2164 40.4591 50.6073 40.4591 50.0259C40.4591 49.1311 39.9692 48.2627 39.0401 47.5973C40.9182 46.9187 42.5798 45.7766 42.5798 43.7783C42.5798 42.398 41.7028 41.1886 40.1866 40.4229C40.8948 40.168 41.2512 39.997 41.7246 39.7145C43.798 38.4753 44.107 36.8677 44.107 36.0203ZM41.4743 34.3431C41.1696 34.3431 40.9226 34.0926 40.9226 33.7825C40.9226 33.4725 41.1696 33.222 41.4743 33.222C41.7787 33.222 42.026 33.4725 42.026 33.7825C42.026 34.0926 41.7787 34.3431 41.4743 34.3431Z" fill="white"/>
<path d="M51.9477 22.209H44.391C42.9085 22.209 41.7961 22.8643 40.8391 23.8213C39.7994 24.861 39.2588 27.1722 37.6033 27.1722V24.1076C38.2603 23.7253 38.7067 23.0217 38.7067 22.2068C38.7067 20.988 37.7188 20 36.4999 20C35.2811 20 34.2931 20.988 34.2931 22.2068C34.2931 23.0216 34.7396 23.7253 35.3965 24.1076V37.2579C36.0775 37.0406 36.8249 36.8012 37.6033 36.5513V31.0242C38.0821 30.784 38.4683 30.3957 38.7052 29.9151C39.089 30.571 39.8186 31.0363 40.6319 31.0363C41.4568 31.0363 42.1674 30.5783 42.5461 29.908C43.8387 31.2007 46.2414 31.2256 47.534 29.933L45.6589 28.0579L46.5191 28.4142C48.2081 29.1138 50.1445 28.3117 50.8443 26.6227L48.1804 25.5193C50.761 25.5192 51.9477 23.8999 51.9477 22.209Z" fill="white"/>
<path d="M32.1607 23.8213C31.2037 22.8643 30.0913 22.209 28.6088 22.209H21.0521C21.0521 23.8998 22.2388 25.5192 24.8194 25.5192L22.1555 26.6226C22.8552 28.3117 24.7917 29.1137 26.4807 28.4142L27.3409 28.0578L25.4658 29.9329C26.7584 31.2257 29.1611 31.2008 30.4538 29.908C30.8324 30.5783 31.543 31.0363 32.3679 31.0363C32.376 31.0363 32.3842 31.0362 32.3923 31.0361C33.4705 31.0239 34.2946 30.05 34.2946 28.9718V26.7519C33.4249 26.0383 32.9268 24.5874 32.1607 23.8213Z" fill="white"/>
</g>
<defs>
<clipPath id="clip0_109_201">
<rect width="32" height="32" fill="white" transform="translate(20.5 20)"/>
</clipPath>
</defs>
</svg>
