<svg width="72" height="72" viewBox="0 0 72 72" fill="none" xmlns="http://www.w3.org/2000/svg">
<path d="M0 36C0 16.1178 16.1178 0 36 0C55.8823 0 72 16.1178 72 36C72 55.8823 55.8823 72 36 72C16.1178 72 0 55.8823 0 36Z" fill="#EA4C89"/>
<path d="M29.75 40.5884V43.5C29.75 48.1527 33.5348 52 38.1875 52C42.8402 52 46.625 48.1527 46.625 43.5V42.4676C48.762 42.0321 50.375 40.1385 50.375 37.875C50.375 35.2904 48.2721 33.1875 45.6875 33.1875C43.103 33.1875 41 35.2904 41 37.875C41 40.1385 42.6131 42.0321 44.75 42.4676V43.5C44.75 47.1182 41.8057 50.125 38.1875 50.125C34.5693 50.125 31.625 47.1182 31.625 43.5V40.5896C35.4511 39.8877 39.8667 35.1368 40.6311 30.6176C41.1323 27.6493 39.8938 25.273 37.25 24.0844V22.8125C37.25 21.2616 35.9884 20 34.4375 20C32.8866 20 31.625 21.2616 31.625 22.8125C31.625 24.3634 32.8866 25.625 34.4375 25.625H36.102C38.2591 26.4237 39.1658 28.0357 38.7817 30.3054C38.1234 34.201 33.7362 38.8125 30.6875 38.8125C27.273 38.8125 22.5271 33.3901 22.4983 29.375C22.4855 27.5853 23.4232 26.3021 25.2479 25.625H26.9375C28.4884 25.625 29.75 24.3634 29.75 22.8125C29.75 21.2616 28.4885 20 26.9375 20C25.3866 20 24.125 21.2616 24.125 22.8125V24.074C21.8698 25.0839 20.6201 26.9762 20.625 29.375C20.6346 34.0759 25.5051 39.802 29.75 40.5884ZM44.75 36.9375H46.625V38.8125H44.75V36.9375Z" fill="white"/>
</svg>
