<svg width="72" height="72" viewBox="0 0 72 72" fill="none" xmlns="http://www.w3.org/2000/svg">
<path d="M0 36C0 16.1178 16.1178 0 36 0C55.8823 0 72 16.1178 72 36C72 55.8823 55.8823 72 36 72C16.1178 72 0 55.8823 0 36Z" fill="#EA4C89"/>
<g clip-path="url(#clip0_109_169)">
<path d="M35.4909 24.2182C28.5159 18.1176 19.6472 23.4778 19.5018 30.7444C19.4647 32.5964 19.9993 34.4003 21.0634 36.0633H27.9607L29.1874 34.0186C29.5437 33.425 30.4057 33.4059 30.7821 33.9977L33.3705 38.0651L37.1435 30.1C37.4726 29.405 38.4532 29.3829 38.8161 30.0569L42.0503 36.0633H49.9184C55.7468 26.954 44.2279 16.5766 35.4909 24.2182Z" fill="white"/>
<path d="M40.6651 37.4451L38.0443 32.5779L34.3382 40.4017C34.0229 41.0673 33.0956 41.1251 32.7002 40.5037L30.0148 36.2838L29.2952 37.4829C29.1258 37.7653 28.8207 37.938 28.4914 37.938H22.5464C22.7327 38.1331 21.7395 37.1418 34.8297 50.1642C35.1953 50.528 35.7863 50.5281 36.152 50.1642C49.0407 37.3422 48.2493 38.1327 48.4353 37.938H41.4904C41.1455 37.9381 40.8286 37.7487 40.6651 37.4451Z" fill="white"/>
</g>
<defs>
<clipPath id="clip0_109_169">
<rect width="32" height="32" fill="white" transform="translate(19.5 20)"/>
</clipPath>
</defs>
</svg>
