<svg width="31" height="32" viewBox="0 0 31 32" fill="none" xmlns="http://www.w3.org/2000/svg">
<g clip-path="url(#clip0_108_40)">
<path d="M15.5 0C6.92755 0 0 7.15102 0 16C0 24.849 6.92755 32 15.5 32C24.0725 32 31 24.849 31 16C31 7.15102 24.0725 0 15.5 0ZM15.5 29.342C8.37633 29.342 2.5749 23.3535 2.5749 16C2.5749 8.64653 8.37633 2.65796 15.5 2.65796C22.6237 2.65796 28.4251 8.64653 28.4251 16C28.4251 23.3535 22.6237 29.342 15.5 29.342Z" fill="#E3008D"/>
<path d="M18.4039 14.6351H16.8222V8.37222C16.8222 7.6212 16.2275 7.00732 15.5 7.00732C14.7724 7.00732 14.1777 7.6212 14.1777 8.37222V16C14.1777 16.751 14.7724 17.3649 15.5 17.3649H18.4039C19.1314 17.3649 19.7261 16.751 19.7261 16C19.7261 15.249 19.1251 14.6351 18.4039 14.6351Z" fill="#E3008D"/>
</g>
<defs>
<clipPath id="clip0_108_40">
<rect width="31" height="32" fill="white"/>
</clipPath>
</defs>
</svg>
