<svg width="10" height="18" viewBox="0 0 10 18" fill="none" xmlns="http://www.w3.org/2000/svg">
<path d="M7.15217 0.370117C7.60017 0.370117 8.01617 0.410117 8.40017 0.490117C8.78417 0.570117 9.12817 0.674117 9.43217 0.802117L8.54417 3.61012C8.38417 3.53012 8.20817 3.46612 8.01617 3.41812C7.84017 3.37012 7.61617 3.34612 7.34417 3.34612C6.88017 3.34612 6.51217 3.49812 6.24017 3.80212C5.96817 4.09012 5.83217 4.49812 5.83217 5.02612V5.98612H8.76017V8.67412H5.83217V17.7461H2.68817V8.67412H0.576172V5.98612H2.68817V4.83412C2.68817 4.11412 2.79217 3.48212 3.00017 2.93812C3.22417 2.37812 3.53617 1.91412 3.93617 1.54612C4.33617 1.16212 4.80817 0.874117 5.35217 0.682117C5.89617 0.474117 6.49617 0.370117 7.15217 0.370117Z" fill="url(#paint0_linear_59_30)"/>
<defs>
<linearGradient id="paint0_linear_59_30" x1="5.00012" y1="7.24609" x2="5.00417" y2="17.7461" gradientUnits="userSpaceOnUse">
<stop stop-color="#2B88D9"/>
<stop offset="0.9999" stop-color="#004F94"/>
<stop offset="1" stop-color="#1B73C0" stop-opacity="0"/>
</linearGradient>
</defs>
</svg>
