<svg width="68" height="30" viewBox="0 0 68 30" fill="none" xmlns="http://www.w3.org/2000/svg">
<g clip-path="url(#clip0_111_152)">
<mask id="path-1-inside-1_111_152" fill="white">
<path d="M67.4598 13.6426H65.0317V4.89432C65.0317 4.45545 64.6213 4.10435 64.1083 4.10435H58.3972V3.16808C58.3972 2.7292 57.9868 2.3781 57.4739 2.3781H51.7627V1.44183C51.7627 1.00296 51.3524 0.651855 50.8394 0.651855H44.2733C43.7603 0.651855 43.35 1.00296 43.35 1.44183V13.6426H25.3616V1.44183C25.3616 1.00296 24.9513 0.651855 24.4383 0.651855H17.8722C17.3592 0.651855 16.9489 1.00296 16.9489 1.44183V2.3781H11.2719C10.759 2.3781 10.3486 2.7292 10.3486 3.16808V3.95806V4.10435H4.63747C4.12449 4.10435 3.71412 4.45545 3.71412 4.89432V13.6426H0.567871V15.2225H3.71412V25.3167C3.71412 25.7556 4.12449 26.1067 4.63747 26.1067H10.3486V27.0429C10.3486 27.4818 10.759 27.8329 11.2719 27.8329H16.9831V28.7692C16.9831 29.2081 17.3934 29.5592 17.9064 29.5592H24.4725C24.9855 29.5592 25.3958 29.2081 25.3958 28.7692V15.2225H43.4184V28.7692C43.4184 29.2081 43.8287 29.5592 44.3417 29.5592H50.9078C51.4208 29.5592 51.8311 29.2081 51.8311 28.7692V27.8329H57.5423C58.0552 27.8329 58.4656 27.4818 58.4656 27.0429V26.253V26.1067H64.1767C64.6897 26.1067 65.1001 25.7556 65.1001 25.3167V15.2225H67.5282V13.6426H67.4598ZM23.5149 27.9792H18.7956V26.253V9.13679H16.9489V26.253H12.1953V25.3167V9.13679H10.3486V24.5267H5.56082V5.6843H10.3486V7.41055H12.1953V4.89432V3.95806H16.9831V7.26426H18.8298V3.95806V2.23181H23.5491V13.6426V15.2225V27.9792H23.5149ZM63.2192 24.5267H58.4314V22.8005H56.5847V25.3167V26.253H51.7969V22.9468H49.9502V26.253V27.0429V27.9792H45.2309V15.2225V13.6426V2.23181H49.9502V3.16808V3.95806V21.0742H51.7969V3.95806H56.5847V4.89432V21.0742H58.4314V5.6843H63.2192V24.5267Z"/>
</mask>
<path d="M67.4598 13.6426H65.0317V4.89432C65.0317 4.45545 64.6213 4.10435 64.1083 4.10435H58.3972V3.16808C58.3972 2.7292 57.9868 2.3781 57.4739 2.3781H51.7627V1.44183C51.7627 1.00296 51.3524 0.651855 50.8394 0.651855H44.2733C43.7603 0.651855 43.35 1.00296 43.35 1.44183V13.6426H25.3616V1.44183C25.3616 1.00296 24.9513 0.651855 24.4383 0.651855H17.8722C17.3592 0.651855 16.9489 1.00296 16.9489 1.44183V2.3781H11.2719C10.759 2.3781 10.3486 2.7292 10.3486 3.16808V3.95806V4.10435H4.63747C4.12449 4.10435 3.71412 4.45545 3.71412 4.89432V13.6426H0.567871V15.2225H3.71412V25.3167C3.71412 25.7556 4.12449 26.1067 4.63747 26.1067H10.3486V27.0429C10.3486 27.4818 10.759 27.8329 11.2719 27.8329H16.9831V28.7692C16.9831 29.2081 17.3934 29.5592 17.9064 29.5592H24.4725C24.9855 29.5592 25.3958 29.2081 25.3958 28.7692V15.2225H43.4184V28.7692C43.4184 29.2081 43.8287 29.5592 44.3417 29.5592H50.9078C51.4208 29.5592 51.8311 29.2081 51.8311 28.7692V27.8329H57.5423C58.0552 27.8329 58.4656 27.4818 58.4656 27.0429V26.253V26.1067H64.1767C64.6897 26.1067 65.1001 25.7556 65.1001 25.3167V15.2225H67.5282V13.6426H67.4598ZM23.5149 27.9792H18.7956V26.253V9.13679H16.9489V26.253H12.1953V25.3167V9.13679H10.3486V24.5267H5.56082V5.6843H10.3486V7.41055H12.1953V4.89432V3.95806H16.9831V7.26426H18.8298V3.95806V2.23181H23.5491V13.6426V15.2225V27.9792H23.5149ZM63.2192 24.5267H58.4314V22.8005H56.5847V25.3167V26.253H51.7969V22.9468H49.9502V26.253V27.0429V27.9792H45.2309V15.2225V13.6426V2.23181H49.9502V3.16808V3.95806V21.0742H51.7969V3.95806H56.5847V4.89432V21.0742H58.4314V5.6843H63.2192V24.5267Z" stroke="#891C60" stroke-width="3" mask="url(#path-1-inside-1_111_152)"/>
</g>
<defs>
<clipPath id="clip0_111_152">
<rect width="66.8919" height="28.9073" fill="white" transform="translate(0.567871 0.651855)"/>
</clipPath>
</defs>
</svg>
