<svg width="59" height="51" viewBox="0 0 59 51" fill="none" xmlns="http://www.w3.org/2000/svg">
<mask id="path-1-inside-1_111_173" fill="white">
<path d="M54.3782 45.1345C54.3782 45.6511 53.8812 46.0816 53.2849 46.0816C52.6885 46.0816 52.1915 45.6511 52.1915 45.1345V37.7018V37.6301V37.5583V37.4866V37.4148V37.3431V37.2713V37.1996L52.1749 37.1278L52.1584 37.0561L52.1418 36.9844L52.1252 36.8552L52.1087 36.7835L52.0921 36.7117L52.0755 36.64L52.0424 36.5108L52.0258 36.4391L52.0093 36.3674L51.9927 36.2956L51.9761 36.2382L51.9596 36.1808L51.943 36.1234L51.8933 35.9943L51.8602 35.9369L51.827 35.8795L51.7939 35.8221L51.7608 35.7647L51.7276 35.7073L51.6945 35.6499L51.6282 35.5351L51.5951 35.4777L51.562 35.4203L51.5288 35.3629L51.4957 35.3055L51.4626 35.2481L51.3963 35.1333L51.3632 35.0759L51.3301 35.0186L51.2969 34.9612L51.2638 34.9038L51.2307 34.8464L51.1975 34.789L51.1644 34.7316L51.1147 34.6742L51.065 34.6168L51.0153 34.5594L50.9656 34.502L50.9159 34.4446L50.8662 34.3872L50.7171 34.2294L50.568 34.0859L50.5183 34.0428L50.3692 33.8993L50.2036 33.7558L50.1539 33.7128L49.9882 33.5837L49.806 33.4545L49.7397 33.4115L49.6734 33.3684L49.5575 33.2967L49.4912 33.2536L49.3587 33.1819L49.2924 33.1532L49.2262 33.1245L49.1599 33.0958L49.0936 33.0671L49.0274 33.0384L48.9611 33.0097L48.8948 32.981L48.8286 32.9523L48.7623 32.9236L48.696 32.8949L48.6298 32.8662L48.5635 32.8375L48.431 32.7801L48.3647 32.7514L48.2984 32.7227L48.2322 32.694L48.1659 32.6653L48.0996 32.6366L47.9506 32.5936L47.8843 32.5792L47.818 32.5649L47.7518 32.5505L47.6689 32.5362L47.6027 32.5218L47.5198 32.5075L47.437 32.4931L47.3542 32.4788L47.2051 32.4501L47.1222 32.4357L46.9731 32.4071L46.8903 32.3927L46.8075 32.3784L46.6418 32.364L46.559 32.3497H46.4762H46.3933H46.3105L46.1448 32.3353H46.062H45.9792H15.3317H15.2489H15.1661L15.0004 32.3497H14.9176H14.8347H14.7519L14.6691 32.364L14.5034 32.3784L14.4206 32.3927L14.3378 32.4071L14.1887 32.4357L14.1058 32.4501L13.9567 32.4788L13.8739 32.4931L13.7911 32.5075L13.7082 32.5218L13.642 32.5362L13.5757 32.5505L13.5094 32.5649L13.4432 32.5792L13.3769 32.5936L13.3106 32.6223L13.2444 32.651L13.1781 32.6797L13.029 32.7227L12.9628 32.7514L12.8302 32.8088L12.764 32.8375L12.6977 32.8662L12.6314 32.8949L12.5652 32.9236L12.4989 32.9523L12.3664 33.0097L12.3001 33.0384L12.2338 33.0671L12.1676 33.0958L12.1013 33.1245L12.0351 33.1532L11.9688 33.1819H11.9522L11.8528 33.2393H11.8363L11.77 33.2823L11.7037 33.3397L11.6375 33.3828L11.5712 33.4258L11.5049 33.4689L11.3227 33.598L11.157 33.7271L11.1073 33.7702L10.9417 33.8993L10.776 34.0428L10.7263 34.0859L10.5772 34.2294L10.4281 34.3872L10.3784 34.4446L10.3287 34.502L10.2459 34.6024L10.1962 34.6598L10.1134 34.7746L10.0802 34.832L10.0471 34.8894L10.014 34.9468L9.98085 35.0042L9.94771 35.0616L9.91458 35.119L9.88145 35.1764L9.84832 35.2338L9.81518 35.2912L9.78205 35.3486L9.74892 35.406L9.71579 35.4634L9.68265 35.5208L9.64952 35.5782L9.61639 35.6356L9.58326 35.693L9.55012 35.7503L9.51699 35.8077L9.48386 35.8651L9.45073 35.9225L9.41759 35.9799L9.40103 36.0373L9.38446 36.0947L9.3679 36.1521L9.35133 36.2095L9.33476 36.2669L9.3182 36.3387L9.30163 36.4104L9.28507 36.4821L9.25193 36.6113L9.23537 36.683L9.2188 36.7548L9.20223 36.8265L9.18567 36.9557L9.1691 37.0274L9.15254 37.0991L9.13597 37.1709V37.2426V37.3144V37.3861V37.4579V37.5296V37.6014V37.6731V45.1058C9.13597 45.6224 8.63898 46.0529 8.0426 46.0529C7.44622 46.0529 6.94923 45.6224 6.94923 45.1058V5.73243C6.89953 5.21587 7.39652 4.7854 7.9929 4.7854H53.2683C53.8647 4.7854 54.3617 5.21587 54.3617 5.73243L54.3782 45.1345ZM34.5485 25.2326L34.6148 25.2469L34.681 25.2613L34.7473 25.2756L34.9627 25.333L35.0124 25.3474C36.3708 25.7205 37.5967 26.2944 38.5907 27.0406H40.297C41.0259 27.0406 41.672 26.7823 42.1358 26.3805C42.6162 25.9644 42.8979 25.4048 42.8979 24.7734V15.6906C42.8979 15.0736 42.5997 14.4996 42.1358 14.0835C41.672 13.6674 41.0093 13.4234 40.297 13.4234H20.9974C20.3016 13.4234 19.6721 13.6674 19.1916 14.0404L19.1419 14.0835C18.6615 14.4996 18.3799 15.0592 18.3799 15.6906V24.7878C18.3799 25.4191 18.6781 25.9787 19.1419 26.3805C19.6224 26.7966 20.2684 27.0406 20.9974 27.0406H22.7037C23.6811 26.2944 24.9235 25.7348 26.2654 25.3474L26.3151 25.333L26.5305 25.2756L26.5967 25.2613L26.663 25.2469L26.7293 25.2326L26.7127 25.2182L26.6961 25.2039L26.6796 25.1895L26.663 25.1752L26.6464 25.1609L26.6299 25.1465L26.6133 25.1322L26.5967 25.1178L26.5802 25.1035L26.5636 25.0891L26.547 25.0748L26.5305 25.0604L26.5139 25.0461L26.4973 25.0317L26.4808 25.0174L26.4642 25.003L26.4476 24.9887L26.4311 24.9743L26.4145 24.96L26.3979 24.9456L26.3814 24.9313L26.3648 24.9169L26.3482 24.9026L26.3317 24.8882L26.3151 24.8739L26.2985 24.8595L26.282 24.8452L26.2654 24.8308L26.2488 24.8165L26.2323 24.8021L26.2157 24.7878L26.1991 24.7734L26.1826 24.7591L26.166 24.7447L26.1494 24.7304L26.1329 24.716L26.1163 24.7017L26.0997 24.6873L26.0832 24.673L26.0666 24.6586L26.05 24.6443L26.0335 24.6299L26.0169 24.6156L26.0004 24.6012L25.9672 24.5725L25.9507 24.5582L25.9341 24.5438L25.9175 24.5295L25.901 24.5152L25.8844 24.5008L25.8678 24.4865L25.8181 24.4434L25.8016 24.4291L25.7684 24.4004L25.7519 24.386L25.7187 24.3573L25.669 24.3143C24.41 23.2237 23.6314 21.7171 23.6314 20.0526C23.6314 18.3882 24.41 16.8815 25.669 15.791C26.9281 14.7005 28.6675 14.0261 30.5892 14.0261C32.5109 14.0261 34.2503 14.7005 35.5093 15.791C36.7684 16.8815 37.547 18.3882 37.547 20.0526C37.547 21.7171 36.7684 23.2237 35.5093 24.3143L35.4762 24.343L35.4596 24.3573L35.4431 24.3717L35.4265 24.386L35.4099 24.4004L35.3602 24.4434L35.3437 24.4578L35.3271 24.4721L35.3106 24.4865L35.294 24.5008L35.2774 24.5152L35.2609 24.5295L35.2443 24.5438L35.2277 24.5582L35.1946 24.5869L35.178 24.6012L35.1449 24.6299L35.1283 24.6443L35.1118 24.6586L35.0952 24.673L35.0786 24.6873L35.0621 24.7017L35.0455 24.716L35.0289 24.7304L35.0124 24.7447L34.9958 24.7591L35.0621 24.8739L35.0455 24.8882L35.0289 24.9026L35.0124 24.9169L34.9958 24.9313L34.9792 24.9456L34.9627 24.96L34.9461 24.9743L34.9295 24.9887L34.913 25.003L34.8964 25.0174L34.8798 25.0317L34.8633 25.0461L34.8467 25.0604L34.8301 25.0748L34.8136 25.0891L34.797 25.1035L34.7804 25.1178L34.7639 25.1322L34.7473 25.1465L34.7307 25.1609L34.7142 25.1752L34.6976 25.1895L34.681 25.2039L34.6645 25.2182L34.6479 25.2326L34.6313 25.2469L34.6148 25.2613L34.5982 25.2756L34.5816 25.29L34.5651 25.3043L34.5485 25.2326H34.5319H34.5485ZM40.2804 28.949C40.5289 29.3938 40.7111 29.8816 40.8271 30.3982H45.8466H45.9626H46.0786H46.178H46.2774H46.3768H46.4762L46.5756 30.4126L46.675 30.4269L46.7744 30.4413L46.8738 30.4556L46.9731 30.4699L47.0725 30.4843L47.1719 30.4986L47.2713 30.513L47.3707 30.5273L47.4701 30.5417L47.5695 30.556L47.6689 30.5704L47.7683 30.5847L47.8677 30.6134L47.9671 30.6421L48.0665 30.6708L48.1659 30.6995L48.2653 30.7282L48.3647 30.7569L48.4641 30.7856L48.6629 30.843L48.7623 30.8717L48.9445 30.9435L49.0439 30.9722L49.1433 31.0009L49.2427 31.0296L49.3255 31.0726L49.4084 31.1156L49.4912 31.1587L49.574 31.2017L49.6569 31.2448L49.9219 31.3739L50.187 31.5031L50.2698 31.5461C50.3858 31.6035 50.5017 31.6753 50.6011 31.747C50.7171 31.8187 50.8165 31.8905 50.9325 31.9622C51.0319 32.034 51.1478 32.1057 51.2472 32.1918C51.3963 32.3066 51.5454 32.4214 51.6945 32.5505C51.8105 32.651 51.9099 32.7371 52.0093 32.8375V6.67946H9.10284V32.8519C9.20223 32.7514 9.30163 32.6653 9.41759 32.5649C9.61639 32.3927 9.81518 32.2349 10.0305 32.0914C10.395 31.8331 10.7926 31.5892 11.2067 31.3883L11.389 31.3022L11.4718 31.2591L11.654 31.173L11.7534 31.13L11.8528 31.087L11.9522 31.0439L12.0516 31.0009L12.151 30.9722L12.2504 30.9435L12.3498 30.9148L12.4492 30.8861L12.648 30.8287L12.7474 30.8L12.8468 30.7713L12.9462 30.7426L13.0456 30.7139L13.145 30.6852L13.2444 30.6565L13.3438 30.6278L13.4432 30.5991L13.5426 30.5847L13.642 30.5704L13.7414 30.556L13.8408 30.5417L13.9402 30.5273L14.0396 30.513L14.139 30.4986L14.2384 30.4843L14.3378 30.4699L14.4372 30.4556L14.5365 30.4413L14.6359 30.4269L14.7353 30.4126H14.8347H14.9341H15.0335H15.1495H15.2655H15.3814H20.401C20.5169 29.896 20.6992 29.4081 20.9477 28.9633C19.6389 28.9633 18.4296 28.4898 17.5516 27.7437C16.6736 26.9832 16.1435 25.95 16.1435 24.8021V15.6906C16.1435 14.5427 16.6902 13.5095 17.5516 12.749L17.6179 12.6916C18.4793 11.9742 19.6555 11.5294 20.9477 11.5294H40.2473C41.5726 11.5294 42.7653 12.0029 43.6433 12.749C44.5214 13.4952 45.0515 14.5427 45.0515 15.6906V24.7878C45.0515 25.9213 44.5048 26.9688 43.6433 27.7293C42.815 28.4754 41.6057 28.949 40.2804 28.949ZM26.0004 27.4567C24.3934 28.0737 23.151 29.0494 22.6871 30.3839H38.5907C38.1931 29.1929 37.166 28.2889 35.8075 27.6719L35.7247 27.6289L35.6419 27.6002L35.6253 27.5858L35.559 27.5571L35.4762 27.5284L35.4431 27.5141L35.3934 27.4997L35.3437 27.471L35.3106 27.4567L35.2443 27.428L35.2277 27.4136L35.1449 27.3849H35.1283L35.0289 27.3562L34.9295 27.3275H34.913L34.8301 27.2988L34.797 27.2845L34.7307 27.2558L34.6976 27.2414L34.6479 27.2271L34.5982 27.2127L34.5485 27.1984L34.4491 27.1697L34.3663 27.1553H34.3497L34.2669 27.1267H34.2503L34.2006 27.1123L34.1675 27.098H34.1509L34.1012 27.0836L34.0681 27.0693H34.0515L33.7699 26.9975L33.7368 26.9832H33.7202L33.5545 26.9545L33.5048 26.9401H33.4883L33.4386 26.9258L33.3226 26.8971L33.2729 26.8827H33.2563L33.1404 26.8684L33.0741 26.8827L32.8422 26.8397H32.7925H32.7759L32.544 26.811H32.5274L32.1133 26.7679H32.0636H31.9973L31.8317 26.7536L31.5997 26.7392L31.3678 26.7249L31.1359 26.7105H30.9039H30.6555H30.407H30.175L29.9431 26.7249H29.9265H29.8768L29.6946 26.7392H29.678H29.6283H29.5621H29.5455H29.4958H29.4296H29.413H29.3799L29.297 26.7536H29.2639H29.1976H29.1811H29.1479H29.0817H29.0651H29.032L28.8497 26.7679H28.8166L28.4853 26.811H28.4521L28.3362 26.8253H28.3196L28.2699 26.8397H28.2368H28.2202L28.1705 26.854H28.1374H28.1208L28.0711 26.8684L28.038 26.8827H28.0214L27.9717 26.8971L27.9386 26.9114H27.922L27.8723 26.9258L27.8226 26.9401H27.8061L27.7564 26.9545L27.4747 27.0119L27.3091 27.0549L27.2594 27.0693L27.1434 27.098L27.0937 27.1123L27.044 27.1267L26.9943 27.141L26.9281 27.1553L26.8949 27.1697L26.8287 27.184H26.8121L26.7293 27.2127H26.7127L26.6133 27.2414L26.5305 27.2701H26.5139L26.4476 27.2988L26.4145 27.3132L26.3482 27.3275L26.2985 27.3419L26.2488 27.3562L26.1991 27.3706L26.166 27.3849L26.0004 27.4567ZM34.0184 17.312C33.1569 16.5659 31.9642 16.1067 30.6389 16.1067C29.3136 16.1067 28.1208 16.5659 27.2594 17.312C26.3979 18.0581 25.8678 19.0913 25.8678 20.2392C25.8678 21.3871 26.3979 22.4202 27.2594 23.1664C28.1208 23.9125 29.3136 24.3717 30.6389 24.3717C31.9642 24.3717 33.1569 23.9125 34.0184 23.1664C34.8798 22.4202 35.4099 21.3871 35.4099 20.2392C35.4265 19.0913 34.8798 18.0581 34.0184 17.312Z"/>
</mask>
<path d="M54.3782 45.1345H55.8782V45.1339L54.3782 45.1345ZM52.1915 37.1996H53.6915V37.0286L53.653 36.8621L52.1915 37.1996ZM52.1749 37.1278L50.7134 37.4652L50.7134 37.4653L52.1749 37.1278ZM52.1584 37.0561L53.6199 36.7187L53.6199 36.7186L52.1584 37.0561ZM52.1418 36.9844L50.654 37.1752L50.6635 37.2492L50.6803 37.3218L52.1418 36.9844ZM52.1252 36.8552L53.613 36.6643L53.6035 36.5904L53.5868 36.5177L52.1252 36.8552ZM52.0921 36.7117L50.6305 37.0491L50.6306 37.0492L52.0921 36.7117ZM52.0755 36.64L53.5371 36.3026L53.533 36.2848L53.5285 36.2672L52.0755 36.64ZM52.0424 36.5108L50.5809 36.8483L50.5849 36.866L50.5895 36.8836L52.0424 36.5108ZM52.0093 36.3673L50.5477 36.7048L50.5477 36.7048L52.0093 36.3673ZM51.9927 36.2956L53.4543 35.9582L53.4451 35.9186L53.4339 35.8796L51.9927 36.2956ZM51.9761 36.2382L53.4173 35.8222L53.4173 35.8222L51.9761 36.2382ZM51.9596 36.1808L50.5184 36.5968L50.5184 36.5968L51.9596 36.1808ZM51.943 36.1234L53.3842 35.7074L53.3662 35.6452L53.3429 35.5847L51.943 36.1234ZM51.8933 35.9943L53.2932 35.4555L53.2511 35.346L53.1924 35.2443L51.8933 35.9943ZM51.8602 35.9369L50.561 36.6867L50.5611 36.6868L51.8602 35.9369ZM51.827 35.8795L53.1262 35.1296L53.1261 35.1295L51.827 35.8795ZM51.7939 35.8221L50.4948 36.572L50.4948 36.5721L51.7939 35.8221ZM51.7608 35.7647L50.4617 36.5146L50.4617 36.5146L51.7608 35.7647ZM51.7276 35.7073L53.0268 34.9574L53.0267 34.9573L51.7276 35.7073ZM51.6945 35.6499L50.3954 36.3998L50.3954 36.3999L51.6945 35.6499ZM51.6282 35.5351L52.9273 34.7852L52.9273 34.7852L51.6282 35.5351ZM51.5951 35.4777L50.296 36.2276L50.296 36.2277L51.5951 35.4777ZM51.562 35.4203L52.8611 34.6705L52.861 34.6704L51.562 35.4203ZM51.5288 35.3629L50.2297 36.1128L50.2298 36.1129L51.5288 35.3629ZM51.4957 35.3055L52.7948 34.5557L52.7948 34.5556L51.4957 35.3055ZM51.4626 35.2481L50.1635 35.998L50.1635 35.9981L51.4626 35.2481ZM51.3963 35.1333L52.6954 34.3834L52.6954 34.3834L51.3963 35.1333ZM51.3632 35.0759L50.0641 35.8258L50.0641 35.8259L51.3632 35.0759ZM51.3301 35.0186L52.6292 34.2687L52.6291 34.2686L51.3301 35.0186ZM51.2969 34.9612L49.9978 35.7111L49.9979 35.7111L51.2969 34.9612ZM51.2638 34.9038L49.9647 35.6536L49.9647 35.6537L51.2638 34.9038ZM51.2307 34.8464L52.5298 34.0965L52.5297 34.0964L51.2307 34.8464ZM51.1975 34.789L49.8984 35.5388L49.8985 35.5389L51.1975 34.789ZM51.1644 34.7316L52.4635 33.9817L52.392 33.8578L52.2983 33.7496L51.1644 34.7316ZM51.1147 34.6742L49.9807 35.656L49.9808 35.6561L51.1147 34.6742ZM51.065 34.6168L52.199 33.6349L52.1989 33.6348L51.065 34.6168ZM51.0153 34.5594L49.8813 35.5413L49.8814 35.5413L51.0153 34.5594ZM50.9656 34.502L49.8316 35.4839L49.8316 35.4839L50.9656 34.502ZM50.9159 34.4446L52.0499 33.4627L52.0498 33.4627L50.9159 34.4446ZM50.8662 34.3872L52.0001 33.4053L51.9789 33.3807L51.9566 33.3572L50.8662 34.3872ZM50.7171 34.2294L51.8075 33.1993L51.783 33.1734L51.7573 33.1486L50.7171 34.2294ZM50.568 34.0859L51.6082 33.0051L51.5798 32.9778L51.55 32.952L50.568 34.0859ZM50.5183 34.0428L49.4782 35.1236L49.5065 35.1509L49.5363 35.1767L50.5183 34.0428ZM50.3692 33.8993L51.4094 32.8186L51.381 32.7913L51.3513 32.7655L50.3692 33.8993ZM50.1539 33.7128L51.1359 32.579L51.1066 32.5536L51.0761 32.5298L50.1539 33.7128ZM49.9882 33.5837L50.9104 32.4006L50.8834 32.3796L50.8555 32.3598L49.9882 33.5837ZM49.806 33.4545L50.6733 32.2307L50.6485 32.2132L50.6231 32.1966L49.806 33.4545ZM49.6734 33.3684L50.4906 32.1106L50.4767 32.1015L50.4626 32.0928L49.6734 33.3684ZM49.5575 33.2967L48.7403 34.5546L48.7542 34.5636L48.7683 34.5723L49.5575 33.2967ZM49.4912 33.2536L50.3084 31.9958L50.2581 31.9631L50.2053 31.9345L49.4912 33.2536ZM49.3587 33.1819L50.0728 31.8628L50.015 31.8315L49.9548 31.8054L49.3587 33.1819ZM49.2924 33.1532L49.8885 31.7767L49.8885 31.7767L49.2924 33.1532ZM49.1599 33.0958L49.756 31.7193L49.756 31.7193L49.1599 33.0958ZM49.0936 33.0671L48.4975 34.4435L48.4975 34.4436L49.0936 33.0671ZM49.0274 33.0384L49.6235 31.662L49.6235 31.6619L49.0274 33.0384ZM48.9611 33.0097L48.365 34.3862L48.365 34.3862L48.9611 33.0097ZM48.8286 32.9523L49.4247 31.5758L49.4247 31.5758L48.8286 32.9523ZM48.7623 32.9236L48.1661 34.3001L48.1662 34.3001L48.7623 32.9236ZM48.696 32.8949L49.2922 31.5185L49.2921 31.5184L48.696 32.8949ZM48.6298 32.8662L48.0336 34.2427L48.0337 34.2427L48.6298 32.8662ZM48.5635 32.8375L49.1596 31.4611L49.1596 31.4611L48.5635 32.8375ZM48.431 32.7801L47.8348 34.1566L47.8349 34.1566L48.431 32.7801ZM48.3647 32.7514L48.9609 31.375L48.9608 31.375L48.3647 32.7514ZM48.2984 32.7227L47.7023 34.0992L47.7023 34.0992L48.2984 32.7227ZM48.1659 32.6653L48.762 31.2889L48.762 31.2889L48.1659 32.6653ZM48.0996 32.6366L48.6957 31.2602L48.6078 31.2221L48.5157 31.1955L48.0996 32.6366ZM47.9506 32.5936L48.3666 31.1525L48.3178 31.1383L48.268 31.1276L47.9506 32.5936ZM47.8843 32.5792L48.2018 31.1132L48.2017 31.1132L47.8843 32.5792ZM47.818 32.5649L47.5005 34.0309L47.5006 34.0309L47.818 32.5649ZM47.7518 32.5505L48.0692 31.0845L48.0386 31.0779L48.0078 31.0726L47.7518 32.5505ZM47.6689 32.5362L47.3515 34.0022L47.3821 34.0088L47.4129 34.0142L47.6689 32.5362ZM47.6027 32.5218L47.9201 31.0558L47.8895 31.0492L47.8587 31.0439L47.6027 32.5218ZM47.5198 32.5075L47.7759 31.0295L47.7758 31.0295L47.5198 32.5075ZM47.437 32.4931L47.181 33.9711L47.181 33.9711L47.437 32.4931ZM47.3542 32.4788L47.0707 33.9518L47.0844 33.9544L47.0981 33.9568L47.3542 32.4788ZM47.2051 32.4501L47.4886 30.9771L47.4749 30.9745L47.4611 30.9721L47.2051 32.4501ZM47.1222 32.4357L46.8387 33.9087L46.8524 33.9114L46.8662 33.9137L47.1222 32.4357ZM46.9731 32.4071L47.2567 30.9341L47.243 30.9314L47.2292 30.9291L46.9731 32.4071ZM46.8903 32.3927L47.1464 30.9147L47.1463 30.9147L46.8903 32.3927ZM46.8075 32.3784L47.0635 30.9004L47.0006 30.8895L46.9369 30.8839L46.8075 32.3784ZM46.6418 32.364L46.3858 33.842L46.4487 33.8529L46.5124 33.8584L46.6418 32.364ZM46.559 32.3497L46.815 30.8717L46.6879 30.8497H46.559V32.3497ZM46.3105 32.3497L46.1811 33.8441L46.2457 33.8497H46.3105V32.3497ZM46.1448 32.3353L46.2743 30.8409L46.2097 30.8353H46.1448V32.3353ZM15.1661 32.3353V30.8353H15.1012L15.0366 30.8409L15.1661 32.3353ZM15.0004 32.3497V33.8497H15.0652L15.1298 33.8441L15.0004 32.3497ZM14.7519 32.3497V30.8497H14.623L14.4959 30.8717L14.7519 32.3497ZM14.6691 32.364L14.7985 33.8584L14.8622 33.8529L14.9251 33.842L14.6691 32.364ZM14.5034 32.3784L14.374 30.8839L14.3103 30.8895L14.2474 30.9004L14.5034 32.3784ZM14.4206 32.3927L14.1646 30.9147L14.1645 30.9147L14.4206 32.3927ZM14.3378 32.4071L14.0817 30.9291L14.068 30.9314L14.0542 30.9341L14.3378 32.4071ZM14.1887 32.4357L14.4447 33.9137L14.4585 33.9114L14.4722 33.9087L14.1887 32.4357ZM14.1058 32.4501L13.8498 30.9721L13.836 30.9745L13.8223 30.9771L14.1058 32.4501ZM13.9567 32.4788L14.2128 33.9568L14.2265 33.9544L14.2402 33.9518L13.9567 32.4788ZM13.8739 32.4931L14.1299 33.9711L14.1299 33.9711L13.8739 32.4931ZM13.7911 32.5075L13.5351 31.0295L13.535 31.0295L13.7911 32.5075ZM13.7082 32.5218L13.4522 31.0439L13.4214 31.0492L13.3908 31.0558L13.7082 32.5218ZM13.642 32.5362L13.3245 31.0702L13.3245 31.0702L13.642 32.5362ZM13.5757 32.5505L13.2582 31.0845H13.2582L13.5757 32.5505ZM13.5094 32.5649L13.8269 34.0309L13.8269 34.0309L13.5094 32.5649ZM13.4432 32.5792L13.1258 31.1132L13.1257 31.1132L13.4432 32.5792ZM13.3769 32.5936L13.0594 31.1276L12.9157 31.1587L12.7808 31.2171L13.3769 32.5936ZM13.3106 32.6223L13.9068 33.9988L13.9068 33.9987L13.3106 32.6223ZM13.2444 32.651L12.6483 31.2745L12.6483 31.2745L13.2444 32.651ZM13.1781 32.6797L13.5942 34.1208L13.6863 34.0942L13.7742 34.0561L13.1781 32.6797ZM13.029 32.7227L12.6129 31.2816L12.5209 31.3082L12.4329 31.3463L13.029 32.7227ZM12.9628 32.7514L12.3667 31.375L12.3666 31.375L12.9628 32.7514ZM12.8302 32.8088L13.4263 34.1853L13.4264 34.1853L12.8302 32.8088ZM12.764 32.8375L13.3601 34.214L13.3601 34.214L12.764 32.8375ZM12.6314 32.8949L12.0353 31.5184L12.0353 31.5185L12.6314 32.8949ZM12.5652 32.9236L13.1613 34.3001L13.1613 34.3001L12.5652 32.9236ZM12.4989 32.9523L11.9028 31.5758L11.9028 31.5758L12.4989 32.9523ZM12.3664 33.0097L12.9625 34.3862H12.9625L12.3664 33.0097ZM12.3001 33.0384L11.704 31.6619L11.704 31.662L12.3001 33.0384ZM12.2338 33.0671L12.83 34.4436L12.83 34.4435L12.2338 33.0671ZM12.1676 33.0958L11.5715 31.7193H11.5715L12.1676 33.0958ZM11.9688 33.1819V34.6819H12.2796L12.5649 34.5584L11.9688 33.1819ZM11.9522 33.1819V31.6819H11.5502L11.2021 31.8829L11.9522 33.1819ZM11.8528 33.2393V34.7393H12.2548L12.6029 34.5383L11.8528 33.2393ZM11.8363 33.2393V31.7393H11.3918L11.0191 31.9814L11.8363 33.2393ZM11.77 33.2823L10.9528 32.0245L10.8661 32.0808L10.7879 32.1485L11.77 33.2823ZM11.7037 33.3397L12.5209 34.5976L12.6076 34.5413L12.6858 34.4736L11.7037 33.3397ZM11.5712 33.4258L12.3883 34.6837L12.3884 34.6837L11.5712 33.4258ZM11.5049 33.4689L10.6878 32.211L10.6624 32.2275L10.6376 32.245L11.5049 33.4689ZM11.3227 33.598L10.4554 32.3742L10.4275 32.394L10.4005 32.415L11.3227 33.598ZM11.157 33.7271L10.2348 32.5441L10.2043 32.568L10.175 32.5933L11.157 33.7271ZM11.1073 33.7702L12.0296 34.9532L12.0601 34.9294L12.0894 34.904L11.1073 33.7702ZM10.9417 33.8993L10.0195 32.7163L9.98891 32.7401L9.95962 32.7655L10.9417 33.8993ZM10.776 34.0428L9.79396 32.909L9.79395 32.909L10.776 34.0428ZM10.7263 34.0859L9.74425 32.9521L9.71452 32.9778L9.68618 33.0051L10.7263 34.0859ZM10.5772 34.2294L9.53708 33.1486L9.51134 33.1734L9.4868 33.1993L10.5772 34.2294ZM10.4281 34.3872L9.3377 33.3572L9.31542 33.3808L9.29417 33.4053L10.4281 34.3872ZM10.3784 34.4446L9.24447 33.4627L9.24445 33.4627L10.3784 34.4446ZM10.3287 34.502L9.19476 33.5201L9.18296 33.5337L9.17149 33.5476L10.3287 34.502ZM10.2459 34.6024L11.3799 35.5843L11.3917 35.5707L11.4032 35.5568L10.2459 34.6024ZM10.1962 34.6598L9.06225 33.6779L9.01872 33.7282L8.97981 33.7821L10.1962 34.6598ZM10.1134 34.7746L8.89698 33.8969L8.85239 33.9587L8.81429 34.0247L10.1134 34.7746ZM10.0802 34.832L8.78116 34.0821L8.78115 34.0821L10.0802 34.832ZM10.0471 34.8894L11.3462 35.6393L11.3462 35.6393L10.0471 34.8894ZM10.014 34.9468L8.7149 34.1969L8.71488 34.1969L10.014 34.9468ZM9.98085 35.0042L11.2799 35.7541L11.2799 35.7541L9.98085 35.0042ZM9.94771 35.0616L8.64863 34.3117L8.64863 34.3117L9.94771 35.0616ZM9.91458 35.119L8.6155 34.3691L8.61549 34.3691L9.91458 35.119ZM9.88145 35.1764L11.1805 35.9263L11.1805 35.9263L9.88145 35.1764ZM9.84832 35.2338L8.54923 34.4839L8.54922 34.4839L9.84832 35.2338ZM9.81518 35.2912L11.1143 36.0411L11.1143 36.0411L9.81518 35.2912ZM9.78205 35.3486L8.48297 34.5987L8.48297 34.5987L9.78205 35.3486ZM9.74892 35.406L8.44983 34.6561L8.44983 34.6561L9.74892 35.406ZM9.71579 35.4634L11.0149 36.2133L11.0149 36.2133L9.71579 35.4634ZM9.68265 35.5208L8.38357 34.7708L8.38356 34.7709L9.68265 35.5208ZM9.64952 35.5782L10.9486 36.3281L10.9486 36.3281L9.64952 35.5782ZM9.61639 35.6356L8.31731 34.8856L8.3173 34.8856L9.61639 35.6356ZM9.58326 35.6929L8.28417 34.943L8.28416 34.943L9.58326 35.6929ZM9.55012 35.7503L10.8492 36.5003L10.8492 36.5003L9.55012 35.7503ZM9.51699 35.8077L8.21791 35.0578L8.2179 35.0578L9.51699 35.8077ZM9.48386 35.8651L10.7829 36.6151L10.783 36.615L9.48386 35.8651ZM9.45073 35.9225L8.15165 35.1726L8.15164 35.1726L9.45073 35.9225ZM9.41759 35.9799L8.11851 35.23L8.02712 35.3883L7.97642 35.564L9.41759 35.9799ZM9.40103 36.0373L10.8422 36.4533L10.8422 36.4533L9.40103 36.0373ZM9.38446 36.0947L7.94329 35.6787L7.94329 35.6788L9.38446 36.0947ZM9.3679 36.1521L10.8091 36.5681L10.8091 36.5681L9.3679 36.1521ZM9.35133 36.2095L10.7925 36.6255L10.7925 36.6255L9.35133 36.2095ZM9.33476 36.2669L7.8936 35.8509L7.88235 35.8899L7.87322 35.9294L9.33476 36.2669ZM9.3182 36.3387L10.7797 36.6761L10.7797 36.6761L9.3182 36.3387ZM9.28507 36.4821L10.738 36.8549L10.7425 36.8373L10.7466 36.8196L9.28507 36.4821ZM9.25193 36.6113L7.79899 36.2385L7.79448 36.2561L7.79039 36.2738L9.25193 36.6113ZM9.23537 36.683L10.6969 37.0205H10.6969L9.23537 36.683ZM9.20223 36.8265L7.74069 36.489L7.72391 36.5617L7.71443 36.6357L9.20223 36.8265ZM9.18567 36.9557L10.6472 37.2931L10.664 37.2205L10.6735 37.1465L9.18567 36.9557ZM9.1691 37.0274L7.70756 36.6899L7.70756 36.6899L9.1691 37.0274ZM9.15254 37.0991L10.6141 37.4366L10.6141 37.4366L9.15254 37.0991ZM9.13597 37.1709L7.67443 36.8334L7.63597 37V37.1709H9.13597ZM6.94923 5.73243H8.44923V5.66044L8.44234 5.58878L6.94923 5.73243ZM54.3617 5.73243H52.8617V5.73306L54.3617 5.73243ZM34.5485 25.2326L34.866 23.7666L34.7091 23.7326H34.5485V25.2326ZM34.6148 25.2469L34.2973 26.713L34.2973 26.713L34.6148 25.2469ZM34.681 25.2613L34.9985 23.7953L34.9985 23.7953L34.681 25.2613ZM34.7473 25.2756L35.1336 23.8262L35.0994 23.8171L35.0648 23.8096L34.7473 25.2756ZM34.9627 25.333L35.3788 23.8919L35.3639 23.8876L35.3489 23.8836L34.9627 25.333ZM35.0124 25.3474L34.5963 26.7885L34.6057 26.7912L34.6151 26.7938L35.0124 25.3474ZM38.5907 27.0406L37.6901 28.2402L38.0903 28.5406H38.5907V27.0406ZM19.1916 14.0404L18.2716 12.8557L18.2399 12.8803L18.2096 12.9066L19.1916 14.0404ZM19.1419 14.0835L20.124 15.2173L20.124 15.2173L19.1419 14.0835ZM22.7037 27.0406V28.5406H23.2108L23.6139 28.2329L22.7037 27.0406ZM26.2654 25.3474L26.6815 26.7885L26.6815 26.7885L26.2654 25.3474ZM26.3151 25.333L25.9288 23.8836L25.9139 23.8876L25.899 23.8919L26.3151 25.333ZM26.5305 25.2756L26.213 23.8096L26.1784 23.8171L26.1442 23.8262L26.5305 25.2756ZM26.5967 25.2613L26.2793 23.7953L26.2793 23.7953L26.5967 25.2613ZM26.663 25.2469L26.9804 26.713L26.9805 26.713L26.663 25.2469ZM26.7293 25.2326L27.0467 26.6986L29.9795 26.0635L27.7114 24.0988L26.7293 25.2326ZM26.7127 25.2182L27.6948 24.0845L27.6947 24.0844L26.7127 25.2182ZM26.6961 25.2039L25.714 26.3377L25.7141 26.3378L26.6961 25.2039ZM26.6796 25.1895L27.6617 24.0558L27.6616 24.0557L26.6796 25.1895ZM26.663 25.1752L25.6809 26.309L25.681 26.3091L26.663 25.1752ZM26.6464 25.1609L25.6643 26.2946L25.6644 26.2947L26.6464 25.1609ZM26.6299 25.1465L27.612 24.0127L27.6119 24.0126L26.6299 25.1465ZM26.6133 25.1322L25.6312 26.2659L25.6313 26.266L26.6133 25.1322ZM26.5967 25.1178L27.5788 23.984L27.5788 23.9839L26.5967 25.1178ZM26.5802 25.1035L25.5981 26.2373L25.5981 26.2373L26.5802 25.1035ZM26.5636 25.0891L25.5815 26.2229L25.5815 26.2229L26.5636 25.0891ZM26.547 25.0748L27.5291 23.941L27.5291 23.9409L26.547 25.0748ZM26.5305 25.0604L25.5484 26.1942L25.5484 26.1943L26.5305 25.0604ZM26.5139 25.0461L27.496 23.9123L27.4959 23.9122L26.5139 25.0461ZM26.4973 25.0317L25.5153 26.1655L25.5153 26.1656L26.4973 25.0317ZM26.4808 25.0174L25.4987 26.1511L25.4987 26.1512L26.4808 25.0174ZM26.4642 25.003L27.4463 23.8692L27.4462 23.8692L26.4642 25.003ZM26.4476 24.9887L25.4655 26.1224L25.4656 26.1225L26.4476 24.9887ZM26.4311 24.9743L27.4132 23.8405L27.4131 23.8405L26.4311 24.9743ZM26.4145 24.96L25.4324 26.0938L25.4325 26.0938L26.4145 24.96ZM26.3979 24.9456L25.4158 26.0794L25.4159 26.0794L26.3979 24.9456ZM26.3814 24.9313L27.3635 23.7975L27.3634 23.7974L26.3814 24.9313ZM26.3648 24.9169L25.3827 26.0507L25.3828 26.0508L26.3648 24.9169ZM26.3482 24.9026L27.3304 23.7688L27.3303 23.7687L26.3482 24.9026ZM26.3317 24.8882L25.3496 26.022L25.3497 26.0221L26.3317 24.8882ZM26.3151 24.8739L25.333 26.0077L25.333 26.0077L26.3151 24.8739ZM26.2985 24.8595L27.2807 23.7257L27.2806 23.7257L26.2985 24.8595ZM26.282 24.8452L25.2999 25.979L25.3 25.979L26.282 24.8452ZM26.2654 24.8308L27.2475 23.697L27.2474 23.697L26.2654 24.8308ZM26.2488 24.8165L25.2668 25.9503L25.2668 25.9503L26.2488 24.8165ZM26.2323 24.8021L25.2502 25.9359L25.2502 25.9359L26.2323 24.8021ZM26.2157 24.7878L27.1978 23.654L27.1977 23.6539L26.2157 24.7878ZM26.1991 24.7734L25.217 25.9072L25.2171 25.9073L26.1991 24.7734ZM26.1826 24.7591L27.1647 23.6253L27.1646 23.6252L26.1826 24.7591ZM26.166 24.7447L25.1839 25.8786L25.184 25.8786L26.166 24.7447ZM26.1494 24.7304L25.1673 25.8642L25.1674 25.8642L26.1494 24.7304ZM26.1329 24.716L27.115 23.5823L27.1149 23.5822L26.1329 24.716ZM26.1163 24.7017L25.1342 25.8355L25.1343 25.8355L26.1163 24.7017ZM26.0997 24.6873L27.0819 23.5536L27.0818 23.5535L26.0997 24.6873ZM26.0832 24.673L25.1011 25.8068L25.1012 25.8068L26.0832 24.673ZM26.0666 24.6586L25.0845 25.7924L25.0846 25.7925L26.0666 24.6586ZM26.0501 24.6443L27.0322 23.5105L27.0321 23.5104L26.0501 24.6443ZM26.0335 24.6299L25.0514 25.7637L25.0515 25.7638L26.0335 24.6299ZM26.0169 24.6156L26.999 23.4818L26.9989 23.4817L26.0169 24.6156ZM26.0004 24.6012L25.0183 25.735L25.0183 25.7351L26.0004 24.6012ZM25.9672 24.5725L26.9493 23.4387L26.9492 23.4387L25.9672 24.5725ZM25.9507 24.5582L24.9685 25.692L24.9686 25.6921L25.9507 24.5582ZM25.9341 24.5438L26.9162 23.4101L26.9161 23.41L25.9341 24.5438ZM25.9175 24.5295L24.9355 25.6633L24.9355 25.6634L25.9175 24.5295ZM25.901 24.5152L24.9188 25.6489L24.9189 25.649L25.901 24.5152ZM25.8844 24.5008L26.8665 23.367L26.8664 23.3669L25.8844 24.5008ZM25.8678 24.4865L24.8858 25.6203L24.8858 25.6203L25.8678 24.4865ZM25.8181 24.4434L24.836 25.5772L24.8361 25.5772L25.8181 24.4434ZM25.8016 24.4291L26.7837 23.2953L26.7836 23.2952L25.8016 24.4291ZM25.7684 24.4004L26.7505 23.2665L26.7504 23.2665L25.7684 24.4004ZM25.7519 24.386L24.7698 25.5198L24.7698 25.5199L25.7519 24.386ZM25.7187 24.3573L26.7008 23.2235L26.7008 23.2235L25.7187 24.3573ZM25.669 24.3143L24.687 25.4481L24.687 25.4481L25.669 24.3143ZM35.4762 24.343L36.4582 25.4769L36.4583 25.4768L35.4762 24.343ZM35.4596 24.3573L34.4777 23.2234L34.4775 23.2236L35.4596 24.3573ZM35.4431 24.3717L36.4251 25.5055L36.4252 25.5054L35.4431 24.3717ZM35.3106 24.4865L36.2925 25.6203L36.2926 25.6203L35.3106 24.4865ZM35.294 24.5008L34.312 23.3669L34.3118 23.3671L35.294 24.5008ZM35.2774 24.5152L36.2595 25.649L36.2596 25.6489L35.2774 24.5152ZM35.1449 24.6299L36.1269 25.7638L36.127 25.7638L35.1449 24.6299ZM35.1283 24.6443L34.1463 23.5104L34.1462 23.5105L35.1283 24.6443ZM35.1118 24.6586L36.0938 25.7925L36.0939 25.7924L35.1118 24.6586ZM35.0621 24.7017L36.044 25.8356L36.0441 25.8355L35.0621 24.7017ZM35.0455 24.716L34.0635 23.5821L34.0633 23.5823L35.0455 24.716ZM35.0289 24.7304L36.011 25.8642L36.0111 25.8641L35.0289 24.7304ZM34.9958 24.7591L34.0137 23.6253L33.0774 24.4362L33.6967 25.509L34.9958 24.7591ZM35.0621 24.8739L36.0441 26.0077L36.9804 25.1967L36.3612 24.124L35.0621 24.8739ZM34.5651 25.3043L33.1035 25.6418L33.6641 28.0692L35.5471 26.4382L34.5651 25.3043ZM40.2804 28.949V27.449H37.7243L38.9709 29.6805L40.2804 28.949ZM40.8271 30.3982L39.3635 30.7268L39.6265 31.8982H40.8271V30.3982ZM46.4762 30.3982L46.6905 28.9136L46.5839 28.8982H46.4762V30.3982ZM46.5756 30.4126L46.3612 31.8972L46.3613 31.8972L46.5756 30.4126ZM46.675 30.4269L46.8893 28.9423L46.8893 28.9423L46.675 30.4269ZM46.7744 30.4412L46.56 31.9259L46.5601 31.9259L46.7744 30.4412ZM46.8738 30.4556L47.0881 28.971L47.088 28.971L46.8738 30.4556ZM46.9731 30.4699L46.7588 31.9546L46.7588 31.9546L46.9731 30.4699ZM47.0725 30.4843L46.8582 31.9689L46.8582 31.9689L47.0725 30.4843ZM47.1719 30.4986L47.3863 29.014L47.3862 29.014L47.1719 30.4986ZM47.2713 30.513L47.057 31.9976L47.057 31.9976L47.2713 30.513ZM47.3707 30.5273L47.5851 29.0427L47.585 29.0427L47.3707 30.5273ZM47.4701 30.5417L47.2558 32.0263H47.2558L47.4701 30.5417ZM47.5695 30.556L47.3552 32.0407L47.3552 32.0407L47.5695 30.556ZM47.6689 30.5704L47.8833 29.0858L47.8832 29.0858L47.6689 30.5704ZM47.7683 30.5847L48.1844 29.1436L48.085 29.1149L47.9827 29.1001L47.7683 30.5847ZM47.8677 30.6134L48.2838 29.1723L48.2838 29.1723L47.8677 30.6134ZM47.9671 30.6421L47.551 32.0833L47.551 32.0833L47.9671 30.6421ZM48.0665 30.6708L48.4826 29.2297L48.4826 29.2297L48.0665 30.6708ZM48.1659 30.6995L47.7498 32.1407L47.7498 32.1407L48.1659 30.6995ZM48.2653 30.7282L47.8492 32.1694L47.8492 32.1694L48.2653 30.7282ZM48.3647 30.7569L48.7808 29.3158L48.7808 29.3158L48.3647 30.7569ZM48.4641 30.7856L48.8802 29.3445L48.8802 29.3445L48.4641 30.7856ZM48.6629 30.843L48.2468 32.2842L48.2468 32.2842L48.6629 30.843ZM48.7623 30.8717L49.3118 29.476L49.2462 29.4501L49.1784 29.4306L48.7623 30.8717ZM48.9445 30.9435L48.395 32.3392L48.4607 32.365L48.5284 32.3846L48.9445 30.9435ZM49.0439 30.9722L48.6278 32.4133L48.6278 32.4133L49.0439 30.9722ZM49.2427 31.0296L49.9344 29.6986L49.8021 29.6298L49.6588 29.5884L49.2427 31.0296ZM49.3256 31.0726L50.0173 29.7416L50.0173 29.7416L49.3256 31.0726ZM49.4084 31.1156L48.7166 32.4466L48.7167 32.4466L49.4084 31.1156ZM49.574 31.2017L48.8823 32.5327L48.8824 32.5327L49.574 31.2017ZM49.6569 31.2448L48.9652 32.5758L48.9824 32.5847L48.9999 32.5933L49.6569 31.2448ZM49.9219 31.3739L50.5789 30.0255H50.5789L49.9219 31.3739ZM50.187 31.5031L50.8787 30.1721L50.8615 30.1631L50.844 30.1546L50.187 31.5031ZM50.2698 31.5461L49.5781 32.8771L49.5912 32.8839L49.6044 32.8905L50.2698 31.5461ZM50.6011 31.747L49.7232 32.9633L49.7665 32.9945L49.8119 33.0226L50.6011 31.747ZM50.9325 31.9622L51.8104 30.746L51.7671 30.7147L51.7217 30.6866L50.9325 31.9622ZM51.2472 32.1918L50.2652 33.3256L50.2979 33.354L50.3321 33.3804L51.2472 32.1918ZM51.6945 32.5505L50.7124 33.6844L51.6945 32.5505ZM52.0093 32.8375L50.9431 33.8926L53.5093 36.4858V32.8375H52.0093ZM52.0093 6.67946H53.5093V5.17946H52.0093V6.67946ZM9.10284 6.67946V5.17946H7.60284V6.67946H9.10284ZM9.10284 32.8519H7.60284V36.5001L10.169 33.907L9.10284 32.8519ZM9.41759 32.5649L10.3997 33.6987L9.41759 32.5649ZM10.0305 32.0914L10.8623 33.3397L10.8802 33.3277L10.8978 33.3152L10.0305 32.0914ZM11.2067 31.3883L10.566 30.032L10.559 30.0353L10.5521 30.0387L11.2067 31.3883ZM11.389 31.3022L12.0297 32.6584L12.0554 32.6463L12.0807 32.6332L11.389 31.3022ZM11.4718 31.2591L10.831 29.9029L10.8053 29.915L10.7801 29.9281L11.4718 31.2591ZM11.654 31.173L11.0579 29.7966L11.0354 29.8063L11.0133 29.8168L11.654 31.173ZM11.7534 31.13L12.3495 32.5065L12.3495 32.5065L11.7534 31.13ZM12.0516 31.0009L11.6355 29.5597L11.5435 29.5863L11.4555 29.6244L12.0516 31.0009ZM12.151 30.9722L12.5671 32.4133H12.5671L12.151 30.9722ZM12.2504 30.9435L11.8343 29.5023L11.8343 29.5023L12.2504 30.9435ZM12.3498 30.9148L12.7659 32.3559L12.7659 32.3559L12.3498 30.9148ZM12.4492 30.8861L12.0331 29.4449L12.0331 29.4449L12.4492 30.8861ZM12.648 30.8287L13.0641 32.2698L13.0641 32.2698L12.648 30.8287ZM12.7474 30.8L12.3313 29.3588H12.3313L12.7474 30.8ZM12.8468 30.7713L13.2629 32.2124L13.2629 32.2124L12.8468 30.7713ZM12.9462 30.7426L12.5301 29.3014L12.5301 29.3014L12.9462 30.7426ZM13.0456 30.7139L12.6295 29.2727L12.6295 29.2727L13.0456 30.7139ZM13.145 30.6852L13.5611 32.1263H13.5611L13.145 30.6852ZM13.2444 30.6565L12.8283 29.2153H12.8283L13.2444 30.6565ZM13.3438 30.6278L13.7599 32.0689L13.7599 32.0689L13.3438 30.6278ZM13.4432 30.5991L13.2289 29.1145L13.1265 29.1293L13.0271 29.158L13.4432 30.5991ZM13.5426 30.5847L13.7569 32.0694L13.7569 32.0693L13.5426 30.5847ZM13.642 30.5704L13.4277 29.0858L13.4276 29.0858L13.642 30.5704ZM13.7414 30.556L13.9557 32.0407L13.9557 32.0407L13.7414 30.556ZM13.8408 30.5417L14.0551 32.0263H14.0551L13.8408 30.5417ZM13.9402 30.5273L13.7259 29.0427L13.7258 29.0427L13.9402 30.5273ZM14.0396 30.513L14.2539 31.9976L14.2539 31.9976L14.0396 30.513ZM14.139 30.4986L13.9247 29.014L13.9246 29.014L14.139 30.4986ZM14.2384 30.4843L14.4527 31.9689L14.4527 31.9689L14.2384 30.4843ZM14.3378 30.4699L14.5521 31.9546L14.5521 31.9546L14.3378 30.4699ZM14.4372 30.4556L14.2229 28.971L14.2228 28.971L14.4372 30.4556ZM14.5365 30.4412L14.7508 31.9259L14.7509 31.9259L14.5365 30.4412ZM14.6359 30.4269L14.4216 28.9423L14.4216 28.9423L14.6359 30.4269ZM14.7353 30.4126V28.9126H14.6276L14.521 28.9279L14.7353 30.4126ZM20.401 30.4126V31.9126H21.6016L21.8646 30.7411L20.401 30.4126ZM20.9477 28.9633L22.2572 29.6949L23.5038 27.4633H20.9477V28.9633ZM17.5516 27.7437L16.5695 28.8775L16.5802 28.8867L17.5516 27.7437ZM17.5516 12.749L16.5695 11.6152L16.5642 11.6199L16.5589 11.6245L17.5516 12.749ZM17.6179 12.6916L16.6579 11.539L16.6468 11.5483L16.6358 11.5578L17.6179 12.6916ZM43.6433 27.7293L42.6506 26.6048L42.645 26.6098L42.6394 26.6148L43.6433 27.7293ZM26.0004 27.4567L26.538 28.857L26.5675 28.8457L26.5965 28.8331L26.0004 27.4567ZM22.6871 30.3839L21.2703 29.8914L20.5777 31.8839H22.6871V30.3839ZM38.5907 30.3839V31.8839H40.6728L40.0135 29.9089L38.5907 30.3839ZM35.8075 27.6719L35.1158 29.0029L35.1511 29.0212L35.1872 29.0376L35.8075 27.6719ZM35.7247 27.6289L36.4164 26.2979L36.3192 26.2474L36.2158 26.2115L35.7247 27.6289ZM35.6419 27.6002L34.6598 28.734L34.878 28.923L35.1508 29.0175L35.6419 27.6002ZM35.6253 27.5858L36.6074 26.452L36.4331 26.301L36.2214 26.2094L35.6253 27.5858ZM35.559 27.5571L36.1552 26.1807L36.1034 26.1582L36.0501 26.1398L35.559 27.5571ZM35.4762 27.5284L34.8801 28.9049L34.9318 28.9273L34.9852 28.9458L35.4762 27.5284ZM35.4431 27.5141L36.0392 26.1376L35.9512 26.0995L35.8591 26.0729L35.4431 27.5141ZM35.3934 27.4997L34.6433 28.7987L34.8017 28.8902L34.9773 28.9409L35.3934 27.4997ZM35.3437 27.471L36.0938 26.172L36.019 26.1289L35.9398 26.0946L35.3437 27.471ZM35.3106 27.4567L35.9067 26.0802L35.9067 26.0802L35.3106 27.4567ZM35.2443 27.428L34.2622 28.5618L34.4365 28.7128L34.6482 28.8044L35.2443 27.428ZM35.2277 27.4136L36.2098 26.2798L35.9916 26.0908L35.7188 25.9963L35.2277 27.4136ZM35.1449 27.3849L35.6359 25.9676L35.3974 25.8849H35.1449V27.3849ZM35.1283 27.3849L34.7122 28.8261L34.9161 28.8849H35.1283V27.3849ZM35.0289 27.3562L35.445 25.9151L35.445 25.9151L35.0289 27.3562ZM34.9295 27.3275L35.3456 25.8864L35.1417 25.8275H34.9295V27.3275ZM34.913 27.3275L34.4219 28.7449L34.6605 28.8275H34.913V27.3275ZM34.8301 27.2988L34.2341 28.6753L34.2858 28.6977L34.339 28.7162L34.8301 27.2988ZM34.797 27.2845L34.2009 28.661L34.201 28.661L34.797 27.2845ZM34.7307 27.2558L34.1346 28.6322L34.1346 28.6323L34.7307 27.2558ZM34.6976 27.2414L35.2938 25.865L35.2058 25.8269L35.1137 25.8003L34.6976 27.2414ZM34.6479 27.2271L35.064 25.786L35.0639 25.7859L34.6479 27.2271ZM34.5982 27.2127L34.1821 28.6539L34.1822 28.6539L34.5982 27.2127ZM34.5485 27.1984L34.9646 25.7573L34.9646 25.7573L34.5485 27.1984ZM34.4491 27.1697L34.8652 25.7286L34.7862 25.7058L34.7052 25.6917L34.4491 27.1697ZM34.3663 27.1553L34.6223 25.6774L34.4952 25.6553H34.3663V27.1553ZM34.3497 27.1553L33.8587 28.5727L34.0972 28.6553H34.3497V27.1553ZM34.2669 27.1267L34.7579 25.7093L34.5194 25.6267H34.2669V27.1267ZM34.2503 27.1267L33.8343 28.5678L34.0381 28.6267H34.2503V27.1267ZM34.2006 27.1123L33.6045 28.4887L33.6924 28.5269L33.7846 28.5535L34.2006 27.1123ZM34.1675 27.098L34.7636 25.7215L34.4784 25.598H34.1675V27.098ZM34.1509 27.098L33.7348 28.5391L33.9387 28.598H34.1509V27.098ZM34.1012 27.0836L33.5051 28.4601L33.5931 28.4982L33.6851 28.5247L34.1012 27.0836ZM34.0681 27.0693L34.6642 25.6928L34.3789 25.5693H34.0681V27.0693ZM34.0515 27.0693L33.6812 28.5228L33.8635 28.5693H34.0515V27.0693ZM33.7699 26.9975L33.1737 28.374L33.2836 28.4215L33.3996 28.4511L33.7699 26.9975ZM33.7368 26.9832L34.3329 25.6067L34.0476 25.4832H33.7368V26.9832ZM33.7202 26.9832L33.4642 28.4612L33.5912 28.4832H33.7202V26.9832ZM33.5545 26.9545L33.1384 28.3956L33.2174 28.4184L33.2985 28.4325L33.5545 26.9545ZM33.5048 26.9401L33.921 25.499L33.7171 25.4401H33.5048V26.9401ZM33.4883 26.9401L33.0722 28.3813L33.2761 28.4401H33.4883V26.9401ZM33.4386 26.9258L33.8546 25.4846L33.8269 25.4766L33.7989 25.4697L33.4386 26.9258ZM33.3226 26.8971L32.9065 28.3382L32.9342 28.3462L32.9623 28.3531L33.3226 26.8971ZM33.2729 26.8827L33.689 25.4416L33.4851 25.3827H33.2729V26.8827ZM33.2563 26.8827L33.0721 28.3714L33.1639 28.3827H33.2563V26.8827ZM33.1404 26.8684L33.3246 25.3797L33.0718 25.3484L32.8229 25.4024L33.1404 26.8684ZM33.0741 26.8827L32.8004 28.3575L33.0969 28.4126L33.3916 28.3487L33.0741 26.8827ZM32.8422 26.8397L33.1159 25.3649L32.9802 25.3397H32.8422V26.8397ZM32.7759 26.8397L32.5917 28.3283L32.6835 28.3397H32.7759V26.8397ZM32.544 26.811L32.7282 25.3223L32.6364 25.311H32.544V26.811ZM32.5274 26.811L32.3724 28.3029L32.4497 28.311H32.5274V26.811ZM32.1133 26.7679L32.2683 25.276L32.191 25.2679H32.1133V26.7679ZM31.9973 26.7679L31.8679 28.2623L31.9325 28.2679H31.9973V26.7679ZM31.8316 26.7536L31.9611 25.2592L31.9427 25.2576L31.9243 25.2564L31.8316 26.7536ZM31.5997 26.7392L31.6924 25.2421L31.5997 26.7392ZM31.3678 26.7249L31.4604 25.2277L31.4604 25.2277L31.3678 26.7249ZM31.1359 26.7105L31.2285 25.2134L31.1822 25.2105H31.1359V26.7105ZM30.175 26.7105V25.2105H30.1287L30.0824 25.2134L30.175 26.7105ZM29.9431 26.7249V28.2249H29.9895L30.0357 28.222L29.9431 26.7249ZM29.8768 26.7249V25.2249H29.8179L29.7591 25.2295L29.8768 26.7249ZM29.6946 26.7392V28.2392H29.7536L29.8124 28.2346L29.6946 26.7392ZM29.3799 26.7392V25.2392H29.2509L29.1238 25.2612L29.3799 26.7392ZM29.297 26.7536V28.2536H29.426L29.5531 28.2316L29.297 26.7536ZM29.032 26.7536V25.2536H28.973L28.9142 25.2582L29.032 26.7536ZM28.8497 26.7679V28.2679H28.9087L28.9675 28.2633L28.8497 26.7679ZM28.8166 26.7679V25.2679H28.7196L28.6233 25.2804L28.8166 26.7679ZM28.4853 26.811V28.311H28.5823L28.6785 28.2985L28.4853 26.811ZM28.4521 26.811V25.311H28.3597L28.2679 25.3223L28.4521 26.811ZM28.3362 26.8253V28.3253H28.4286L28.5204 28.314L28.3362 26.8253ZM28.3196 26.8253V25.3253H28.1074L27.9036 25.3842L28.3196 26.8253ZM28.2699 26.8397V28.3397H28.4821L28.686 28.2808L28.2699 26.8397ZM28.2202 26.8397V25.3397H28.008L27.8041 25.3985L28.2202 26.8397ZM28.1705 26.854V28.354H28.3827L28.5866 28.2952L28.1705 26.854ZM28.1208 26.854V25.354H27.9086L27.7048 25.4129L28.1208 26.854ZM28.0711 26.8684L27.6551 25.4272L27.563 25.4538L27.475 25.4919L28.0711 26.8684ZM28.038 26.8827V28.3827H28.3489L28.6341 28.2592L28.038 26.8827ZM28.0214 26.8827V25.3827H27.8092L27.6053 25.4416L28.0214 26.8827ZM27.9717 26.8971L27.5556 25.4559L27.4636 25.4825L27.3757 25.5206L27.9717 26.8971ZM27.9386 26.9114V28.4114H28.2494L28.5347 28.2879L27.9386 26.9114ZM27.922 26.9114V25.4114H27.7098L27.5059 25.4703L27.922 26.9114ZM27.8723 26.9258L28.2884 28.3669L28.2884 28.3669L27.8723 26.9258ZM27.8226 26.9401V28.4401H28.0348L28.2387 28.3813L27.8226 26.9401ZM27.8061 26.9401V25.4401H27.5938L27.39 25.499L27.8061 26.9401ZM27.7564 26.9545L28.0559 28.4243L28.1148 28.4123L28.1725 28.3956L27.7564 26.9545ZM27.4747 27.0119L27.1752 25.5421L27.1361 25.55L27.0975 25.5601L27.4747 27.0119ZM27.3091 27.0549L26.9318 25.6031L26.9123 25.6082L26.893 25.6138L27.3091 27.0549ZM27.2594 27.0693L27.6197 28.5253L27.6477 28.5184L27.6755 28.5104L27.2594 27.0693ZM27.1434 27.098L26.7831 25.6419L26.7551 25.6488L26.7273 25.6568L27.1434 27.098ZM27.0937 27.1123L27.5098 28.5535L27.5098 28.5534L27.0937 27.1123ZM27.044 27.1267L26.628 25.6855L26.6279 25.6855L27.044 27.1267ZM26.9943 27.141L27.3117 28.607L27.3615 28.5963L27.4104 28.5821L26.9943 27.141ZM26.9281 27.1553L26.6106 25.6893L26.4669 25.7204L26.3319 25.7789L26.9281 27.1553ZM26.8949 27.1697L27.2124 28.6357L27.3561 28.6046L27.4911 28.5462L26.8949 27.1697ZM26.8287 27.184V28.684H26.9892L27.1461 28.6501L26.8287 27.184ZM26.8121 27.184V25.684H26.5596L26.321 25.7667L26.8121 27.184ZM26.7293 27.2127V28.7127H26.9817L27.2203 28.6301L26.7293 27.2127ZM26.7127 27.2127V25.7127H26.5005L26.2966 25.7716L26.7127 27.2127ZM26.6133 27.2414L26.1972 25.8003L26.1594 25.8112L26.1223 25.8241L26.6133 27.2414ZM26.5305 27.2701V28.7701H26.783L27.0215 28.6875L26.5305 27.2701ZM26.5139 27.2701V25.7701H26.2031L25.9178 25.8937L26.5139 27.2701ZM26.4476 27.2988L25.8515 25.9224L25.8515 25.9224L26.4476 27.2988ZM26.4145 27.3132L26.732 28.7792L26.8757 28.7481L27.0107 28.6896L26.4145 27.3132ZM26.3482 27.3275L26.0308 25.8615L25.9811 25.8723L25.9322 25.8864L26.3482 27.3275ZM26.2985 27.3419L25.8825 25.9007L25.8824 25.9008L26.2985 27.3419ZM26.2488 27.3562L26.6649 28.7974L26.665 28.7974L26.2488 27.3562ZM26.1991 27.3706L25.7831 25.9294L25.691 25.956L25.603 25.9941L26.1991 27.3706ZM26.166 27.3849L26.7621 28.7614L26.7622 28.7614L26.166 27.3849ZM35.4099 20.2392L33.9101 20.2175L33.9099 20.2284V20.2392H35.4099ZM52.8782 45.1345C52.8782 44.8918 52.9962 44.7346 53.0731 44.6679C53.1494 44.6019 53.2254 44.5816 53.2849 44.5816V47.5816C54.5001 47.5816 55.8782 46.6746 55.8782 45.1345H52.8782ZM53.2849 44.5816C53.3443 44.5816 53.4204 44.6019 53.4966 44.6679C53.5735 44.7346 53.6915 44.8918 53.6915 45.1345H50.6915C50.6915 46.6746 52.0696 47.5816 53.2849 47.5816V44.5816ZM53.6915 45.1345V37.7018H50.6915V45.1345H53.6915ZM53.6915 37.7018V37.6301H50.6915V37.7018H53.6915ZM53.6915 37.6301V37.5583H50.6915V37.6301H53.6915ZM53.6915 37.5583V37.4866H50.6915V37.5583H53.6915ZM53.6915 37.4866V37.4148H50.6915V37.4866H53.6915ZM53.6915 37.4148V37.3431H50.6915V37.4148H53.6915ZM53.6915 37.3431V37.2713H50.6915V37.3431H53.6915ZM53.6915 37.2713V37.1996H50.6915V37.2713H53.6915ZM53.653 36.8621L53.6365 36.7903L50.7134 37.4653L50.73 37.5371L53.653 36.8621ZM53.6365 36.7904L53.6199 36.7187L50.6968 37.3935L50.7134 37.4652L53.6365 36.7904ZM53.6199 36.7186L53.6033 36.6469L50.6803 37.3218L50.6968 37.3936L53.6199 36.7186ZM53.6296 36.7935L53.613 36.6643L50.6374 37.0461L50.654 37.1752L53.6296 36.7935ZM53.5868 36.5177L53.5702 36.446L50.6471 37.121L50.6637 37.1927L53.5868 36.5177ZM53.5702 36.446L53.5536 36.3742L50.6306 37.0492L50.6471 37.121L53.5702 36.446ZM53.5537 36.3743L53.5371 36.3026L50.614 36.9774L50.6305 37.0491L53.5537 36.3743ZM53.5285 36.2672L53.4953 36.138L50.5895 36.8836L50.6226 37.0128L53.5285 36.2672ZM53.5039 36.1733L53.4874 36.1016L50.5643 36.7766L50.5809 36.8483L53.5039 36.1733ZM53.4874 36.1016L53.4708 36.0299L50.5477 36.7048L50.5643 36.7766L53.4874 36.1016ZM53.4708 36.03L53.4543 35.9582L50.5311 36.633L50.5477 36.7048L53.4708 36.03ZM53.4339 35.8796L53.4173 35.8222L50.535 36.6542L50.5515 36.7116L53.4339 35.8796ZM53.4173 35.8222L53.4007 35.7648L50.5184 36.5968L50.535 36.6542L53.4173 35.8222ZM53.4007 35.7648L53.3842 35.7074L50.5018 36.5394L50.5184 36.5968L53.4007 35.7648ZM53.3429 35.5847L53.2932 35.4555L50.4934 36.533L50.5431 36.6621L53.3429 35.5847ZM53.1924 35.2443L53.1592 35.1869L50.5611 36.6868L50.5942 36.7442L53.1924 35.2443ZM53.1593 35.187L53.1262 35.1296L50.5279 36.6293L50.561 36.6867L53.1593 35.187ZM53.1261 35.1295L53.093 35.0721L50.4948 36.5721L50.528 36.6294L53.1261 35.1295ZM53.093 35.0722L53.0598 35.0148L50.4617 36.5146L50.4948 36.572L53.093 35.0722ZM53.0599 35.0148L53.0268 34.9574L50.4285 36.4572L50.4617 36.5146L53.0599 35.0148ZM53.0267 34.9573L52.9936 34.8999L50.3954 36.3999L50.4286 36.4573L53.0267 34.9573ZM52.9936 34.9L52.9273 34.7852L50.3292 36.285L50.3954 36.3998L52.9936 34.9ZM52.9273 34.7852L52.8942 34.7278L50.296 36.2277L50.3292 36.285L52.9273 34.7852ZM52.8942 34.7278L52.8611 34.6705L50.2629 36.1702L50.296 36.2276L52.8942 34.7278ZM52.861 34.6704L52.8279 34.613L50.2298 36.1129L50.2629 36.1703L52.861 34.6704ZM52.828 34.6131L52.7948 34.5557L50.1966 36.0554L50.2297 36.1128L52.828 34.6131ZM52.7948 34.5556L52.7616 34.4982L50.1635 35.9981L50.1967 36.0555L52.7948 34.5556ZM52.7617 34.4982L52.6954 34.3834L50.0972 35.8832L50.1635 35.998L52.7617 34.4982ZM52.6954 34.3834L52.6622 34.326L50.0641 35.8259L50.0973 35.8833L52.6954 34.3834ZM52.6623 34.3261L52.6292 34.2687L50.0309 35.7684L50.0641 35.8258L52.6623 34.3261ZM52.6291 34.2686L52.596 34.2112L49.9979 35.7111L50.031 35.7685L52.6291 34.2686ZM52.596 34.2112L52.5629 34.1538L49.9647 35.6537L49.9978 35.7111L52.596 34.2112ZM52.5629 34.1539L52.5298 34.0965L49.9315 35.5962L49.9647 35.6536L52.5629 34.1539ZM52.5297 34.0964L52.4966 34.039L49.8985 35.5389L49.9316 35.5963L52.5297 34.0964ZM52.4966 34.0391L52.4635 33.9817L49.8653 35.4814L49.8984 35.5388L52.4966 34.0391ZM52.2983 33.7496L52.2486 33.6922L49.9808 35.6561L50.0305 35.7135L52.2983 33.7496ZM52.2487 33.6923L52.199 33.6349L49.931 35.5986L49.9807 35.656L52.2487 33.6923ZM52.1989 33.6348L52.1492 33.5774L49.8814 35.5413L49.9311 35.5987L52.1989 33.6348ZM52.1493 33.5775L52.0996 33.5201L49.8316 35.4839L49.8813 35.5413L52.1493 33.5775ZM52.0996 33.5201L52.0499 33.4627L49.7819 35.4265L49.8316 35.4839L52.0996 33.5201ZM52.0498 33.4627L52.0001 33.4053L49.7323 35.3691L49.782 35.4265L52.0498 33.4627ZM51.9566 33.3572L51.8075 33.1993L49.6267 35.2594L49.7758 35.4172L51.9566 33.3572ZM51.7573 33.1486L51.6082 33.0051L49.5279 35.1667L49.677 35.3101L51.7573 33.1486ZM51.55 32.952L51.5003 32.909L49.5363 35.1767L49.586 35.2197L51.55 32.952ZM51.5585 32.962L51.4094 32.8186L49.3291 34.9801L49.4782 35.1236L51.5585 32.962ZM51.3513 32.7655L51.1856 32.622L49.2215 34.8897L49.3871 35.0332L51.3513 32.7655ZM51.1856 32.622L51.1359 32.579L49.1718 34.8466L49.2215 34.8897L51.1856 32.622ZM51.0761 32.5298L50.9104 32.4006L49.066 34.7667L49.2316 34.8958L51.0761 32.5298ZM50.8555 32.3598L50.6733 32.2307L48.9387 34.6784L49.1209 34.8075L50.8555 32.3598ZM50.6231 32.1966L50.5569 32.1536L48.9225 34.6693L48.9888 34.7124L50.6231 32.1966ZM50.5569 32.1536L50.4906 32.1106L48.8563 34.6263L48.9225 34.6693L50.5569 32.1536ZM50.4626 32.0928L50.3467 32.0211L48.7683 34.5723L48.8843 34.644L50.4626 32.0928ZM50.3746 32.0388L50.3084 31.9958L48.674 34.5115L48.7403 34.5546L50.3746 32.0388ZM50.2053 31.9345L50.0728 31.8628L48.6446 34.501L48.7771 34.5728L50.2053 31.9345ZM49.9548 31.8054L49.8885 31.7767L48.6963 34.5296L48.7625 34.5583L49.9548 31.8054ZM49.8885 31.7767L49.8223 31.748L48.63 34.501L48.6963 34.5297L49.8885 31.7767ZM49.8223 31.748L49.756 31.7193L48.5638 34.4723L48.63 34.501L49.8223 31.748ZM49.756 31.7193L49.6897 31.6906L48.4975 34.4436L48.5638 34.4723L49.756 31.7193ZM49.6898 31.6907L49.6235 31.662L48.4312 34.4148L48.4975 34.4435L49.6898 31.6907ZM49.6235 31.6619L49.5572 31.6332L48.365 34.3862L48.4313 34.4149L49.6235 31.6619ZM49.5572 31.6332L49.4909 31.6045L48.2987 34.3575L48.365 34.3862L49.5572 31.6332ZM49.4909 31.6045L49.4247 31.5758L48.2324 34.3288L48.2987 34.3575L49.4909 31.6045ZM49.4247 31.5758L49.3584 31.5471L48.1662 34.3001L48.2325 34.3288L49.4247 31.5758ZM49.3585 31.5472L49.2922 31.5185L48.0999 34.2714L48.1661 34.3001L49.3585 31.5472ZM49.2921 31.5184L49.2259 31.4897L48.0337 34.2427L48.0999 34.2714L49.2921 31.5184ZM49.2259 31.4898L49.1596 31.4611L47.9674 34.214L48.0336 34.2427L49.2259 31.4898ZM49.1596 31.4611L49.0271 31.4037L47.8349 34.1566L47.9674 34.214L49.1596 31.4611ZM49.0271 31.4037L48.9609 31.375L47.7686 34.1279L47.8348 34.1566L49.0271 31.4037ZM48.9608 31.375L48.8945 31.3463L47.7023 34.0992L47.7686 34.1279L48.9608 31.375ZM48.8946 31.3463L48.8283 31.3176L47.6361 34.0705L47.7023 34.0992L48.8946 31.3463ZM48.8283 31.3176L48.762 31.2889L47.5698 34.0418L47.6361 34.0705L48.8283 31.3176ZM48.762 31.2889L48.6957 31.2602L47.5036 34.0131L47.5698 34.0418L48.762 31.2889ZM48.5157 31.1955L48.3666 31.1525L47.5345 34.0347L47.6836 34.0778L48.5157 31.1955ZM48.268 31.1276L48.2018 31.1132L47.5668 34.0453L47.6331 34.0596L48.268 31.1276ZM48.2017 31.1132L48.1355 31.0989L47.5006 34.0309L47.5669 34.0453L48.2017 31.1132ZM48.1355 31.0989L48.0692 31.0845L47.4343 34.0166L47.5005 34.0309L48.1355 31.0989ZM48.0078 31.0726L47.925 31.0582L47.4129 34.0142L47.4957 34.0285L48.0078 31.0726ZM47.9863 31.0702L47.9201 31.0558L47.2852 33.9879L47.3515 34.0022L47.9863 31.0702ZM47.8587 31.0439L47.7759 31.0295L47.2638 33.9855L47.3466 33.9998L47.8587 31.0439ZM47.7758 31.0295L47.693 31.0152L47.181 33.9711L47.2638 33.9855L47.7758 31.0295ZM47.6931 31.0152L47.6102 31.0008L47.0981 33.9568L47.181 33.9711L47.6931 31.0152ZM47.6377 31.0058L47.4886 30.9771L46.9216 33.9231L47.0707 33.9518L47.6377 31.0058ZM47.4611 30.9721L47.3783 30.9578L46.8662 33.9137L46.949 33.9281L47.4611 30.9721ZM47.4058 30.9628L47.2567 30.9341L46.6896 33.88L46.8387 33.9087L47.4058 30.9628ZM47.2292 30.9291L47.1464 30.9147L46.6343 33.8707L46.7171 33.885L47.2292 30.9291ZM47.1463 30.9147L47.0635 30.9004L46.5515 33.8563L46.6343 33.8707L47.1463 30.9147ZM46.9369 30.8839L46.7713 30.8696L46.5124 33.8584L46.678 33.8728L46.9369 30.8839ZM46.8978 30.886L46.815 30.8717L46.303 33.8276L46.3858 33.842L46.8978 30.886ZM46.559 30.8497H46.4762V33.8497H46.559V30.8497ZM46.4762 30.8497H46.3933V33.8497H46.4762V30.8497ZM46.3933 30.8497H46.3105V33.8497H46.3933V30.8497ZM46.4399 30.8553L46.2743 30.8409L46.0154 33.8297L46.1811 33.8441L46.4399 30.8553ZM46.1448 30.8353H46.062V33.8353H46.1448V30.8353ZM46.062 30.8353H45.9792V33.8353H46.062V30.8353ZM45.9792 30.8353H15.3317V33.8353H45.9792V30.8353ZM15.3317 30.8353H15.2489V33.8353H15.3317V30.8353ZM15.2489 30.8353H15.1661V33.8353H15.2489V30.8353ZM15.0366 30.8409L14.871 30.8553L15.1298 33.8441L15.2955 33.8297L15.0366 30.8409ZM15.0004 30.8497H14.9176V33.8497H15.0004V30.8497ZM14.9176 30.8497H14.8347V33.8497H14.9176V30.8497ZM14.8347 30.8497H14.7519V33.8497H14.8347V30.8497ZM14.4959 30.8717L14.4131 30.886L14.9251 33.842L15.0079 33.8276L14.4959 30.8717ZM14.5396 30.8696L14.374 30.8839L14.6329 33.8728L14.7985 33.8584L14.5396 30.8696ZM14.2474 30.9004L14.1646 30.9147L14.6766 33.8707L14.7594 33.8563L14.2474 30.9004ZM14.1645 30.9147L14.0817 30.9291L14.5938 33.885L14.6766 33.8707L14.1645 30.9147ZM14.0542 30.9341L13.9051 30.9628L14.4722 33.9087L14.6213 33.88L14.0542 30.9341ZM13.9326 30.9578L13.8498 30.9721L14.3619 33.9281L14.4447 33.9137L13.9326 30.9578ZM13.8223 30.9771L13.6732 31.0058L14.2402 33.9518L14.3893 33.9231L13.8223 30.9771ZM13.7007 31.0008L13.6179 31.0152L14.1299 33.9711L14.2128 33.9568L13.7007 31.0008ZM13.6179 31.0152L13.5351 31.0295L14.0471 33.9855L14.1299 33.9711L13.6179 31.0152ZM13.535 31.0295L13.4522 31.0439L13.9643 33.9998L14.0471 33.9855L13.535 31.0295ZM13.3908 31.0558L13.3245 31.0702L13.9594 34.0022L14.0257 33.9879L13.3908 31.0558ZM13.3245 31.0702L13.2582 31.0845L13.8932 34.0166L13.9594 34.0022L13.3245 31.0702ZM13.2582 31.0845L13.192 31.0989L13.8269 34.0309L13.8932 34.0166L13.2582 31.0845ZM13.192 31.0989L13.1258 31.1132L13.7606 34.0453L13.8269 34.0309L13.192 31.0989ZM13.1257 31.1132L13.0594 31.1276L13.6944 34.0596L13.7606 34.0453L13.1257 31.1132ZM12.7808 31.2171L12.7145 31.2458L13.9068 33.9987L13.973 33.9701L12.7808 31.2171ZM12.7145 31.2458L12.6483 31.2745L13.8405 34.0274L13.9068 33.9988L12.7145 31.2458ZM12.6483 31.2745L12.582 31.3032L13.7742 34.0561L13.8405 34.0274L12.6483 31.2745ZM12.762 31.2385L12.6129 31.2816L13.4451 34.1639L13.5942 34.1208L12.762 31.2385ZM12.4329 31.3463L12.3667 31.375L13.5589 34.1279L13.6251 34.0992L12.4329 31.3463ZM12.3666 31.375L12.2341 31.4324L13.4264 34.1853L13.5589 34.1279L12.3666 31.375ZM12.2341 31.4324L12.1679 31.4611L13.3601 34.214L13.4263 34.1853L12.2341 31.4324ZM12.1679 31.4611L12.1016 31.4897L13.2938 34.2427L13.3601 34.214L12.1679 31.4611ZM12.1016 31.4897L12.0353 31.5184L13.2275 34.2714L13.2938 34.2427L12.1016 31.4897ZM12.0353 31.5185L11.969 31.5472L13.1613 34.3001L13.2276 34.2714L12.0353 31.5185ZM11.9691 31.5471L11.9028 31.5758L13.095 34.3288L13.1613 34.3001L11.9691 31.5471ZM11.9028 31.5758L11.7703 31.6332L12.9625 34.3862L13.095 34.3288L11.9028 31.5758ZM11.7703 31.6332L11.704 31.6619L12.8962 34.4149L12.9625 34.3862L11.7703 31.6332ZM11.704 31.662L11.6377 31.6907L12.83 34.4435L12.8963 34.4148L11.704 31.662ZM11.6377 31.6906L11.5715 31.7193L12.7637 34.4723L12.83 34.4436L11.6377 31.6906ZM11.5715 31.7193L11.5052 31.748L12.6974 34.501L12.7637 34.4723L11.5715 31.7193ZM11.5052 31.748L11.4389 31.7767L12.6312 34.5297L12.6974 34.501L11.5052 31.748ZM11.4389 31.7767L11.3727 31.8054L12.5649 34.5584L12.6312 34.5297L11.4389 31.7767ZM11.9688 31.6819H11.9522V34.6819H11.9688V31.6819ZM11.2021 31.8829L11.1027 31.9403L12.6029 34.5383L12.7023 34.4809L11.2021 31.8829ZM11.8528 31.7393H11.8363V34.7393H11.8528V31.7393ZM11.0191 31.9814L10.9528 32.0245L12.5871 34.5402L12.6534 34.4972L11.0191 31.9814ZM10.7879 32.1485L10.7217 32.2059L12.6858 34.4736L12.7521 34.4162L10.7879 32.1485ZM10.8866 32.0818L10.8203 32.1249L12.4546 34.6407L12.5209 34.5976L10.8866 32.0818ZM10.8203 32.1249L10.754 32.1679L12.3884 34.6837L12.4546 34.6407L10.8203 32.1249ZM10.7541 32.1679L10.6878 32.211L12.3221 34.7268L12.3883 34.6837L10.7541 32.1679ZM10.6376 32.245L10.4554 32.3742L12.19 34.8218L12.3722 34.6927L10.6376 32.245ZM10.4005 32.415L10.2348 32.5441L12.0793 34.9102L12.2449 34.781L10.4005 32.415ZM10.175 32.5933L10.1253 32.6364L12.0894 34.904L12.1391 34.861L10.175 32.5933ZM10.1851 32.5872L10.0195 32.7163L11.8639 35.0824L12.0296 34.9532L10.1851 32.5872ZM9.95962 32.7655L9.79396 32.909L11.7581 35.1766L11.9237 35.0332L9.95962 32.7655ZM9.79395 32.909L9.74425 32.9521L11.7084 35.2197L11.7581 35.1766L9.79395 32.909ZM9.68618 33.0051L9.53708 33.1486L11.6174 35.3101L11.7665 35.1667L9.68618 33.0051ZM9.4868 33.1993L9.3377 33.3572L11.5186 35.4172L11.6677 35.2594L9.4868 33.1993ZM9.29417 33.4053L9.24447 33.4627L11.5124 35.4265L11.5621 35.3691L9.29417 33.4053ZM9.24445 33.4627L9.19476 33.5201L11.4627 35.4839L11.5124 35.4265L9.24445 33.4627ZM9.17149 33.5476L9.08865 33.6481L11.4032 35.5568L11.486 35.4563L9.17149 33.5476ZM9.11195 33.6205L9.06225 33.6779L11.3302 35.6417L11.3799 35.5843L9.11195 33.6205ZM8.97981 33.7821L8.89698 33.8969L11.3298 35.6523L11.4126 35.5375L8.97981 33.7821ZM8.81429 34.0247L8.78116 34.0821L11.3793 35.5819L11.4125 35.5245L8.81429 34.0247ZM8.78115 34.0821L8.74802 34.1395L11.3462 35.6393L11.3793 35.5819L8.78115 34.0821ZM8.74803 34.1395L8.7149 34.1969L11.3131 35.6967L11.3462 35.6393L8.74803 34.1395ZM8.71488 34.1969L8.68175 34.2543L11.2799 35.7541L11.3131 35.6967L8.71488 34.1969ZM8.68176 34.2543L8.64863 34.3117L11.2468 35.8115L11.2799 35.7541L8.68176 34.2543ZM8.64863 34.3117L8.6155 34.3691L11.2137 35.8689L11.2468 35.8115L8.64863 34.3117ZM8.61549 34.3691L8.58235 34.4265L11.1805 35.9263L11.2137 35.8689L8.61549 34.3691ZM8.58237 34.4265L8.54923 34.4839L11.1474 35.9837L11.1805 35.9263L8.58237 34.4265ZM8.54922 34.4839L8.51609 34.5413L11.1143 36.0411L11.1474 35.9837L8.54922 34.4839ZM8.5161 34.5413L8.48297 34.5987L11.0811 36.0985L11.1143 36.0411L8.5161 34.5413ZM8.48297 34.5987L8.44983 34.6561L11.048 36.1559L11.0811 36.0985L8.48297 34.5987ZM8.44983 34.6561L8.41669 34.7135L11.0149 36.2133L11.048 36.1559L8.44983 34.6561ZM8.41671 34.7134L8.38357 34.7708L10.9817 36.2707L11.0149 36.2133L8.41671 34.7134ZM8.38356 34.7709L8.35043 34.8283L10.9486 36.3281L10.9818 36.2707L8.38356 34.7709ZM8.35044 34.8282L8.31731 34.8856L10.9155 36.3855L10.9486 36.3281L8.35044 34.8282ZM8.3173 34.8856L8.28417 34.943L10.8823 36.4429L10.9155 36.3855L8.3173 34.8856ZM8.28416 34.943L8.25103 35.0004L10.8492 36.5003L10.8824 36.4429L8.28416 34.943ZM8.25104 35.0004L8.21791 35.0578L10.8161 36.5577L10.8492 36.5003L8.25104 35.0004ZM8.2179 35.0578L8.18476 35.1152L10.783 36.615L10.8161 36.5576L8.2179 35.0578ZM8.18478 35.1152L8.15165 35.1726L10.7498 36.6725L10.7829 36.6151L8.18478 35.1152ZM8.15164 35.1726L8.11851 35.23L10.7167 36.7299L10.7498 36.6725L8.15164 35.1726ZM7.97642 35.564L7.95986 35.6214L10.8422 36.4533L10.8588 36.3959L7.97642 35.564ZM7.95986 35.6214L7.94329 35.6787L10.8256 36.5107L10.8422 36.4533L7.95986 35.6214ZM7.94329 35.6788L7.92672 35.7362L10.8091 36.5681L10.8256 36.5107L7.94329 35.6788ZM7.92673 35.7361L7.91016 35.7935L10.7925 36.6255L10.8091 36.5681L7.92673 35.7361ZM7.91016 35.7935L7.8936 35.8509L10.7759 36.6829L10.7925 36.6255L7.91016 35.7935ZM7.87322 35.9294L7.85665 36.0012L10.7797 36.6761L10.7963 36.6044L7.87322 35.9294ZM7.85665 36.0012L7.84009 36.0729L10.7632 36.7479L10.7797 36.6761L7.85665 36.0012ZM7.84009 36.0729L7.82352 36.1447L10.7466 36.8196L10.7632 36.7479L7.84009 36.0729ZM7.83212 36.1094L7.79899 36.2385L10.7049 36.984L10.738 36.8549L7.83212 36.1094ZM7.79039 36.2738L7.77382 36.3456L10.6969 37.0205L10.7135 36.9488L7.79039 36.2738ZM7.77382 36.3455L7.75726 36.4173L10.6803 37.0923L10.6969 37.0205L7.77382 36.3455ZM7.75726 36.4173L7.74069 36.489L10.6638 37.164L10.6803 37.0923L7.75726 36.4173ZM7.71443 36.6357L7.69786 36.7648L10.6735 37.1465L10.69 37.0174L7.71443 36.6357ZM7.72413 36.6182L7.70756 36.6899L10.6306 37.3649L10.6472 37.2931L7.72413 36.6182ZM7.70756 36.6899L7.69099 36.7617L10.6141 37.4366L10.6306 37.3649L7.70756 36.6899ZM7.69099 36.7617L7.67443 36.8334L10.5975 37.5084L10.6141 37.4366L7.69099 36.7617ZM7.63597 37.1709V37.2426H10.636V37.1709H7.63597ZM7.63597 37.2426V37.3144H10.636V37.2426H7.63597ZM7.63597 37.3144V37.3861H10.636V37.3144H7.63597ZM7.63597 37.3861V37.4579H10.636V37.3861H7.63597ZM7.63597 37.4579V37.5296H10.636V37.4579H7.63597ZM7.63597 37.5296V37.6014H10.636V37.5296H7.63597ZM7.63597 37.6014V37.6731H10.636V37.6014H7.63597ZM7.63597 37.6731V45.1058H10.636V37.6731H7.63597ZM7.63597 45.1058C7.63597 44.8631 7.75394 44.7059 7.83086 44.6392C7.90709 44.5732 7.98317 44.5529 8.0426 44.5529V47.5529C9.25783 47.5529 10.636 46.6459 10.636 45.1058H7.63597ZM8.0426 44.5529C8.10203 44.5529 8.17812 44.5732 8.25434 44.6392C8.33126 44.7059 8.44923 44.8631 8.44923 45.1058H5.44923C5.44923 46.6459 6.82738 47.5529 8.0426 47.5529V44.5529ZM8.44923 45.1058V5.73243H5.44923V45.1058H8.44923ZM8.44234 5.58878C8.47064 5.88293 8.32972 6.09299 8.22858 6.18342C8.13452 6.26752 8.04764 6.2854 7.9929 6.2854V3.2854C6.83411 3.2854 5.29353 4.18607 5.45613 5.87608L8.44234 5.58878ZM7.9929 6.2854H53.2683V3.2854H7.9929V6.2854ZM53.2683 6.2854C53.2089 6.2854 53.1328 6.26505 53.0566 6.19902C52.9796 6.1324 52.8617 5.97512 52.8617 5.73243H55.8617C55.8617 4.19235 54.4835 3.2854 53.2683 3.2854V6.2854ZM52.8617 5.73306L52.8782 45.1352L55.8782 45.1339L55.8617 5.7318L52.8617 5.73306ZM34.231 26.6986L34.2973 26.713L34.9322 23.7809L34.866 23.7666L34.231 26.6986ZM34.2973 26.713L34.3636 26.7273L34.9985 23.7953L34.9322 23.7809L34.2973 26.713ZM34.3636 26.7273L34.4298 26.7417L35.0648 23.8096L34.9985 23.7953L34.3636 26.7273ZM34.361 26.7251L34.5764 26.7824L35.3489 23.8836L35.1336 23.8262L34.361 26.7251ZM34.5466 26.7742L34.5963 26.7885L35.4285 23.9063L35.3788 23.8919L34.5466 26.7742ZM34.6151 26.7938C35.8225 27.1254 36.8705 27.6249 37.6901 28.2402L39.4912 25.8409C38.3229 24.964 36.9191 24.3155 35.4096 23.9009L34.6151 26.7938ZM38.5907 28.5406H40.297V25.5406H38.5907V28.5406ZM40.297 28.5406C41.3804 28.5406 42.3767 28.1563 43.1179 27.5143L41.1538 25.2467C40.9672 25.4082 40.6714 25.5406 40.297 25.5406V28.5406ZM43.1179 27.5143C43.8926 26.8433 44.3979 25.8838 44.3979 24.7734H41.3979C41.3979 24.9258 41.3399 25.0855 41.1538 25.2467L43.1179 27.5143ZM44.3979 24.7734V15.6906H41.3979V24.7734H44.3979ZM44.3979 15.6906C44.3979 14.5785 43.8633 13.618 43.1375 12.9669L41.1342 15.2C41.3361 15.3812 41.3979 15.5686 41.3979 15.6906H44.3979ZM43.1375 12.9669C42.3691 12.2777 41.3377 11.9234 40.297 11.9234V14.9234C40.6809 14.9234 40.9748 15.0571 41.1342 15.2L43.1375 12.9669ZM40.297 11.9234H20.9974V14.9234H40.297V11.9234ZM20.9974 11.9234C19.9482 11.9234 18.9988 12.291 18.2716 12.8557L20.1117 15.2252C20.3453 15.0437 20.6549 14.9234 20.9974 14.9234V11.9234ZM18.2096 12.9066L18.1599 12.9497L20.124 15.2173L20.1737 15.1743L18.2096 12.9066ZM18.1599 12.9497C17.3852 13.6207 16.8799 14.5802 16.8799 15.6906H19.8799C19.8799 15.5382 19.9379 15.3785 20.124 15.2173L18.1599 12.9497ZM16.8799 15.6906V24.7878H19.8799V15.6906H16.8799ZM16.8799 24.7878C16.8799 25.9165 17.4172 26.871 18.1599 27.5143L20.124 25.2467C19.939 25.0864 19.8799 24.9218 19.8799 24.7878H16.8799ZM18.1599 27.5143C18.9291 28.1806 19.9296 28.5406 20.9974 28.5406V25.5406C20.6073 25.5406 20.3156 25.4127 20.124 25.2467L18.1599 27.5143ZM20.9974 28.5406H22.7037V25.5406H20.9974V28.5406ZM23.6139 28.2329C24.4014 27.6316 25.4594 27.1414 26.6815 26.7885L25.8493 23.9063C24.3877 24.3282 22.9607 24.9572 21.7935 25.8483L23.6139 28.2329ZM26.6815 26.7885L26.7312 26.7742L25.899 23.8919L25.8493 23.9063L26.6815 26.7885ZM26.7014 26.7824L26.9167 26.7251L26.1442 23.8262L25.9288 23.8836L26.7014 26.7824ZM26.8479 26.7417L26.9142 26.7273L26.2793 23.7953L26.213 23.8096L26.8479 26.7417ZM26.9142 26.7273L26.9804 26.713L26.3456 23.7809L26.2793 23.7953L26.9142 26.7273ZM26.9805 26.713L27.0467 26.6986L26.4118 23.7666L26.3455 23.7809L26.9805 26.713ZM27.7114 24.0988L27.6948 24.0845L25.7306 26.352L25.7472 26.3664L27.7114 24.0988ZM27.6947 24.0844L27.6782 24.07L25.7141 26.3378L25.7307 26.3521L27.6947 24.0844ZM27.6782 24.0701L27.6617 24.0558L25.6975 26.3233L25.714 26.3377L27.6782 24.0701ZM27.6616 24.0557L27.645 24.0413L25.681 26.3091L25.6975 26.3234L27.6616 24.0557ZM27.6451 24.0414L27.6285 24.027L25.6644 26.2947L25.6809 26.309L27.6451 24.0414ZM27.6285 24.0271L27.612 24.0127L25.6478 26.2803L25.6643 26.2946L27.6285 24.0271ZM27.6119 24.0126L27.5953 23.9983L25.6313 26.266L25.6478 26.2804L27.6119 24.0126ZM27.5954 23.9984L27.5788 23.984L25.6146 26.2516L25.6312 26.2659L27.5954 23.9984ZM27.5788 23.9839L27.5622 23.9696L25.5981 26.2373L25.6147 26.2517L27.5788 23.9839ZM27.5622 23.9696L27.5457 23.9553L25.5815 26.2229L25.5981 26.2373L27.5622 23.9696ZM27.5457 23.9553L27.5291 23.941L25.5649 26.2085L25.5815 26.2229L27.5457 23.9553ZM27.5291 23.9409L27.5125 23.9266L25.5484 26.1943L25.565 26.2086L27.5291 23.9409ZM27.5126 23.9266L27.496 23.9123L25.5318 26.1798L25.5484 26.1942L27.5126 23.9266ZM27.4959 23.9122L27.4794 23.8979L25.5153 26.1656L25.5319 26.1799L27.4959 23.9122ZM27.4794 23.8979L27.4628 23.8835L25.4987 26.1512L25.5153 26.1655L27.4794 23.8979ZM27.4629 23.8836L27.4463 23.8692L25.4821 26.1368L25.4987 26.1511L27.4629 23.8836ZM27.4462 23.8692L27.4297 23.8548L25.4656 26.1225L25.4822 26.1369L27.4462 23.8692ZM27.4297 23.8549L27.4132 23.8405L25.449 26.1081L25.4655 26.1224L27.4297 23.8549ZM27.4131 23.8405L27.3965 23.8261L25.4325 26.0938L25.4491 26.1082L27.4131 23.8405ZM27.3966 23.8261L27.38 23.8118L25.4159 26.0794L25.4324 26.0938L27.3966 23.8261ZM27.38 23.8118L27.3635 23.7975L25.3993 26.0651L25.4158 26.0794L27.38 23.8118ZM27.3634 23.7974L27.3468 23.7831L25.3828 26.0508L25.3994 26.0651L27.3634 23.7974ZM27.3469 23.7831L27.3304 23.7688L25.3661 26.0364L25.3827 26.0507L27.3469 23.7831ZM27.3303 23.7687L27.3137 23.7544L25.3497 26.0221L25.3662 26.0364L27.3303 23.7687ZM27.3137 23.7544L27.2972 23.7401L25.333 26.0077L25.3496 26.022L27.3137 23.7544ZM27.2972 23.7401L27.2807 23.7257L25.3164 25.9933L25.333 26.0077L27.2972 23.7401ZM27.2806 23.7257L27.264 23.7113L25.3 25.979L25.3165 25.9934L27.2806 23.7257ZM27.2641 23.7114L27.2475 23.697L25.2833 25.9646L25.2999 25.979L27.2641 23.7114ZM27.2474 23.697L27.2309 23.6826L25.2668 25.9503L25.2834 25.9647L27.2474 23.697ZM27.2309 23.6827L27.2143 23.6683L25.2502 25.9359L25.2668 25.9503L27.2309 23.6827ZM27.2144 23.6683L27.1978 23.654L25.2336 25.9216L25.2502 25.9359L27.2144 23.6683ZM27.1977 23.6539L27.1812 23.6396L25.2171 25.9073L25.2337 25.9216L27.1977 23.6539ZM27.1813 23.6396L27.1647 23.6253L25.2005 25.8929L25.217 25.9072L27.1813 23.6396ZM27.1646 23.6252L27.148 23.6109L25.184 25.8786L25.2006 25.8929L27.1646 23.6252ZM27.1481 23.6109L27.1315 23.5966L25.1674 25.8642L25.1839 25.8786L27.1481 23.6109ZM27.1316 23.5966L27.115 23.5823L25.1508 25.8498L25.1673 25.8642L27.1316 23.5966ZM27.1149 23.5822L27.0983 23.5678L25.1343 25.8355L25.1509 25.8499L27.1149 23.5822ZM27.0984 23.5679L27.0819 23.5536L25.1176 25.8211L25.1342 25.8355L27.0984 23.5679ZM27.0818 23.5535L27.0652 23.5391L25.1012 25.8068L25.1177 25.8212L27.0818 23.5535ZM27.0652 23.5392L27.0487 23.5248L25.0846 25.7925L25.1011 25.8068L27.0652 23.5392ZM27.0487 23.5249L27.0322 23.5105L25.0679 25.7781L25.0845 25.7924L27.0487 23.5249ZM27.0321 23.5104L27.0155 23.4961L25.0515 25.7638L25.068 25.7781L27.0321 23.5104ZM27.0156 23.4962L26.999 23.4818L25.0348 25.7494L25.0514 25.7637L27.0156 23.4962ZM26.9989 23.4817L26.9824 23.4674L25.0183 25.7351L25.0349 25.7494L26.9989 23.4817ZM26.9824 23.4674L26.9493 23.4387L24.9851 25.7063L25.0183 25.735L26.9824 23.4674ZM26.9492 23.4387L26.9327 23.4243L24.9686 25.6921L24.9852 25.7064L26.9492 23.4387ZM26.9328 23.4244L26.9162 23.4101L24.952 25.6776L24.9685 25.692L26.9328 23.4244ZM26.9161 23.41L26.8995 23.3956L24.9355 25.6634L24.9521 25.6777L26.9161 23.41ZM26.8996 23.3957L26.883 23.3813L24.9189 25.649L24.9355 25.6633L26.8996 23.3957ZM26.8831 23.3814L26.8665 23.367L24.9023 25.6346L24.9188 25.6489L26.8831 23.3814ZM26.8664 23.3669L26.8498 23.3526L24.8858 25.6203L24.9024 25.6347L26.8664 23.3669ZM26.8499 23.3526L26.8002 23.3096L24.8361 25.5772L24.8858 25.6203L26.8499 23.3526ZM26.8002 23.3096L26.7837 23.2953L24.8194 25.5628L24.836 25.5772L26.8002 23.3096ZM26.7836 23.2952L26.7505 23.2665L24.7864 25.5342L24.8195 25.5629L26.7836 23.2952ZM26.7504 23.2665L26.7339 23.2522L24.7698 25.5199L24.7864 25.5342L26.7504 23.2665ZM26.7339 23.2522L26.7008 23.2235L24.7366 25.4911L24.7698 25.5198L26.7339 23.2522ZM26.7008 23.2235L26.6511 23.1804L24.687 25.4481L24.7367 25.4911L26.7008 23.2235ZM26.6511 23.1804C25.6771 22.3368 25.1314 21.227 25.1314 20.0526H22.1314C22.1314 22.2072 23.1429 24.1107 24.687 25.4481L26.6511 23.1804ZM25.1314 20.0526C25.1314 18.8782 25.6771 17.7685 26.6511 16.9248L24.687 14.6572C23.1429 15.9946 22.1314 17.8981 22.1314 20.0526H25.1314ZM26.6511 16.9248C27.6282 16.0785 29.0158 15.5261 30.5892 15.5261V12.5261C28.3192 12.5261 26.2279 13.3225 24.687 14.6572L26.6511 16.9248ZM30.5892 15.5261C32.1626 15.5261 33.5502 16.0785 34.5273 16.9248L36.4914 14.6572C34.9504 13.3225 32.8591 12.5261 30.5892 12.5261V15.5261ZM34.5273 16.9248C35.5013 17.7685 36.047 18.8782 36.047 20.0526H39.047C39.047 17.8981 38.0355 15.9946 36.4914 14.6572L34.5273 16.9248ZM36.047 20.0526C36.047 21.227 35.5013 22.3368 34.5273 23.1804L36.4914 25.4481C38.0355 24.1107 39.047 22.2072 39.047 20.0526H36.047ZM34.5273 23.1804L34.4941 23.2091L36.4583 25.4768L36.4914 25.4481L34.5273 23.1804ZM34.4942 23.2091L34.4777 23.2234L36.4416 25.4912L36.4582 25.4769L34.4942 23.2091ZM34.4775 23.2236L34.4609 23.2379L36.4252 25.5054L36.4418 25.4911L34.4775 23.2236ZM34.461 23.2378L34.4444 23.2522L36.4086 25.5198L36.4251 25.5055L34.461 23.2378ZM34.4444 23.2522L34.4279 23.2665L36.392 25.5342L36.4086 25.5198L34.4444 23.2522ZM34.4279 23.2665L34.3782 23.3096L36.3423 25.5772L36.392 25.5342L34.4279 23.2665ZM34.3782 23.3096L34.3616 23.3239L36.3257 25.5916L36.3423 25.5772L34.3782 23.3096ZM34.3616 23.3239L34.3451 23.3383L36.3092 25.6059L36.3257 25.5916L34.3616 23.3239ZM34.3451 23.3383L34.3285 23.3526L36.2926 25.6203L36.3092 25.6059L34.3451 23.3383ZM34.3286 23.3526L34.312 23.3669L36.276 25.6347L36.2925 25.6203L34.3286 23.3526ZM34.3118 23.3671L34.2953 23.3814L36.2596 25.6489L36.2761 25.6345L34.3118 23.3671ZM34.2954 23.3813L34.2788 23.3957L36.2429 25.6633L36.2595 25.649L34.2954 23.3813ZM34.2788 23.3957L34.2622 23.41L36.2264 25.6777L36.2429 25.6633L34.2788 23.3957ZM34.2622 23.41L34.2457 23.4244L36.2098 25.692L36.2264 25.6777L34.2622 23.41ZM34.2457 23.4244L34.2125 23.4531L36.1767 25.7207L36.2098 25.692L34.2457 23.4244ZM34.2125 23.4531L34.196 23.4674L36.1601 25.7351L36.1767 25.7207L34.2125 23.4531ZM34.196 23.4674L34.1628 23.4961L36.127 25.7638L36.1601 25.7351L34.196 23.4674ZM34.1629 23.496L34.1463 23.5104L36.1103 25.7782L36.1269 25.7638L34.1629 23.496ZM34.1462 23.5105L34.1296 23.5249L36.0939 25.7924L36.1105 25.778L34.1462 23.5105ZM34.1297 23.5248L34.1131 23.5392L36.0773 25.8068L36.0938 25.7925L34.1297 23.5248ZM34.1131 23.5392L34.0966 23.5535L36.0607 25.8212L36.0773 25.8068L34.1131 23.5392ZM34.0966 23.5535L34.08 23.5679L36.0441 25.8355L36.0607 25.8212L34.0966 23.5535ZM34.0801 23.5678L34.0635 23.5821L36.0275 25.8499L36.044 25.8356L34.0801 23.5678ZM34.0633 23.5823L34.0468 23.5966L36.0111 25.8641L36.0276 25.8498L34.0633 23.5823ZM34.0469 23.5966L34.0303 23.6109L35.9944 25.8786L36.011 25.8642L34.0469 23.5966ZM34.0303 23.6109L34.0137 23.6253L35.9779 25.8929L35.9944 25.8786L34.0303 23.6109ZM33.6967 25.509L33.763 25.6238L36.3612 24.124L36.2949 24.0092L33.6967 25.509ZM34.08 23.7401L34.0634 23.7544L36.0276 26.022L36.0441 26.0077L34.08 23.7401ZM34.0634 23.7544L34.0469 23.7688L36.011 26.0364L36.0276 26.022L34.0634 23.7544ZM34.0469 23.7688L34.0303 23.7831L35.9944 26.0507L36.011 26.0364L34.0469 23.7688ZM34.0303 23.7831L34.0137 23.7974L35.9779 26.0651L35.9944 26.0507L34.0303 23.7831ZM34.0137 23.7974L33.9972 23.8118L35.9613 26.0794L35.9779 26.0651L34.0137 23.7974ZM33.9972 23.8118L33.9806 23.8261L35.9447 26.0938L35.9613 26.0794L33.9972 23.8118ZM33.9806 23.8261L33.964 23.8405L35.9282 26.1081L35.9447 26.0938L33.9806 23.8261ZM33.964 23.8405L33.9475 23.8548L35.9116 26.1225L35.9282 26.1081L33.964 23.8405ZM33.9475 23.8548L33.9309 23.8692L35.895 26.1368L35.9116 26.1225L33.9475 23.8548ZM33.9309 23.8692L33.9143 23.8835L35.8785 26.1512L35.895 26.1368L33.9309 23.8692ZM33.9143 23.8835L33.8978 23.8979L35.8619 26.1655L35.8785 26.1512L33.9143 23.8835ZM33.8978 23.8979L33.8812 23.9122L35.8453 26.1799L35.8619 26.1655L33.8978 23.8979ZM33.8812 23.9122L33.8646 23.9266L35.8288 26.1942L35.8453 26.1799L33.8812 23.9122ZM33.8646 23.9266L33.8481 23.9409L35.8122 26.2086L35.8288 26.1942L33.8646 23.9266ZM33.8481 23.9409L33.8315 23.9553L35.7956 26.2229L35.8122 26.2086L33.8481 23.9409ZM33.8315 23.9553L33.8149 23.9696L35.7791 26.2373L35.7956 26.2229L33.8315 23.9553ZM33.8149 23.9696L33.7984 23.984L35.7625 26.2516L35.7791 26.2373L33.8149 23.9696ZM33.7984 23.984L33.7818 23.9983L35.7459 26.266L35.7625 26.2516L33.7984 23.984ZM33.7818 23.9983L33.7652 24.0127L35.7294 26.2803L35.7459 26.266L33.7818 23.9983ZM33.7652 24.0127L33.7487 24.027L35.7128 26.2947L35.7294 26.2803L33.7652 24.0127ZM33.7487 24.027L33.7321 24.0414L35.6962 26.309L35.7128 26.2947L33.7487 24.027ZM33.7321 24.0414L33.7155 24.0557L35.6797 26.3234L35.6962 26.309L33.7321 24.0414ZM33.7155 24.0557L33.699 24.0701L35.6631 26.3377L35.6797 26.3234L33.7155 24.0557ZM33.699 24.0701L33.6824 24.0844L35.6465 26.3521L35.6631 26.3377L33.699 24.0701ZM33.6824 24.0844L33.6658 24.0988L35.63 26.3664L35.6465 26.3521L33.6824 24.0844ZM33.6658 24.0988L33.6493 24.1131L35.6134 26.3808L35.63 26.3664L33.6658 24.0988ZM33.6493 24.1131L33.6327 24.1275L35.5968 26.3951L35.6134 26.3808L33.6493 24.1131ZM33.6327 24.1275L33.6161 24.1418L35.5803 26.4095L35.5968 26.3951L33.6327 24.1275ZM33.6161 24.1418L33.5996 24.1562L35.5637 26.4238L35.5803 26.4095L33.6161 24.1418ZM33.5996 24.1562L33.583 24.1705L35.5471 26.4382L35.5637 26.4238L33.5996 24.1562ZM36.0266 24.9668L36.01 24.8951L33.087 25.5701L33.1035 25.6418L36.0266 24.9668ZM34.5485 23.7326H34.5319V26.7326H34.5485V23.7326ZM34.5319 26.7326H34.5485V23.7326H34.5319V26.7326ZM38.9709 29.6805C39.1438 29.99 39.2769 30.3407 39.3635 30.7268L42.2907 30.0696C42.1454 29.4226 41.914 28.7975 41.5899 28.2174L38.9709 29.6805ZM40.8271 31.8982H45.8466V28.8982H40.8271V31.8982ZM45.8466 31.8982H45.9626V28.8982H45.8466V31.8982ZM45.9626 31.8982H46.0786V28.8982H45.9626V31.8982ZM46.0786 31.8982H46.178V28.8982H46.0786V31.8982ZM46.178 31.8982H46.2774V28.8982H46.178V31.8982ZM46.2774 31.8982H46.3768V28.8982H46.2774V31.8982ZM46.3768 31.8982H46.4762V28.8982H46.3768V31.8982ZM46.2618 31.8828L46.3612 31.8972L46.7899 28.9279L46.6905 28.9136L46.2618 31.8828ZM46.3613 31.8972L46.4607 31.9115L46.8893 28.9423L46.7899 28.9279L46.3613 31.8972ZM46.4606 31.9115L46.56 31.9259L46.9887 28.9566L46.8893 28.9423L46.4606 31.9115ZM46.5601 31.9259L46.6595 31.9402L47.088 28.971L46.9887 28.9566L46.5601 31.9259ZM46.6594 31.9402L46.7588 31.9546L47.1875 28.9853L47.0881 28.971L46.6594 31.9402ZM46.7588 31.9546L46.8582 31.9689L47.2869 28.9997L47.1875 28.9853L46.7588 31.9546ZM46.8582 31.9689L46.9576 31.9833L47.3862 29.014L47.2868 28.9997L46.8582 31.9689ZM46.9576 31.9833L47.057 31.9976L47.4857 29.0284L47.3863 29.014L46.9576 31.9833ZM47.057 31.9976L47.1564 32.012L47.585 29.0427L47.4856 29.0284L47.057 31.9976ZM47.1564 32.012L47.2558 32.0263L47.6845 29.0571L47.5851 29.0427L47.1564 32.012ZM47.2558 32.0263L47.3552 32.0407L47.7839 29.0714L47.6845 29.0571L47.2558 32.0263ZM47.3552 32.0407L47.4546 32.055L47.8832 29.0858L47.7838 29.0714L47.3552 32.0407ZM47.4546 32.055L47.554 32.0693L47.9827 29.1001L47.8833 29.0858L47.4546 32.055ZM47.3523 32.0259L47.4516 32.0546L48.2838 29.1723L48.1844 29.1436L47.3523 32.0259ZM47.4516 32.0546L47.551 32.0833L48.3832 29.201L48.2838 29.1723L47.4516 32.0546ZM47.551 32.0833L47.6504 32.112L48.4826 29.2297L48.3832 29.201L47.551 32.0833ZM47.6504 32.112L47.7498 32.1407L48.582 29.2584L48.4826 29.2297L47.6504 32.112ZM47.7498 32.1407L47.8492 32.1694L48.6814 29.2871L48.582 29.2584L47.7498 32.1407ZM47.8492 32.1694L47.9486 32.1981L48.7808 29.3158L48.6814 29.2871L47.8492 32.1694ZM47.9486 32.1981L48.048 32.2268L48.8802 29.3445L48.7808 29.3158L47.9486 32.1981ZM48.048 32.2268L48.2468 32.2842L49.079 29.4019L48.8802 29.3445L48.048 32.2268ZM48.2468 32.2842L48.3462 32.3129L49.1784 29.4306L49.079 29.4019L48.2468 32.2842ZM48.2128 32.2674L48.395 32.3392L49.494 29.5477L49.3118 29.476L48.2128 32.2674ZM48.5284 32.3846L48.6278 32.4133L49.46 29.531L49.3606 29.5023L48.5284 32.3846ZM48.6278 32.4133L48.7272 32.442L49.5594 29.5597L49.46 29.531L48.6278 32.4133ZM48.7272 32.442L48.8266 32.4707L49.6588 29.5884L49.5594 29.5597L48.7272 32.442ZM48.551 32.3605L48.6338 32.4036L50.0173 29.7416L49.9344 29.6986L48.551 32.3605ZM48.6338 32.4036L48.7166 32.4466L50.1001 29.7847L50.0173 29.7416L48.6338 32.4036ZM48.7167 32.4466L48.7995 32.4897L50.1829 29.8277L50.1001 29.7847L48.7167 32.4466ZM48.7995 32.4897L48.8823 32.5327L50.2658 29.8708L50.1829 29.8277L48.7995 32.4897ZM48.8824 32.5327L48.9652 32.5758L50.3486 29.9138L50.2657 29.8707L48.8824 32.5327ZM48.9999 32.5933L49.2649 32.7224L50.5789 30.0255L50.3139 29.8963L48.9999 32.5933ZM49.2649 32.7224L49.53 32.8515L50.844 30.1546L50.5789 30.0255L49.2649 32.7224ZM49.4953 32.8341L49.5781 32.8771L50.9615 30.2151L50.8787 30.1721L49.4953 32.8341ZM49.6044 32.8905C49.6374 32.9068 49.6827 32.934 49.7232 32.9633L51.479 30.5307C51.3208 30.4165 51.1341 30.3002 50.9352 30.2018L49.6044 32.8905ZM49.8119 33.0226C49.8451 33.0431 49.8786 33.0653 49.9351 33.1029C49.9863 33.137 50.0605 33.1866 50.1433 33.2378L51.7217 30.6866C51.6885 30.6661 51.655 30.644 51.5985 30.6063C51.5473 30.5722 51.4731 30.5226 51.3903 30.4714L49.8119 33.0226ZM50.0546 33.1785C50.0941 33.207 50.1317 33.233 50.1595 33.2521C50.1914 33.2741 50.2096 33.2864 50.23 33.3007C50.2696 33.3284 50.2739 33.3332 50.2652 33.3256L52.2293 31.058C52.1212 30.9643 52.0178 30.8902 51.9497 30.8426C51.8507 30.7733 51.855 30.7782 51.8104 30.746L50.0546 33.1785ZM50.3321 33.3804C50.4857 33.4986 50.6011 33.5879 50.7124 33.6844L52.6766 31.4167C52.4897 31.2549 52.3069 31.1146 52.1623 31.0033L50.3321 33.3804ZM50.7124 33.6844C50.8351 33.7906 50.8908 33.8398 50.9431 33.8926L53.0755 31.7824C52.9289 31.6344 52.7858 31.5114 52.6766 31.4167L50.7124 33.6844ZM53.5093 32.8375V6.67946H50.5093V32.8375H53.5093ZM52.0093 5.17946H9.10284V8.17946H52.0093V5.17946ZM7.60284 6.67946V32.8519H10.6028V6.67946H7.60284ZM10.169 33.907C10.2213 33.8541 10.277 33.805 10.3997 33.6987L8.43553 31.4311C8.32627 31.5257 8.18317 31.6487 8.03664 31.7968L10.169 33.907ZM10.3997 33.6987C10.5676 33.5532 10.7151 33.4377 10.8623 33.3397L9.19883 30.8431C8.91526 31.032 8.66515 31.2322 8.43553 31.4311L10.3997 33.6987ZM10.8978 33.3152C11.2081 33.0954 11.5346 32.8964 11.8614 32.7379L10.5521 30.0387C10.0506 30.2819 9.58192 30.5708 9.16324 30.8675L10.8978 33.3152ZM11.8475 32.7445L12.0297 32.6584L10.7482 29.9459L10.566 30.032L11.8475 32.7445ZM12.0807 32.6332L12.1635 32.5901L10.7801 29.9281L10.6973 29.9712L12.0807 32.6332ZM12.1126 32.6154L12.2948 32.5293L11.0133 29.8168L10.831 29.9029L12.1126 32.6154ZM12.2501 32.5495L12.3495 32.5065L11.1573 29.7535L11.0579 29.7966L12.2501 32.5495ZM12.3495 32.5065L12.4489 32.4634L11.2567 29.7105L11.1573 29.7535L12.3495 32.5065ZM12.4489 32.4634L12.5483 32.4204L11.3561 29.6674L11.2567 29.7105L12.4489 32.4634ZM12.5483 32.4204L12.6477 32.3773L11.4555 29.6244L11.3561 29.6674L12.5483 32.4204ZM12.4677 32.442L12.5671 32.4133L11.7349 29.531L11.6355 29.5597L12.4677 32.442ZM12.5671 32.4133L12.6665 32.3846L11.8343 29.5023L11.7349 29.531L12.5671 32.4133ZM12.6665 32.3846L12.7659 32.3559L11.9337 29.4736L11.8343 29.5023L12.6665 32.3846ZM12.7659 32.3559L12.8653 32.3272L12.0331 29.4449L11.9337 29.4736L12.7659 32.3559ZM12.8653 32.3272L13.0641 32.2698L12.2319 29.3875L12.0331 29.4449L12.8653 32.3272ZM13.0641 32.2698L13.1635 32.2411L12.3313 29.3588L12.2319 29.3875L13.0641 32.2698ZM13.1635 32.2411L13.2629 32.2124L12.4307 29.3301L12.3313 29.3588L13.1635 32.2411ZM13.2629 32.2124L13.3623 32.1837L12.5301 29.3014L12.4307 29.3301L13.2629 32.2124ZM13.3623 32.1837L13.4617 32.155L12.6295 29.2727L12.5301 29.3014L13.3623 32.1837ZM13.4617 32.155L13.5611 32.1263L12.7289 29.244L12.6295 29.2727L13.4617 32.155ZM13.5611 32.1263L13.6605 32.0976L12.8283 29.2153L12.7289 29.244L13.5611 32.1263ZM13.6605 32.0976L13.7599 32.0689L12.9277 29.1866L12.8283 29.2153L13.6605 32.0976ZM13.7599 32.0689L13.8593 32.0402L13.0271 29.158L12.9277 29.1867L13.7599 32.0689ZM13.6575 32.0837L13.7569 32.0694L13.3283 29.1001L13.2289 29.1145L13.6575 32.0837ZM13.7569 32.0693L13.8563 32.055L13.4276 29.0858L13.3282 29.1001L13.7569 32.0693ZM13.8563 32.055L13.9557 32.0407L13.5271 29.0714L13.4277 29.0858L13.8563 32.055ZM13.9557 32.0407L14.0551 32.0263L13.6264 29.0571L13.527 29.0714L13.9557 32.0407ZM14.0551 32.0263L14.1545 32.012L13.7258 29.0427L13.6264 29.0571L14.0551 32.0263ZM14.1545 32.012L14.2539 31.9976L13.8253 29.0284L13.7259 29.0427L14.1545 32.012ZM14.2539 31.9976L14.3533 31.9833L13.9246 29.014L13.8252 29.0284L14.2539 31.9976ZM14.3533 31.9833L14.4527 31.9689L14.0241 28.9997L13.9247 29.014L14.3533 31.9833ZM14.4527 31.9689L14.5521 31.9546L14.1234 28.9853L14.024 28.9997L14.4527 31.9689ZM14.5521 31.9546L14.6515 31.9402L14.2228 28.971L14.1234 28.9853L14.5521 31.9546ZM14.6514 31.9402L14.7508 31.9259L14.3222 28.9566L14.2229 28.971L14.6514 31.9402ZM14.7509 31.9259L14.8503 31.9115L14.4216 28.9423L14.3222 28.9566L14.7509 31.9259ZM14.8502 31.9115L14.9496 31.8972L14.521 28.9279L14.4216 28.9423L14.8502 31.9115ZM14.7353 31.9126H14.8347V28.9126H14.7353V31.9126ZM14.8347 31.9126H14.9341V28.9126H14.8347V31.9126ZM14.9341 31.9126H15.0335V28.9126H14.9341V31.9126ZM15.0335 31.9126H15.1495V28.9126H15.0335V31.9126ZM15.1495 31.9126H15.2655V28.9126H15.1495V31.9126ZM15.2655 31.9126H15.3814V28.9126H15.2655V31.9126ZM15.3814 31.9126H20.401V28.9126H15.3814V31.9126ZM21.8646 30.7411C21.9512 30.3551 22.0843 30.0044 22.2572 29.6949L19.6381 28.2318C19.3141 28.8119 19.0827 29.4369 18.9374 30.084L21.8646 30.7411ZM20.9477 27.4633C19.9951 27.4633 19.13 27.1165 18.5229 26.6006L16.5802 28.8867C17.7292 29.8631 19.2828 30.4633 20.9477 30.4633V27.4633ZM18.5337 26.6098C17.9415 26.097 17.6435 25.4609 17.6435 24.8021H14.6435C14.6435 26.4391 15.4057 27.8694 16.5695 28.8775L18.5337 26.6098ZM17.6435 24.8021V15.6906H14.6435V24.8021H17.6435ZM17.6435 15.6906C17.6435 15.0433 17.9486 14.3994 18.5443 13.8735L16.5589 11.6245C15.4317 12.6196 14.6435 14.0421 14.6435 15.6906H17.6435ZM18.5337 13.8829L18.5999 13.8255L16.6358 11.5578L16.5695 11.6152L18.5337 13.8829ZM18.5778 13.8443C19.1622 13.3576 19.9963 13.0294 20.9477 13.0294V10.0294C19.3147 10.0294 17.7964 10.5909 16.6579 11.539L18.5778 13.8443ZM20.9477 13.0294H40.2473V10.0294H20.9477V13.0294ZM40.2473 13.0294C41.214 13.0294 42.0631 13.3746 42.672 13.8921L44.6147 11.606C43.4676 10.6312 41.9312 10.0294 40.2473 10.0294V13.0294ZM42.672 13.8921C43.2474 14.381 43.5515 15.024 43.5515 15.6906H46.5515C46.5515 14.0613 45.7953 12.6094 44.6147 11.606L42.672 13.8921ZM43.5515 15.6906V24.7878H46.5515V15.6906H43.5515ZM43.5515 24.7878C43.5515 25.4236 43.2438 26.0811 42.6506 26.6048L44.6361 28.8538C45.7658 27.8565 46.5515 26.419 46.5515 24.7878H43.5515ZM42.6394 26.6148C42.1054 27.0959 41.261 27.449 40.2804 27.449V30.449C41.9504 30.449 43.5247 29.855 44.6473 28.8438L42.6394 26.6148ZM25.4627 26.0564C23.6538 26.7509 21.9397 27.9654 21.2703 29.8914L24.104 30.8763C24.3622 30.1334 25.1331 29.3965 26.538 28.857L25.4627 26.0564ZM22.6871 31.8839H38.5907V28.8839H22.6871V31.8839ZM40.0135 29.9089C39.4347 28.1751 37.9968 27.0188 36.4279 26.3062L35.1872 29.0376C36.3351 29.559 36.9515 30.2106 37.1678 30.8588L40.0135 29.9089ZM36.4993 26.3409L36.4164 26.2979L35.033 28.9599L35.1158 29.0029L36.4993 26.3409ZM36.2158 26.2115L36.1329 26.1828L35.1508 29.0175L35.2337 29.0462L36.2158 26.2115ZM36.6239 26.4663L36.6074 26.452L34.6432 28.7196L34.6598 28.734L36.6239 26.4663ZM36.2214 26.2094L36.1552 26.1807L34.9629 28.9336L35.0292 28.9623L36.2214 26.2094ZM36.0501 26.1398L35.9673 26.1111L34.9852 28.9458L35.068 28.9745L36.0501 26.1398ZM36.0724 26.152L36.0392 26.1376L34.8469 28.8905L34.8801 28.9049L36.0724 26.152ZM35.8591 26.0729L35.8094 26.0586L34.9773 28.9409L35.027 28.9552L35.8591 26.0729ZM36.1435 26.2007L36.0938 26.172L34.5936 28.77L34.6433 28.7987L36.1435 26.2007ZM35.9398 26.0946L35.9067 26.0802L34.7144 28.8331L34.7475 28.8475L35.9398 26.0946ZM35.9067 26.0802L35.8404 26.0515L34.6482 28.8044L34.7144 28.8331L35.9067 26.0802ZM36.2264 26.2942L36.2098 26.2798L34.2457 28.5474L34.2622 28.5618L36.2264 26.2942ZM35.7188 25.9963L35.6359 25.9676L34.6538 28.8023L34.7367 28.831L35.7188 25.9963ZM35.1449 25.8849H35.1283V28.8849H35.1449V25.8849ZM35.5444 25.9438L35.445 25.9151L34.6128 28.7974L34.7122 28.8261L35.5444 25.9438ZM35.445 25.9151L35.3456 25.8864L34.5135 28.7687L34.6129 28.7974L35.445 25.9151ZM34.9295 25.8275H34.913V28.8275H34.9295V25.8275ZM35.404 25.9102L35.3212 25.8815L34.339 28.7162L34.4219 28.7449L35.404 25.9102ZM35.4262 25.9223L35.393 25.908L34.201 28.661L34.2341 28.6753L35.4262 25.9223ZM35.3931 25.908L35.3268 25.8793L34.1346 28.6323L34.2009 28.661L35.3931 25.908ZM35.3269 25.8793L35.2938 25.865L34.1014 28.6179L34.1346 28.6322L35.3269 25.8793ZM35.1137 25.8003L35.064 25.786L34.2318 28.6682L34.2815 28.6826L35.1137 25.8003ZM35.0639 25.7859L35.0142 25.7716L34.1822 28.6539L34.2319 28.6682L35.0639 25.7859ZM35.0143 25.7716L34.9646 25.7573L34.1324 28.6395L34.1821 28.6539L35.0143 25.7716ZM34.9646 25.7573L34.8652 25.7286L34.033 28.6108L34.1324 28.6395L34.9646 25.7573ZM34.7052 25.6917L34.6223 25.6774L34.1102 28.6333L34.1931 28.6477L34.7052 25.6917ZM34.3663 25.6553H34.3497V28.6553H34.3663V25.6553ZM34.8408 25.738L34.7579 25.7093L33.7758 28.544L33.8587 28.5727L34.8408 25.738ZM34.2669 25.6267H34.2503V28.6267H34.2669V25.6267ZM34.6664 25.6855L34.6167 25.6712L33.7846 28.5535L33.8343 28.5678L34.6664 25.6855ZM34.7968 25.7359L34.7636 25.7215L33.5713 28.4744L33.6045 28.4887L34.7968 25.7359ZM34.1675 25.598H34.1509V28.598H34.1675V25.598ZM34.567 25.6568L34.5173 25.6425L33.6851 28.5247L33.7348 28.5391L34.567 25.6568ZM34.6973 25.7071L34.6642 25.6928L33.472 28.4457L33.5051 28.4601L34.6973 25.7071ZM34.0681 25.5693H34.0515V28.5693H34.0681V25.5693ZM34.4218 25.6157L34.1402 25.5439L33.3996 28.4511L33.6812 28.5228L34.4218 25.6157ZM34.366 25.6211L34.3329 25.6067L33.1406 28.3596L33.1737 28.374L34.366 25.6211ZM33.7368 25.4832H33.7202V28.4832H33.7368V25.4832ZM33.9762 25.5052L33.8106 25.4765L33.2985 28.4325L33.4642 28.4612L33.9762 25.5052ZM33.9707 25.5133L33.921 25.499L33.0887 28.3812L33.1384 28.3956L33.9707 25.5133ZM33.5048 25.4401H33.4883V28.4401H33.5048V25.4401ZM33.9043 25.499L33.8546 25.4846L33.0225 28.3669L33.0722 28.3813L33.9043 25.499ZM33.7989 25.4697L33.6829 25.441L32.9623 28.3531L33.0782 28.3818L33.7989 25.4697ZM33.7387 25.4559L33.689 25.4416L32.8568 28.3239L32.9065 28.3382L33.7387 25.4559ZM33.2729 25.3827H33.2563V28.3827H33.2729V25.3827ZM33.4406 25.3941L33.3246 25.3797L32.9562 28.357L33.0721 28.3714L33.4406 25.3941ZM32.8229 25.4024L32.7566 25.4167L33.3916 28.3487L33.4579 28.3344L32.8229 25.4024ZM33.3479 25.4079L33.1159 25.3649L32.5685 28.3145L32.8004 28.3575L33.3479 25.4079ZM32.8422 25.3397H32.7925V28.3397H32.8422V25.3397ZM32.7925 25.3397H32.7759V28.3397H32.7925V25.3397ZM32.9601 25.351L32.7282 25.3223L32.3598 28.2996L32.5917 28.3283L32.9601 25.351ZM32.544 25.311H32.5274V28.311H32.544V25.311ZM32.6825 25.319L32.2683 25.276L31.9582 28.2599L32.3724 28.3029L32.6825 25.319ZM32.1133 25.2679H32.0636V28.2679H32.1133V25.2679ZM32.0636 25.2679H31.9973V28.2679H32.0636V25.2679ZM32.1267 25.2735L31.9611 25.2592L31.7022 28.248L31.8679 28.2623L32.1267 25.2735ZM31.9243 25.2564L31.6924 25.2421L31.5071 28.2364L31.739 28.2507L31.9243 25.2564ZM31.6924 25.2421L31.4604 25.2277L31.2752 28.222L31.5071 28.2364L31.6924 25.2421ZM31.4604 25.2277L31.2285 25.2134L31.0433 28.2077L31.2752 28.222L31.4604 25.2277ZM31.1359 25.2105H30.9039V28.2105H31.1359V25.2105ZM30.9039 25.2105H30.6555V28.2105H30.9039V25.2105ZM30.6555 25.2105H30.407V28.2105H30.6555V25.2105ZM30.407 25.2105H30.175V28.2105H30.407V25.2105ZM30.0824 25.2134L29.8505 25.2277L30.0357 28.222L30.2676 28.2077L30.0824 25.2134ZM29.9431 25.2249H29.9265V28.2249H29.9431V25.2249ZM29.9265 25.2249H29.8768V28.2249H29.9265V25.2249ZM29.7591 25.2295L29.5769 25.2439L29.8124 28.2346L29.9946 28.2203L29.7591 25.2295ZM29.6946 25.2392H29.678V28.2392H29.6946V25.2392ZM29.678 25.2392H29.6283V28.2392H29.678V25.2392ZM29.6283 25.2392H29.5621V28.2392H29.6283V25.2392ZM29.5621 25.2392H29.5455V28.2392H29.5621V25.2392ZM29.5455 25.2392H29.4958V28.2392H29.5455V25.2392ZM29.4958 25.2392H29.4296V28.2392H29.4958V25.2392ZM29.4296 25.2392H29.413V28.2392H29.4296V25.2392ZM29.413 25.2392H29.3799V28.2392H29.413V25.2392ZM29.1238 25.2612L29.041 25.2756L29.5531 28.2316L29.6359 28.2172L29.1238 25.2612ZM29.297 25.2536H29.2639V28.2536H29.297V25.2536ZM29.2639 25.2536H29.1976V28.2536H29.2639V25.2536ZM29.1976 25.2536H29.1811V28.2536H29.1976V25.2536ZM29.1811 25.2536H29.1479V28.2536H29.1811V25.2536ZM29.1479 25.2536H29.0817V28.2536H29.1479V25.2536ZM29.0817 25.2536H29.0651V28.2536H29.0817V25.2536ZM29.0651 25.2536H29.032V28.2536H29.0651V25.2536ZM28.9142 25.2582L28.732 25.2726L28.9675 28.2633L29.1497 28.249L28.9142 25.2582ZM28.8497 25.2679H28.8166V28.2679H28.8497V25.2679ZM28.6233 25.2804L28.292 25.3235L28.6785 28.2985L29.0099 28.2554L28.6233 25.2804ZM28.4853 25.311H28.4521V28.311H28.4853V25.311ZM28.2679 25.3223L28.152 25.3367L28.5204 28.314L28.6364 28.2996L28.2679 25.3223ZM28.3362 25.3253H28.3196V28.3253H28.3362V25.3253ZM27.9036 25.3842L27.8539 25.3985L28.686 28.2808L28.7357 28.2665L27.9036 25.3842ZM28.2699 25.3397H28.2368V28.3397H28.2699V25.3397ZM28.2368 25.3397H28.2202V28.3397H28.2368V25.3397ZM27.8041 25.3985L27.7544 25.4129L28.5866 28.2952L28.6363 28.2808L27.8041 25.3985ZM28.1705 25.354H28.1374V28.354H28.1705V25.354ZM28.1374 25.354H28.1208V28.354H28.1374V25.354ZM27.7048 25.4129L27.6551 25.4272L28.4872 28.3095L28.5369 28.2952L27.7048 25.4129ZM27.475 25.4919L27.4419 25.5063L28.6341 28.2592L28.6673 28.2448L27.475 25.4919ZM28.038 25.3827H28.0214V28.3827H28.038V25.3827ZM27.6053 25.4416L27.5556 25.4559L28.3878 28.3382L28.4375 28.3239L27.6053 25.4416ZM27.3757 25.5206L27.3425 25.5349L28.5347 28.2879L28.5678 28.2735L27.3757 25.5206ZM27.9386 25.4114H27.922V28.4114H27.9386V25.4114ZM27.5059 25.4703L27.4562 25.4846L28.2884 28.3669L28.3381 28.3525L27.5059 25.4703ZM27.4563 25.4846L27.4066 25.499L28.2387 28.3813L28.2884 28.3669L27.4563 25.4846ZM27.8226 25.4401H27.8061V28.4401H27.8226V25.4401ZM27.39 25.499L27.3403 25.5133L28.1725 28.3956L28.2222 28.3812L27.39 25.499ZM27.4568 25.4847L27.1752 25.5421L27.7743 28.4816L28.0559 28.4243L27.4568 25.4847ZM27.0975 25.5601L26.9318 25.6031L27.6863 28.5067L27.852 28.4636L27.0975 25.5601ZM26.893 25.6138L26.8433 25.6281L27.6755 28.5104L27.7252 28.496L26.893 25.6138ZM26.899 25.6132L26.7831 25.6419L27.5037 28.554L27.6197 28.5253L26.899 25.6132ZM26.7273 25.6568L26.6776 25.6712L27.5098 28.5534L27.5595 28.5391L26.7273 25.6568ZM26.6777 25.6712L26.628 25.6855L27.4601 28.5678L27.5098 28.5535L26.6777 25.6712ZM26.6279 25.6855L26.5782 25.6999L27.4104 28.5821L27.4601 28.5678L26.6279 25.6855ZM26.6769 25.675L26.6106 25.6893L27.2455 28.6214L27.3117 28.607L26.6769 25.675ZM26.3319 25.7789L26.2988 25.7932L27.4911 28.5462L27.5242 28.5318L26.3319 25.7789ZM26.5775 25.7037L26.5112 25.718L27.1461 28.6501L27.2124 28.6357L26.5775 25.7037ZM26.8287 25.684H26.8121V28.684H26.8287V25.684ZM26.321 25.7667L26.2382 25.7954L27.2203 28.6301L27.3031 28.6014L26.321 25.7667ZM26.7293 25.7127H26.7127V28.7127H26.7293V25.7127ZM26.2966 25.7716L26.1972 25.8003L27.0294 28.6826L27.1288 28.6539L26.2966 25.7716ZM26.1223 25.8241L26.0394 25.8528L27.0215 28.6875L27.1044 28.6588L26.1223 25.8241ZM26.5305 25.7701H26.5139V28.7701H26.5305V25.7701ZM25.9178 25.8937L25.8515 25.9224L27.0437 28.6753L27.11 28.6466L25.9178 25.8937ZM25.8515 25.9224L25.8184 25.9367L27.0107 28.6896L27.0438 28.6753L25.8515 25.9224ZM26.097 25.8472L26.0308 25.8615L26.6657 28.7936L26.732 28.7792L26.097 25.8472ZM25.9322 25.8864L25.8825 25.9007L26.7146 28.783L26.7643 28.7687L25.9322 25.8864ZM25.8824 25.9008L25.8327 25.9151L26.665 28.7974L26.7147 28.783L25.8824 25.9008ZM25.8328 25.9151L25.7831 25.9294L26.6152 28.8117L26.6649 28.7974L25.8328 25.9151ZM25.603 25.9941L25.5699 26.0085L26.7622 28.7614L26.7953 28.747L25.603 25.9941ZM25.5699 26.0085L25.4042 26.0802L26.5965 28.8331L26.7621 28.7614L25.5699 26.0085ZM35.0005 16.1782C33.8539 15.1851 32.3081 14.6067 30.6389 14.6067V17.6067C31.6202 17.6067 32.46 17.9466 33.0363 18.4458L35.0005 16.1782ZM30.6389 14.6067C28.9696 14.6067 27.4238 15.1851 26.2773 16.1782L28.2414 18.4458C28.8178 17.9466 29.6576 17.6067 30.6389 17.6067V14.6067ZM26.2773 16.1782C25.1266 17.1749 24.3678 18.6062 24.3678 20.2392H27.3678C27.3678 19.5763 27.6693 18.9414 28.2414 18.4458L26.2773 16.1782ZM24.3678 20.2392C24.3678 21.8721 25.1266 23.3035 26.2773 24.3002L28.2414 22.0325C27.6693 21.537 27.3678 20.9021 27.3678 20.2392H24.3678ZM26.2773 24.3002C27.4238 25.2932 28.9696 25.8717 30.6389 25.8717V22.8717C29.6576 22.8717 28.8178 22.5317 28.2414 22.0325L26.2773 24.3002ZM30.6389 25.8717C32.3081 25.8717 33.8539 25.2932 35.0005 24.3002L33.0363 22.0325C32.46 22.5317 31.6202 22.8717 30.6389 22.8717V25.8717ZM35.0005 24.3002C36.1512 23.3035 36.9099 21.8721 36.9099 20.2392H33.9099C33.9099 20.9021 33.6085 21.537 33.0363 22.0325L35.0005 24.3002ZM36.9098 20.2608C36.9338 18.5982 36.138 17.1635 35.0005 16.1782L33.0363 18.4458C33.6216 18.9528 33.9192 19.5843 33.9101 20.2175L36.9098 20.2608Z" fill="#891C60" mask="url(#path-1-inside-1_111_173)"/>
</svg>
