<svg width="71" height="41" viewBox="0 0 71 41" fill="none" xmlns="http://www.w3.org/2000/svg">
<path d="M11.4723 26.5993L10.9463 26.8284L11.0297 27.396C11.5359 30.8385 12.6126 33.6805 14.4636 35.6663C16.3364 37.6756 18.9246 38.7262 22.2627 38.7207L22.2769 38.7207L22.291 38.7202C24.4519 38.6349 26.3603 38.1852 27.9542 37.2673C29.5577 36.3437 30.7993 34.9709 31.6544 33.1173L31.8271 32.7432L31.6038 32.3968C29.7367 29.5001 27.4975 27.8767 25.119 26.4892C24.4448 26.0958 23.769 25.7258 23.0897 25.3539C21.3503 24.4015 19.5885 23.4369 17.7749 22.0381L17.166 21.5685L16.7117 22.1888C15.3734 24.0162 13.6921 25.6327 11.4723 26.5993ZM32.1367 32.0233L32.3586 32.3404L32.7455 32.3432L34.123 32.3535L34.5084 32.3564L34.7351 32.0446C37.2232 28.6232 39.5999 27.0489 41.9116 25.7898C42.3409 25.5561 42.7741 25.3306 43.2096 25.1039C45.1131 24.1132 47.0607 23.0996 48.9129 21.2685L49.1356 21.0483V20.7351V6.48474H50.0137V20.7351V20.9659L50.1434 21.1567C52.7341 24.9687 56.6517 27.5863 62.3291 28.739L60.0741 38.0923H49.7748H49.655L49.5413 38.1296C44.9476 39.6348 40.8734 39.4384 37.1701 36.5299L36.9661 36.3697H36.7068H30.1729H29.9135L29.7096 36.5299C26.0071 39.4378 21.933 39.6251 17.337 38.1291L17.2239 38.0923H17.1049H6.99574L4.57529 28.7363C10.2453 27.5822 14.1479 24.9653 16.7363 21.1567L16.866 20.9659V20.7351V6.48474H17.7441V20.7351V21.0483L17.9668 21.2685C19.8137 23.0944 21.7905 24.1086 23.7122 25.0946C24.1607 25.3247 24.6062 25.5533 25.0463 25.7903C27.3815 27.0476 29.7518 28.6161 32.1367 32.0233ZM31.6699 34.6573L30.1593 35.9729H32.1625H34.9291H37.3424C37.8749 36.4769 38.457 36.9093 39.0874 37.2724C40.6761 38.1874 42.5313 38.6393 44.597 38.7303L44.6135 38.731H44.63C47.9651 38.731 50.6014 37.6797 52.4993 35.6714C54.3803 33.6811 55.4591 30.8324 55.8646 27.3743L55.9294 26.8215L55.4191 26.5993C53.215 25.6395 51.7333 24.0405 50.1495 22.1503L49.6779 21.5875L49.1052 22.047C47.3082 23.4892 45.5344 24.472 43.7588 25.456C43.1487 25.7941 42.5384 26.1323 41.9268 26.4893C39.5545 27.8741 37.2707 29.4927 35.2987 32.3802L35.046 32.7502L35.2521 33.1481C35.7187 34.049 36.2642 34.8349 36.8862 35.5103L35.3113 34.5776C34.9886 34.3864 34.8903 34.1336 34.8903 33.8387V33.0887H34.1403H32.7511H32.0011V33.8387C32.0011 34.1887 31.8762 34.4777 31.6699 34.6573ZM52.7902 36.2632L51.6802 37.4692L53.3184 37.5208L58.8517 37.6951L59.4666 37.7144L59.6058 37.1152C60.2059 34.5329 60.7998 31.9171 61.2045 29.481L61.3101 28.8455L60.6977 28.6452L57.5308 27.6096L56.6728 27.3291L56.5542 28.224C56.1841 31.0176 55.0546 33.803 52.7902 36.2632ZM10.5252 28.2211L10.4058 27.346L9.56166 27.6056L6.1946 28.6412L5.56817 28.8339L5.67513 29.4805C6.05228 31.7604 6.60449 34.1809 7.15271 36.5838C7.19291 36.76 7.23308 36.9361 7.27316 37.112L7.41027 37.7138L8.02721 37.6951L13.7606 37.5208L15.4874 37.4683L14.27 36.2426C11.8521 33.8084 10.911 31.0469 10.5252 28.2211Z" stroke="#891C60" stroke-width="1.5"/>
</svg>
