<svg width="52" height="40" viewBox="0 0 52 40" fill="none" xmlns="http://www.w3.org/2000/svg">
<g clip-path="url(#clip0_111_166)">
<path d="M49.0977 12.2847C49.0472 14.9708 47.824 17.5931 45.8423 20.1482C43.8598 22.7042 41.179 25.1145 38.3547 27.3592C36.4989 28.8342 34.6219 30.207 32.8543 31.4998C31.9198 32.1834 31.0159 32.8445 30.1618 33.4865C28.9414 34.404 27.8275 35.2798 26.9121 36.1035C26.4362 36.5317 25.9981 36.9596 25.6203 37.3855C25.2402 36.9587 24.7989 36.5301 24.3197 36.1014C23.3986 35.2777 22.277 34.402 21.0484 33.4846C20.1977 32.8495 19.2978 32.1955 18.3676 31.5196C16.5799 30.2205 14.6807 28.8405 12.8064 27.3578C9.96903 25.1132 7.2833 22.7039 5.31212 20.1501C3.33974 17.5947 2.14502 14.9754 2.14502 12.2935C2.14502 7.11947 7.2709 2.59399 13.9153 2.59399C18.92 2.59399 23.0119 5.10819 24.7311 8.46907L25.6214 10.2095L26.5117 8.46907C28.2308 5.10819 32.3227 2.59399 37.3275 2.59399C43.9681 2.59399 49.0919 7.11435 49.0977 12.2847Z" stroke="#891C60" stroke-width="2"/>
</g>
<defs>
<clipPath id="clip0_111_166">
<rect width="51.0811" height="39.2313" fill="white" transform="translate(0.0810547 0.702393)"/>
</clipPath>
</defs>
</svg>
