<svg width="50" height="58" viewBox="0 0 50 58" fill="none" xmlns="http://www.w3.org/2000/svg">
<g clip-path="url(#clip0_111_125)">
<path d="M16.2604 21.4483C16.725 14.7666 23.3554 9.27563 31.7101 9.27563C40.0517 9.27563 46.6809 14.7671 47.1327 21.4483H46.1362C45.6802 14.8918 39.2831 9.89022 31.6958 9.89022C24.1086 9.89022 17.7107 14.8809 17.2554 21.4483H16.2604Z" stroke="#891C60" stroke-width="1.5"/>
<path d="M1.26318 7.46834C1.26318 3.9488 4.72293 0.865356 9.23914 0.865356H24.2101C28.7415 0.865356 32.2004 3.94951 32.2004 7.46834V8.83292H31.2052V7.48035C31.2052 4.03138 27.9636 1.46792 24.2101 1.46792H9.23914C5.49992 1.46792 2.25835 4.03138 2.25835 7.46834V57.18H1.26318V7.46834Z" stroke="#891C60" stroke-width="1.5"/>
<path d="M15.0835 22.0269L15.0921 22.0196L15.1005 22.0121C15.1673 21.9524 15.3062 21.891 15.4842 21.891H47.9071C48.091 21.891 48.2318 21.9528 48.3154 22.0228C48.3974 22.0913 48.4118 22.1519 48.4118 22.1863L48.4118 22.1888L48.4261 26.3914C48.4261 26.3915 48.4261 26.3917 48.4261 26.3918C48.4259 26.4043 48.4163 26.478 48.3051 26.5775C48.2383 26.6373 48.0994 26.6987 47.9214 26.6987H15.4985C15.3146 26.6987 15.1738 26.6368 15.0902 26.5669C15.0082 26.4984 14.9938 26.4377 14.9938 26.4034L14.9937 26.4009L14.9795 22.1983C14.9795 22.1981 14.9795 22.198 14.9795 22.1978C14.9798 22.1745 14.9986 22.0985 15.0835 22.0269ZM16.7389 22.4936H15.9838L15.9889 23.2486L16.0032 25.3512L16.0082 26.0961H16.7532H46.6809H47.436L47.4309 25.341L47.4167 23.2385L47.4116 22.4936H46.6667H16.7389Z" stroke="#891C60" stroke-width="1.5"/>
<path d="M44.6763 36.1663H43.6812V31.3586H44.6763V36.1663Z" stroke="#891C60" stroke-width="1.5"/>
<path d="M38.4454 40.3715H37.4502V31.3586H38.4454V40.3715Z" stroke="#891C60" stroke-width="1.5"/>
<path d="M32.2002 36.1663H31.2051V31.3586H32.2002V36.1663Z" stroke="#891C60" stroke-width="1.5"/>
<path d="M25.9551 40.3715H24.96V31.3586H25.9551V40.3715Z" stroke="#891C60" stroke-width="1.5"/>
<path d="M19.7247 36.1663H18.7295V31.3586H19.7247V36.1663Z" stroke="#891C60" stroke-width="1.5"/>
<path d="M44.6763 40.3715H43.6812V39.7689H44.6763V40.3715Z" stroke="#891C60" stroke-width="1.5"/>
<path d="M19.7247 40.3715H18.7295V39.7689H19.7247V40.3715Z" stroke="#891C60" stroke-width="1.5"/>
</g>
<defs>
<clipPath id="clip0_111_125">
<rect width="48.6486" height="57.8146" fill="white" transform="translate(0.513184 0.115356)"/>
</clipPath>
</defs>
</svg>
