<svg width="57" height="60" viewBox="0 0 57 60" fill="none" xmlns="http://www.w3.org/2000/svg">
<mask id="path-1-inside-1_111_180" fill="white">
<path d="M45.7977 32.4639L40.956 27.3667C40.6101 26.9937 40.6595 26.4964 41.1042 26.2063C41.5488 25.9162 42.1417 25.9577 42.4875 26.3306L45.5506 29.5216L49.8983 23.1397C50.1453 22.7253 50.7876 22.601 51.2322 22.8496C51.7263 23.0568 51.8745 23.5956 51.5781 23.9685L45.7977 32.4639Z"/>
</mask>
<path d="M45.7977 32.4639L44.3476 33.8413L46.0558 35.6397L47.4512 33.589L45.7977 32.4639ZM40.956 27.3667L39.4894 28.7265L39.4976 28.7354L39.5059 28.7441L40.956 27.3667ZM42.4875 26.3306L41.021 27.6905L41.0327 27.7032L41.0447 27.7157L42.4875 26.3306ZM45.5506 29.5216L44.1078 30.9066L45.8153 32.6854L47.2035 30.6476L45.5506 29.5216ZM49.8983 23.1397L51.5512 24.2657L51.5853 24.2157L51.6162 24.1638L49.8983 23.1397ZM51.2322 22.8496L50.2561 24.5952L50.3546 24.6503L50.4587 24.694L51.2322 22.8496ZM51.5781 23.9685L50.0124 22.7241L49.9662 22.7821L49.9245 22.8434L51.5781 23.9685ZM47.2478 31.0865L42.406 25.9893L39.5059 28.7441L44.3476 33.8413L47.2478 31.0865ZM42.4225 26.0068C42.5889 26.1862 42.7741 26.5349 42.7196 26.9922C42.6643 27.4559 42.3961 27.7514 42.197 27.8814L40.0114 24.5313C39.3676 24.9513 38.8524 25.6405 38.7477 26.5187C38.6438 27.3904 38.9772 28.1742 39.4894 28.7265L42.4225 26.0068ZM42.197 27.8814C41.9417 28.0479 41.4276 28.129 41.021 27.6905L43.9541 24.9708C42.8558 23.7863 41.1559 23.7846 40.0114 24.5313L42.197 27.8814ZM41.0447 27.7157L44.1078 30.9066L46.9935 28.1366L43.9303 24.9456L41.0447 27.7157ZM47.2035 30.6476L51.5512 24.2657L48.2454 22.0137L43.8978 28.3956L47.2035 30.6476ZM51.6162 24.1638C51.39 24.5432 51.0673 24.6687 50.9016 24.7034C50.7314 24.7391 50.5022 24.7328 50.2561 24.5952L52.2084 21.104C51.5177 20.7178 50.7449 20.6493 50.0807 20.7886C49.421 20.9269 48.6536 21.3218 48.1804 22.1157L51.6162 24.1638ZM50.4587 24.694C50.1884 24.5806 49.9049 24.3207 49.7849 23.9182C49.6636 23.5111 49.7463 23.0589 50.0124 22.7241L53.1438 25.2129C54.3695 23.6708 53.5627 21.6582 52.0058 21.0053L50.4587 24.694ZM49.9245 22.8434L44.1441 31.3388L47.4512 33.589L53.2316 25.0936L49.9245 22.8434Z" fill="#891C60" mask="url(#path-1-inside-1_111_180)"/>
<path d="M33.4627 10.0336C34.2966 7.0712 32.1096 4.10263 28.5779 3.40313C25.0461 2.70362 21.507 4.53806 20.6731 7.50047C19.8391 10.4629 22.0261 13.4314 25.5579 14.131C29.0896 14.8305 32.6287 12.996 33.4627 10.0336Z" stroke="#891C60" stroke-width="2"/>
<path d="M34.6814 24.4922L37.4975 21.6742L45.5999 13.4275C46.5386 12.5158 46.3904 11.1068 45.3035 10.3194C44.2166 9.53206 42.5368 9.65638 41.5981 10.5681L34.4838 17.5301L32.6558 14.9608" stroke="#891C60" stroke-width="2"/>
<path d="M19.9094 15.2924L16.6487 17.7374L7.31108 24.9895C6.22417 25.8183 6.12536 27.1859 7.11346 28.0976C8.10157 29.0093 9.73194 29.0921 10.8189 28.2633L18.9707 22.213V24.4508V28.4291C18.9707 31.6615 18.4767 34.8524 17.4391 37.9605L14.376 47.4919C13.882 48.9423 14.9195 50.4342 16.6487 50.8486C18.3778 51.263 20.1564 50.3927 20.6505 48.9423L25.2946 34.6452C25.4922 34.065 26.1345 33.6506 26.8261 33.6506C27.5672 33.6506 28.1601 34.065 28.3577 34.6452L33.0018 48.9423C33.4958 50.3927 35.2744 51.263 37.0036 50.8486C38.7328 50.4342 39.7703 48.9423 39.2762 47.4919L36.2131 37.9605C35.225 34.811 34.731 31.62 34.731 28.3876V24.4093" stroke="#891C60" stroke-width="2"/>
</svg>
