<svg width="65" height="41" viewBox="0 0 65 41" fill="none" xmlns="http://www.w3.org/2000/svg">
<g clip-path="url(#clip0_111_192)">
<path d="M52.801 12.9603C38.7197 14.2238 23.1562 14.0132 10.8042 12.9603" stroke="#891C60" stroke-width="1.5"/>
<path d="M52.8013 31.7017V34.8604C52.8013 36.1239 51.8132 36.9662 50.3309 36.9662H47.8605C46.3783 36.9662 45.3901 36.1239 45.3901 34.8604V29.5959" stroke="#891C60" stroke-width="1.5"/>
<path d="M10.8042 31.7017V34.8604C10.8042 36.1239 11.7924 36.9662 13.2746 36.9662H15.745C17.2272 36.9662 18.2154 36.1239 18.2154 34.8604V29.5959" stroke="#891C60" stroke-width="1.5"/>
<path d="M23.1562 24.3315H40.4491" stroke="#891C60" stroke-width="1.5"/>
<path d="M18.2154 24.3315H12.7805C11.5453 24.3315 10.8042 23.2786 10.8042 22.2257" stroke="#891C60" stroke-width="1.5"/>
<path d="M45.3901 24.3315H50.825C52.0602 24.3315 52.8013 23.2786 52.8013 22.2257" stroke="#891C60" stroke-width="1.5"/>
<path d="M9.56907 13.8026H5.86347C4.62827 13.8026 3.39307 12.9603 3.39307 12.118C3.39307 10.8545 3.39307 9.59106 5.86347 9.59106H12.0395" stroke="#891C60" stroke-width="1.5"/>
<path d="M54.0363 13.8026H57.989C59.2242 13.8026 60.4594 12.9603 60.4594 12.118C60.4594 10.8545 60.4594 9.59106 57.989 9.59106H51.5659" stroke="#891C60" stroke-width="1.5"/>
<path d="M55.4802 16.8579L55.5022 16.8801L55.5259 16.9003C56.5568 17.7791 56.9917 19.0221 56.9917 20.3305V28.3325C56.9917 28.3939 56.9615 28.5234 56.7811 28.7191C56.6029 28.9125 56.3264 29.1148 55.9728 29.3003C55.2571 29.6758 54.3878 29.8989 53.7891 29.8989H30.5673H9.81592C9.21725 29.8989 8.34792 29.6758 7.63216 29.3003C7.27859 29.1148 7.00213 28.9125 6.8239 28.7191C6.64352 28.5234 6.61328 28.3939 6.61328 28.3325V20.3305C6.61328 19.2493 7.03761 17.9987 8.07909 17.1109L8.11344 17.0816L8.14403 17.0485C9.5302 15.5446 11.1092 13.554 12.3774 11.3919C13.6272 9.26136 14.6122 6.90203 14.7603 4.64528C15.0555 3.42234 16.1578 2.65822 17.935 2.21119C19.7173 1.76289 21.9154 1.7074 23.8972 1.7074H30.3203H39.4608C41.5688 1.7074 43.7638 1.76324 45.5127 2.21046C47.2645 2.65843 48.327 3.42905 48.6081 4.69047C49.6374 9.94107 52.7088 14.0661 55.4802 16.8579Z" stroke="#891C60" stroke-width="1.5"/>
</g>
<defs>
<clipPath id="clip0_111_192">
<rect width="63.2432" height="40.2638" fill="white" transform="translate(0.864746 0.0626221)"/>
</clipPath>
</defs>
</svg>
