<svg width="32" height="33" viewBox="0 0 32 33" fill="none" xmlns="http://www.w3.org/2000/svg">
<path d="M29.3403 1.75476H20.1664C19.5365 1.75476 18.6542 2.21233 18.2093 2.76945L6.83524 17.0114C6.62077 17.2812 6.50037 17.6464 6.50037 18.0271C6.50037 18.4077 6.62077 18.7729 6.83524 19.0427L16.6803 31.3702C16.8958 31.6387 17.1874 31.7895 17.4915 31.7895C17.7955 31.7895 18.0871 31.6387 18.3026 31.3702L29.6767 17.1282C30.1231 16.5692 30.487 15.4664 30.487 14.6776V3.19064C30.4862 2.81013 30.3651 2.4455 30.1503 2.17644C29.9354 1.90738 29.6442 1.75577 29.3403 1.75476V1.75476ZM23.6066 13.2418C23.3053 13.2416 23.007 13.1672 22.7287 13.0227C22.4504 12.8782 22.1975 12.6665 21.9846 12.3997C21.7716 12.1328 21.6027 11.8161 21.4875 11.4675C21.3723 11.1189 21.313 10.7453 21.3131 10.3681C21.3132 9.99085 21.3727 9.61732 21.4881 9.26883C21.6035 8.92035 21.7725 8.60373 21.9856 8.33707C22.1988 8.0704 22.4517 7.8589 22.7301 7.71465C23.0085 7.5704 23.3069 7.49622 23.6081 7.49635C24.2166 7.4966 24.8001 7.7995 25.2302 8.33842C25.6603 8.87734 25.9018 9.60812 25.9016 10.37C25.9014 11.1319 25.6595 11.8625 25.2291 12.401C24.7987 12.9396 24.2151 13.242 23.6066 13.2418V13.2418Z" stroke="url(#paint0_linear_104_101)" stroke-width="2" stroke-miterlimit="10" stroke-linecap="round" stroke-linejoin="round"/>
<path d="M2.96534 18.028L15.9617 1.75476H14.0504C13.4205 1.75476 12.5383 2.21233 12.0933 2.76945L0.719268 17.0114C0.504801 17.2812 0.384399 17.6464 0.384399 18.0271C0.384399 18.4077 0.504801 18.7729 0.719268 19.0427L10.5644 31.3702C10.7798 31.6387 11.0715 31.7895 11.3755 31.7895C11.6795 31.7895 11.9711 31.6387 12.1866 31.3702L12.9052 30.4703L2.96687 18.0261L2.96534 18.028Z" fill="url(#paint1_linear_104_101)"/>
<defs>
<linearGradient id="paint0_linear_104_101" x1="18.4937" y1="1.75476" x2="18.4937" y2="31.7895" gradientUnits="userSpaceOnUse">
<stop stop-color="#AE9D6F"/>
<stop offset="0.546875" stop-color="#E7CF8E"/>
<stop offset="1" stop-color="#B4A374"/>
</linearGradient>
<linearGradient id="paint1_linear_104_101" x1="8.17303" y1="1.75476" x2="8.17303" y2="31.7895" gradientUnits="userSpaceOnUse">
<stop stop-color="#AE9D6F"/>
<stop offset="0.546875" stop-color="#E7CF8E"/>
<stop offset="1" stop-color="#B4A374"/>
</linearGradient>
</defs>
</svg>
