<svg width="49" height="47" viewBox="0 0 49 47" fill="none" xmlns="http://www.w3.org/2000/svg">
<path d="M35.3231 1.53809H40.757H43.9135C45.7514 1.53809 47.2697 2.82094 47.2697 4.37387V26.9251C47.2697 28.4781 45.7514 29.7609 43.9135 29.7609H5.55644C3.7185 29.7609 2.2002 28.4781 2.2002 26.9251V4.37387C2.2002 2.82094 3.7185 1.53809 5.55644 1.53809H8.35331H35.3231Z" stroke="#891C60" stroke-width="1.5"/>
<path d="M13.2272 29.7611L11.1895 34.1498H24.7343H38.2392L36.2015 29.7611" stroke="#891C60" stroke-width="1.5"/>
<path d="M43.6338 37.4578L47.5494 43.4332C48.1488 44.3447 47.3896 45.425 46.151 45.425H24.735H3.279C2.08034 45.425 1.28124 44.3109 1.88057 43.4332L5.79618 37.4578H43.6338V37.4578Z" stroke="#891C60" stroke-width="1.5"/>
<path d="M11.5088 41.4431H39.7971" stroke="#891C60" stroke-width="1.5"/>
</svg>
