<svg width="18" height="288" viewBox="0 0 18 288" fill="none" xmlns="http://www.w3.org/2000/svg">
<path d="M17 218.091V218.809C16.999 220.492 16.4404 222.129 15.4075 223.477C14.3745 224.825 12.9226 225.811 11.2683 226.288C9.61394 226.765 7.8458 226.708 6.22757 226.125C4.60934 225.542 3.22772 224.464 2.28877 223.052C1.34981 221.64 0.903833 219.97 1.01734 218.291C1.13085 216.611 1.79777 215.013 2.91862 213.734C4.03948 212.454 5.55423 211.563 7.23695 211.192C8.91967 210.821 10.6802 210.991 12.256 211.676" stroke="#E3008D" stroke-width="2" stroke-miterlimit="10" stroke-linecap="round" stroke-linejoin="round"/>
<path d="M17.0001 212.566L9.0001 220.378L6.6001 218.036" stroke="#E3008D" stroke-width="2" stroke-miterlimit="10" stroke-linecap="round" stroke-linejoin="round"/>
<path d="M17 277.828V278.546C16.999 280.229 16.4404 281.867 15.4075 283.215C14.3745 284.563 12.9226 285.549 11.2683 286.026C9.61394 286.503 7.8458 286.446 6.22757 285.863C4.60934 285.279 3.22772 284.201 2.28877 282.79C1.34981 281.378 0.903833 279.708 1.01734 278.028C1.13085 276.349 1.79777 274.751 2.91862 273.471C4.03948 272.192 5.55423 271.301 7.23695 270.93C8.91967 270.559 10.6802 270.728 12.256 271.413" stroke="#E3008D" stroke-width="2" stroke-miterlimit="10" stroke-linecap="round" stroke-linejoin="round"/>
<path d="M17.0001 272.303L9.0001 280.115L6.6001 277.774" stroke="#E3008D" stroke-width="2" stroke-miterlimit="10" stroke-linecap="round" stroke-linejoin="round"/>
<path d="M17 8.09067V8.80866C16.999 10.4916 16.4404 12.1291 15.4075 13.477C14.3745 14.8249 12.9226 15.811 11.2683 16.2881C9.61394 16.7653 7.8458 16.708 6.22757 16.1248C4.60934 15.5415 3.22772 14.4637 2.28877 13.0518C1.34981 11.64 0.903833 9.96997 1.01734 8.29071C1.13085 6.61144 1.79777 5.01295 2.91862 3.73365C4.03948 2.45434 5.55423 1.56276 7.23695 1.19188C8.91967 0.820998 10.6802 0.990682 12.256 1.67563" stroke="#E3008D" stroke-width="2" stroke-miterlimit="10" stroke-linecap="round" stroke-linejoin="round"/>
<path d="M17.0001 2.56555L9.0001 10.3775L6.6001 8.03629" stroke="#E3008D" stroke-width="2" stroke-miterlimit="10" stroke-linecap="round" stroke-linejoin="round"/>
<path d="M17 67.8285V68.5465C16.999 70.2294 16.4404 71.8669 15.4075 73.2148C14.3745 74.5627 12.9226 75.5487 11.2683 76.0259C9.61394 76.5031 7.8458 76.4458 6.22757 75.8626C4.60934 75.2793 3.22772 74.2014 2.28877 72.7896C1.34981 71.3778 0.903833 69.7078 1.01734 68.0285C1.13085 66.3492 1.79777 64.7507 2.91862 63.4714C4.03948 62.1921 5.55423 61.3006 7.23695 60.9297C8.91967 60.5588 10.6802 60.7285 12.256 61.4134" stroke="#E3008D" stroke-width="2" stroke-miterlimit="10" stroke-linecap="round" stroke-linejoin="round"/>
<path d="M17.0001 62.3032L9.0001 70.1152L6.6001 67.774" stroke="#E3008D" stroke-width="2" stroke-miterlimit="10" stroke-linecap="round" stroke-linejoin="round"/>
<path d="M17 128.091V128.809C16.999 130.492 16.4404 132.129 15.4075 133.477C14.3745 134.825 12.9226 135.811 11.2683 136.288C9.61394 136.765 7.8458 136.708 6.22757 136.125C4.60934 135.542 3.22772 134.464 2.28877 133.052C1.34981 131.64 0.903833 129.97 1.01734 128.291C1.13085 126.611 1.79777 125.013 2.91862 123.734C4.03948 122.454 5.55423 121.563 7.23695 121.192C8.91967 120.821 10.6802 120.991 12.256 121.676" stroke="#E3008D" stroke-width="2" stroke-miterlimit="10" stroke-linecap="round" stroke-linejoin="round"/>
<path d="M17.0001 122.565L9.0001 130.377L6.6001 128.036" stroke="#E3008D" stroke-width="2" stroke-miterlimit="10" stroke-linecap="round" stroke-linejoin="round"/>
</svg>
