<svg width="42" height="41" viewBox="0 0 42 41" fill="none" xmlns="http://www.w3.org/2000/svg">
<rect width="42" height="41" rx="19" fill="white" fill-opacity="0.85"/>
<path d="M29.1781 13.6771C28.7196 13.2322 28.1752 12.8793 27.576 12.6384C26.9769 12.3976 26.3347 12.2737 25.6861 12.2737C25.0376 12.2737 24.3954 12.3976 23.7962 12.6384C23.1971 12.8793 22.6527 13.2322 22.1942 13.6771L21.2427 14.6001L20.2911 13.6771C19.365 12.7788 18.1089 12.2741 16.7992 12.2741C15.4895 12.2741 14.2334 12.7788 13.3072 13.6771C12.3811 14.5755 11.8608 15.7939 11.8608 17.0643C11.8608 18.3347 12.3811 19.5531 13.3072 20.4514L14.2588 21.3744L21.2427 28.1487L28.2265 21.3744L29.1781 20.4514C29.6368 20.0067 30.0006 19.4787 30.2489 18.8975C30.4972 18.3163 30.625 17.6934 30.625 17.0643C30.625 16.4352 30.4972 15.8123 30.2489 15.2311C30.0006 14.6499 29.6368 14.1219 29.1781 13.6771V13.6771Z" fill="url(#paint0_linear_104_179)"/>
<g filter="url(#filter0_b_104_179)">
<path d="M18.8973 23.8748C18.7191 23.8746 18.544 23.8287 18.3897 23.7416C18.2354 23.6545 18.1072 23.5294 18.0181 23.3787L16.2852 20.3377L15.1773 21.9599C15.082 22.0941 14.9542 22.2033 14.8052 22.2777C14.6563 22.3521 14.4908 22.3895 14.3235 22.3865H9.74979C9.48022 22.3865 9.2217 22.282 9.03109 22.0959C8.84048 21.9099 8.7334 21.6575 8.7334 21.3944C8.7334 21.1312 8.84048 20.8789 9.03109 20.6928C9.2217 20.5067 9.48022 20.4022 9.74979 20.4022H13.7798L15.5127 17.8672C15.6095 17.726 15.7419 17.6114 15.8971 17.5344C16.0523 17.4574 16.2252 17.4207 16.3991 17.4276C16.5731 17.4346 16.7423 17.4851 16.8905 17.5742C17.0387 17.6633 17.161 17.7881 17.2457 17.9367L18.8973 20.8983L21.5551 16.4335C21.646 16.2799 21.7773 16.1528 21.9355 16.0656C22.0937 15.9783 22.273 15.9341 22.4547 15.9374C22.632 15.9385 22.806 15.9848 22.9594 16.0718C23.1127 16.1589 23.2401 16.2836 23.3287 16.4335L25.763 20.4022L26.7794 19.6184C26.9595 19.4819 27.1815 19.4085 27.4095 19.41H32.1103C32.3799 19.41 32.6384 19.5146 32.829 19.7006C33.0197 19.8867 33.1267 20.139 33.1267 20.4022C33.1267 20.6653 33.0197 20.9177 32.829 21.1038C32.6384 21.2898 32.3799 21.3944 32.1103 21.3944H27.7653L26.1137 22.6693C25.9999 22.7607 25.8671 22.8268 25.7245 22.8631C25.5819 22.8994 25.4329 22.905 25.2879 22.8795C25.1429 22.8541 25.0053 22.7981 24.8846 22.7155C24.7639 22.633 24.6631 22.5258 24.5891 22.4014L22.4547 18.8842L19.7765 23.3787C19.6873 23.5294 19.5592 23.6545 19.4049 23.7416C19.2506 23.8287 19.0755 23.8746 18.8973 23.8748Z" fill="white" fill-opacity="0.2"/>
</g>
<defs>
<filter id="filter0_b_104_179" x="-16.2666" y="-9.06274" width="74.3933" height="57.9375" filterUnits="userSpaceOnUse" color-interpolation-filters="sRGB">
<feFlood flood-opacity="0" result="BackgroundImageFix"/>
<feGaussianBlur in="BackgroundImageFix" stdDeviation="12.5"/>
<feComposite in2="SourceAlpha" operator="in" result="effect1_backgroundBlur_104_179"/>
<feBlend mode="normal" in="SourceGraphic" in2="effect1_backgroundBlur_104_179" result="shape"/>
</filter>
<linearGradient id="paint0_linear_104_179" x1="11.8608" y1="19.682" x2="30.1751" y2="19.7786" gradientUnits="userSpaceOnUse">
<stop stop-color="#D22397"/>
<stop offset="1" stop-color="#FF7070" stop-opacity="0.65"/>
</linearGradient>
</defs>
</svg>
