<svg width="18" height="18" viewBox="0 0 18 18" fill="none" xmlns="http://www.w3.org/2000/svg">
<path d="M17 8.09067V8.80866C16.999 10.4916 16.4404 12.1291 15.4075 13.477C14.3745 14.8249 12.9226 15.811 11.2683 16.2881C9.61394 16.7653 7.8458 16.708 6.22757 16.1248C4.60934 15.5415 3.22772 14.4637 2.28877 13.0518C1.34981 11.64 0.903833 9.96997 1.01734 8.29071C1.13085 6.61144 1.79777 5.01295 2.91862 3.73365C4.03948 2.45434 5.55423 1.56276 7.23695 1.19188C8.91967 0.820998 10.6802 0.990682 12.256 1.67563" stroke="url(#paint0_linear_222_634)" stroke-width="2" stroke-miterlimit="10" stroke-linecap="round" stroke-linejoin="round"/>
<path d="M17.0001 2.56543L9.0001 10.3774L6.6001 8.03617" stroke="url(#paint1_linear_222_634)" stroke-width="2" stroke-miterlimit="10" stroke-linecap="round" stroke-linejoin="round"/>
<defs>
<linearGradient id="paint0_linear_222_634" x1="9" y1="1" x2="9" y2="16.6084" gradientUnits="userSpaceOnUse">
<stop stop-color="#AE9D6F"/>
<stop offset="0.546875" stop-color="#E7CF8E"/>
<stop offset="1" stop-color="#B4A374"/>
</linearGradient>
<linearGradient id="paint1_linear_222_634" x1="11.8001" y1="2.56543" x2="11.8001" y2="10.3774" gradientUnits="userSpaceOnUse">
<stop stop-color="#AE9D6F"/>
<stop offset="0.546875" stop-color="#E7CF8E"/>
<stop offset="1" stop-color="#B4A374"/>
</linearGradient>
</defs>
</svg>
