<svg width="51" height="50" viewBox="0 0 51 50" fill="none" xmlns="http://www.w3.org/2000/svg">
<path d="M46.73 22.7959V42.4116" stroke="#891C60" stroke-width="1.5"/>
<path d="M4.16211 42.4116V22.7959" stroke="#891C60" stroke-width="1.5"/>
<mask id="path-3-inside-1_111_104" fill="white">
<path d="M17.0231 42.4115H0.513184V49.6383H50.378V42.4115H33.5329"/>
</mask>
<path d="M0.513184 42.4115V40.9115H-0.986816V42.4115H0.513184ZM0.513184 49.6383H-0.986816V51.1383H0.513184V49.6383ZM50.378 49.6383V51.1383H51.878V49.6383H50.378ZM50.378 42.4115H51.878V40.9115H50.378V42.4115ZM17.0231 40.9115H0.513184V43.9115H17.0231V40.9115ZM-0.986816 42.4115V49.6383H2.01318V42.4115H-0.986816ZM0.513184 51.1383H50.378V48.1383H0.513184V51.1383ZM51.878 49.6383V42.4115H48.878V49.6383H51.878ZM50.378 40.9115H33.5329V43.9115H50.378V40.9115Z" fill="#891C60" mask="url(#path-3-inside-1_111_104)"/>
<mask id="path-5-inside-2_111_104" fill="white">
<path d="M19.9731 45.5087V42.4115H30.9191V45.5087"/>
</mask>
<path d="M19.9731 42.4115V40.9115H18.4731V42.4115H19.9731ZM30.9191 42.4115H32.4191V40.9115H30.9191V42.4115ZM21.4731 45.5087V42.4115H18.4731V45.5087H21.4731ZM19.9731 43.9115H30.9191V40.9115H19.9731V43.9115ZM29.4191 42.4115V45.5087H32.4191V42.4115H29.4191Z" fill="#891C60" mask="url(#path-5-inside-2_111_104)"/>
<mask id="path-7-inside-3_111_104" fill="white">
<path d="M30.9191 42.4115V28.9902H19.9731V42.4115"/>
</mask>
<path d="M30.9191 28.9902H32.4191V27.4902H30.9191V28.9902ZM19.9731 28.9902V27.4902H18.4731V28.9902H19.9731ZM32.4191 42.4115V28.9902H29.4191V42.4115H32.4191ZM30.9191 27.4902H19.9731V30.4902H30.9191V27.4902ZM18.4731 28.9902V42.4115H21.4731V28.9902H18.4731Z" fill="#891C60" mask="url(#path-7-inside-3_111_104)"/>
<mask id="path-9-inside-4_111_104" fill="white">
<path d="M16.324 5.245H4.62316L0.513184 11.4394"/>
</mask>
<path d="M4.62316 5.245V3.745H3.81826L3.37325 4.41569L4.62316 5.245ZM16.324 3.745H4.62316V6.745H16.324V3.745ZM3.37325 4.41569L-0.736718 10.6101L1.76309 12.2687L5.87306 6.0743L3.37325 4.41569Z" fill="#891C60" mask="url(#path-9-inside-4_111_104)"/>
<mask id="path-11-inside-5_111_104" fill="white">
<path d="M50.3784 11.4394L46.3193 5.245H37"/>
</mask>
<path d="M46.3193 5.245L47.5739 4.42286L47.1297 3.745H46.3193V5.245ZM51.633 10.6173L47.5739 4.42286L45.0647 6.06713L49.1237 12.2616L51.633 10.6173ZM46.3193 3.745H37V6.745H46.3193V3.745Z" fill="#891C60" mask="url(#path-11-inside-5_111_104)"/>
<mask id="path-13-inside-6_111_104" fill="white">
<path d="M16.3242 16.6014C16.3242 18.8957 14.4574 20.7311 12.124 20.7311C10.8936 20.7311 9.79053 20.2305 9.02686 19.3962"/>
</mask>
<path d="M14.8242 16.6014C14.8242 18.0434 13.653 19.2311 12.124 19.2311V22.2311C15.2618 22.2311 17.8242 19.748 17.8242 16.6014H14.8242ZM12.124 19.2311C11.3083 19.2311 10.6087 18.9028 10.1333 18.3834L7.92042 20.409C8.97235 21.5582 10.4789 22.2311 12.124 22.2311V19.2311Z" fill="#891C60" mask="url(#path-13-inside-6_111_104)"/>
<mask id="path-15-inside-7_111_104" fill="white">
<path d="M24.8373 16.6014C24.8373 18.8957 22.9597 20.7311 20.6126 20.7311C19.4177 20.7311 18.3082 20.2305 17.54 19.4379"/>
</mask>
<path d="M23.3373 16.6014C23.3373 18.0352 22.1636 19.2311 20.6126 19.2311V22.2311C23.7557 22.2311 26.3373 19.7561 26.3373 16.6014H23.3373ZM20.6126 19.2311C19.8337 19.2311 19.1098 18.9023 18.6172 18.394L16.4629 20.4819C17.5065 21.5587 19.0017 22.2311 20.6126 22.2311V19.2311Z" fill="#891C60" mask="url(#path-15-inside-7_111_104)"/>
<mask id="path-17-inside-8_111_104" fill="white">
<path d="M33.3515 16.6014C33.3515 18.8957 31.4738 20.7311 29.1267 20.7311C27.9319 20.7311 26.8223 20.2305 26.0542 19.4379"/>
</mask>
<path d="M31.8515 16.6014C31.8515 18.0352 30.6778 19.2311 29.1267 19.2311V22.2311C32.2699 22.2311 34.8515 19.7561 34.8515 16.6014H31.8515ZM29.1267 19.2311C28.3479 19.2311 27.624 18.9023 27.1313 18.394L24.9771 20.4819C26.0207 21.5587 27.5159 22.2311 29.1267 22.2311V19.2311Z" fill="#891C60" mask="url(#path-17-inside-8_111_104)"/>
<mask id="path-19-inside-9_111_104" fill="white">
<path d="M41.8652 16.6014C41.8652 18.8957 40.0092 20.7311 37.6893 20.7311C36.466 20.7311 35.3271 20.1888 34.5679 19.3545"/>
</mask>
<path d="M40.3652 16.6014C40.3652 18.0515 39.1966 19.2311 37.6893 19.2311V22.2311C40.8218 22.2311 43.3652 19.7398 43.3652 16.6014H40.3652ZM37.6893 19.2311C36.9035 19.2311 36.1626 18.8782 35.6772 18.3449L33.4585 20.3641C34.4917 21.4994 36.0286 22.2311 37.6893 22.2311V19.2311Z" fill="#891C60" mask="url(#path-19-inside-9_111_104)"/>
<mask id="path-21-inside-10_111_104" fill="white">
<path d="M8.83801 17.1795C8.83801 19.1526 6.98805 20.7311 4.6756 20.7311C2.36314 20.7311 0.513184 19.1526 0.513184 17.1795V11.4395H50.378V17.1436C50.378 19.1167 48.5281 20.6952 46.2156 20.6952C44.9963 20.6952 43.9032 20.2288 43.1464 19.5472"/>
</mask>
<path d="M0.513184 11.4395V9.93945H-0.986816V11.4395H0.513184ZM50.378 11.4395H51.878V9.93945H50.378V11.4395ZM7.33801 17.1795C7.33801 18.1097 6.3917 19.2311 4.6756 19.2311V22.2311C7.5844 22.2311 10.338 20.1954 10.338 17.1795H7.33801ZM4.6756 19.2311C2.9595 19.2311 2.01318 18.1097 2.01318 17.1795H-0.986816C-0.986816 20.1954 1.76679 22.2311 4.6756 22.2311V19.2311ZM2.01318 17.1795V11.4395H-0.986816V17.1795H2.01318ZM0.513184 12.9395H50.378V9.93945H0.513184V12.9395ZM48.878 11.4395V17.1436H51.878V11.4395H48.878ZM48.878 17.1436C48.878 18.0739 47.9317 19.1952 46.2156 19.1952V22.1952C49.1244 22.1952 51.878 20.1596 51.878 17.1436H48.878ZM46.2156 19.1952C45.3743 19.1952 44.637 18.871 44.1502 18.4326L42.1425 20.6618C43.1694 21.5866 44.6184 22.1952 46.2156 22.1952V19.1952Z" fill="#891C60" mask="url(#path-21-inside-10_111_104)"/>
<mask id="path-23-inside-11_111_104" fill="white">
<path d="M16.3242 11.4395V0.0830078H36.9999V11.4395"/>
</mask>
<path d="M16.3242 0.0830078V-1.41699H14.8242V0.0830078H16.3242ZM36.9999 0.0830078H38.4999V-1.41699H36.9999V0.0830078ZM17.8242 11.4395V0.0830078H14.8242V11.4395H17.8242ZM16.3242 1.58301H36.9999V-1.41699H16.3242V1.58301ZM35.4999 0.0830078V11.4395H38.4999V0.0830078H35.4999Z" fill="#891C60" mask="url(#path-23-inside-11_111_104)"/>
<path d="M26.0542 3.18018V8.3422" stroke="#891C60" stroke-width="1.5"/>
<path d="M29.7027 5.245H23.6216" stroke="#891C60" stroke-width="1.5"/>
</svg>
