<svg width="53" height="45" viewBox="0 0 53 45" fill="none" xmlns="http://www.w3.org/2000/svg">
<path d="M26.2091 44.4594C11.7904 44.4594 0.0703125 34.4939 0.0703125 22.2544C0.0703125 10.0148 11.7904 0.06604 26.2091 0.06604C40.6278 0.06604 52.3479 10.0148 52.3479 22.2544C52.3676 34.4939 40.6278 44.4594 26.2091 44.4594ZM26.2091 1.90531C12.992 1.90531 2.23706 11.0348 2.23706 22.2544C2.23706 33.4739 12.992 42.6034 26.2091 42.6034C39.4262 42.6034 50.1812 33.4739 50.1812 22.2544C50.1812 11.0348 39.4459 1.90531 26.2091 1.90531Z" fill="#891C60"/>
<path d="M26.2095 39.4434C15.0606 39.4434 5.97998 31.7351 5.97998 22.2545C5.97998 12.7906 15.0606 5.0824 26.2095 5.0824C37.3584 5.0824 46.439 12.7906 46.439 22.2545C46.4587 31.7351 37.3781 39.4434 26.2095 39.4434ZM26.2095 6.92167C16.2425 6.92167 8.14672 13.8106 8.14672 22.2545C8.14672 30.7152 16.2622 37.5874 26.2095 37.5874C36.1765 37.5874 44.2722 30.6985 44.2722 22.2545C44.2919 13.8106 36.1765 6.92167 26.2095 6.92167Z" fill="#891C60"/>
<path d="M26.2093 10.2658C25.6184 10.2658 25.126 9.84779 25.126 9.34617V6.00203C25.126 5.50041 25.6184 5.0824 26.2093 5.0824C26.8003 5.0824 27.2927 5.50041 27.2927 6.00203V9.34617C27.2927 9.84779 26.82 10.2658 26.2093 10.2658Z" fill="#891C60"/>
<path d="M26.2093 39.4433C25.6184 39.4433 25.126 39.0253 25.126 38.5237V35.1795C25.126 34.6779 25.6184 34.2599 26.2093 34.2599C26.8003 34.2599 27.2927 34.6779 27.2927 35.1795V38.5237C27.2927 39.0253 26.82 39.4433 26.2093 39.4433Z" fill="#891C60"/>
<path d="M11.0029 23.174H7.06335C6.47242 23.174 5.97998 22.756 5.97998 22.2544C5.97998 21.7527 6.47242 21.3347 7.06335 21.3347H11.0029C11.5938 21.3347 12.0863 21.7527 12.0863 22.2544C12.0863 22.7727 11.5938 23.174 11.0029 23.174Z" fill="#891C60"/>
<path d="M45.3754 23.174H41.4359C40.845 23.174 40.3525 22.756 40.3525 22.2544C40.3525 21.7527 40.845 21.3347 41.4359 21.3347H45.3754C45.9664 21.3347 46.4588 21.7527 46.4588 22.2544C46.4588 22.7727 45.9664 23.174 45.3754 23.174Z" fill="#891C60"/>
<path d="M26.2096 23.1738C25.9338 23.1738 25.658 23.0902 25.4413 22.9062L19.8275 18.2077C19.3942 17.8566 19.3942 17.2714 19.8078 16.9035C20.2215 16.5357 20.9109 16.5357 21.3442 16.8868L26.9581 21.5853C27.3914 21.9364 27.3914 22.5216 26.9778 22.8895C26.7808 23.0902 26.505 23.1738 26.2096 23.1738Z" fill="#891C60"/>
<path d="M26.209 23.174C25.9332 23.174 25.6575 23.0904 25.4408 22.9064C25.0074 22.5553 25.0074 21.9701 25.4211 21.6022L35.132 13.2921C35.5457 12.9242 36.2351 12.9242 36.6685 13.2753C37.1018 13.6265 37.1018 14.2117 36.6882 14.5795L27.0166 22.9064C26.7802 23.0904 26.5045 23.174 26.209 23.174Z" fill="#891C60"/>
</svg>
