<svg width="32" height="33" viewBox="0 0 32 33" fill="none" xmlns="http://www.w3.org/2000/svg">
<path d="M29.7712 1.03284H20.5018C19.8653 1.03284 18.9738 1.50014 18.5243 2.06912L7.03172 16.6143C6.81502 16.8898 6.69336 17.2628 6.69336 17.6516C6.69336 18.0403 6.81502 18.4133 7.03172 18.6888L16.9794 31.2787C17.1971 31.553 17.4918 31.707 17.7989 31.707C18.1061 31.707 18.4008 31.553 18.6185 31.2787L30.1111 16.7336C30.5622 16.1626 30.9299 15.0364 30.9299 14.2308V2.49928C30.9291 2.11067 30.8067 1.73828 30.5896 1.46349C30.3725 1.1887 30.0782 1.03387 29.7712 1.03284V1.03284ZM23.9778 12.7644C23.6734 12.7643 23.372 12.6882 23.0907 12.5407C22.8095 12.3931 22.554 12.1769 22.3389 11.9044C22.1237 11.6319 21.953 11.3084 21.8366 10.9524C21.7202 10.5964 21.6603 10.2148 21.6604 9.82954C21.6605 9.44426 21.7206 9.06278 21.8372 8.70688C21.9538 8.35097 22.1246 8.02762 22.3399 7.75527C22.5553 7.48293 22.8109 7.26693 23.0922 7.11961C23.3735 6.97229 23.6749 6.89653 23.9793 6.89666C24.5941 6.89692 25.1837 7.20627 25.6183 7.75666C26.0529 8.30705 26.2969 9.05339 26.2967 9.8315C26.2965 10.6096 26.0521 11.3557 25.6172 11.9058C25.1823 12.4558 24.5926 12.7646 23.9778 12.7644V12.7644Z" stroke="url(#paint0_linear_281_16)" stroke-width="2" stroke-miterlimit="10" stroke-linecap="round" stroke-linejoin="round"/>
<path d="M3.1215 17.6525L16.2532 1.03284H14.3221C13.6856 1.03284 12.7942 1.50014 12.3446 2.06912L0.852028 16.6143C0.635328 16.8898 0.513672 17.2628 0.513672 17.6516C0.513672 18.0403 0.635328 18.4133 0.852028 18.6888L10.7997 31.2787C11.0174 31.553 11.3121 31.707 11.6193 31.707C11.9264 31.707 12.2211 31.553 12.4388 31.2787L13.1649 30.3598L3.12304 17.6506L3.1215 17.6525Z" fill="url(#paint1_linear_281_16)"/>
<defs>
<linearGradient id="paint0_linear_281_16" x1="18.8116" y1="1.03284" x2="18.8116" y2="31.707" gradientUnits="userSpaceOnUse">
<stop stop-color="#AE9D6F"/>
<stop offset="0.546875" stop-color="#E7CF8E"/>
<stop offset="1" stop-color="#B4A374"/>
</linearGradient>
<linearGradient id="paint1_linear_281_16" x1="8.38344" y1="1.03284" x2="8.38344" y2="31.707" gradientUnits="userSpaceOnUse">
<stop stop-color="#AE9D6F"/>
<stop offset="0.546875" stop-color="#E7CF8E"/>
<stop offset="1" stop-color="#B4A374"/>
</linearGradient>
</defs>
</svg>
