<svg width="41" height="56" viewBox="0 0 41 56" fill="none" xmlns="http://www.w3.org/2000/svg">
<path d="M14.1767 12.6955C11.298 12.6955 9.08887 10.7436 9.08887 8.48994V5.18625C9.08887 2.93263 11.298 0.980713 14.1767 0.980713C17.0554 0.980713 19.2645 2.93263 19.2645 5.18625V8.59319C19.2645 10.7344 17.0665 12.6955 14.1767 12.6955Z" stroke="#891C60" stroke-width="1.5"/>
<mask id="path-2-inside-1_111_142" fill="white">
<path d="M40.4455 16.1301C40.4455 16.1301 39.5941 22.7375 32.6617 22.7375C25.7293 22.7375 21.7158 22.7375 21.7158 22.7375V55.7744H6.87793V25.7315"/>
</mask>
<path d="M21.7158 22.7375V21.2375H20.2158V22.7375H21.7158ZM21.7158 55.7744V57.2744H23.2158V55.7744H21.7158ZM6.87793 55.7744H5.37793V57.2744H6.87793V55.7744ZM40.4455 16.1301C38.9578 15.9384 38.9579 15.9377 38.958 15.937C38.958 15.9368 38.9581 15.9361 38.9581 15.9357C38.9582 15.9349 38.9583 15.9342 38.9584 15.9336C38.9586 15.9324 38.9587 15.9315 38.9588 15.9311C38.9589 15.9301 38.9588 15.9307 38.9585 15.9327C38.9579 15.9368 38.9565 15.9466 38.954 15.9618C38.949 15.9923 38.9399 16.0443 38.9256 16.1145C38.8969 16.2554 38.8476 16.4675 38.7689 16.7266C38.61 17.2498 38.3396 17.9369 37.8976 18.6133C37.0502 19.9101 35.5444 21.2375 32.6617 21.2375V24.2375C36.7114 24.2375 39.0975 22.2613 40.4089 20.2543C41.0463 19.2789 41.4221 18.3141 41.6394 17.5984C41.7488 17.2382 41.8202 16.934 41.8652 16.7136C41.8877 16.6031 41.9037 16.5131 41.9145 16.4468C41.9199 16.4137 41.9241 16.3864 41.9272 16.3655C41.9287 16.355 41.9299 16.3461 41.9309 16.3388C41.9314 16.3351 41.9319 16.3319 41.9322 16.3291C41.9324 16.3276 41.9326 16.3263 41.9328 16.3251C41.9328 16.3245 41.933 16.3237 41.933 16.3234C41.9331 16.3226 41.9332 16.3218 40.4455 16.1301ZM32.6617 21.2375C32.6482 21.2375 32.6346 21.2375 32.6211 21.2375C32.6076 21.2375 32.5941 21.2375 32.5806 21.2375C32.5671 21.2375 32.5536 21.2375 32.5402 21.2375C32.5267 21.2375 32.5132 21.2375 32.4998 21.2375C32.4863 21.2375 32.4729 21.2375 32.4594 21.2375C32.446 21.2375 32.4326 21.2375 32.4192 21.2375C32.4058 21.2375 32.3924 21.2375 32.379 21.2375C32.3656 21.2375 32.3523 21.2375 32.3389 21.2375C32.3255 21.2375 32.3122 21.2375 32.2988 21.2375C32.2855 21.2375 32.2722 21.2375 32.2589 21.2375C32.2455 21.2375 32.2322 21.2375 32.2189 21.2375C32.2057 21.2375 32.1924 21.2375 32.1791 21.2375C32.1658 21.2375 32.1526 21.2375 32.1393 21.2375C32.1261 21.2375 32.1128 21.2375 32.0996 21.2375C32.0864 21.2375 32.0732 21.2375 32.06 21.2375C32.0468 21.2375 32.0336 21.2375 32.0204 21.2375C32.0072 21.2375 31.994 21.2375 31.9809 21.2375C31.9677 21.2375 31.9546 21.2375 31.9414 21.2375C31.9283 21.2375 31.9152 21.2375 31.9021 21.2375C31.8889 21.2375 31.8758 21.2375 31.8627 21.2375C31.8497 21.2375 31.8366 21.2375 31.8235 21.2375C31.8104 21.2375 31.7974 21.2375 31.7843 21.2375C31.7713 21.2375 31.7582 21.2375 31.7452 21.2375C31.7322 21.2375 31.7192 21.2375 31.7062 21.2375C31.6932 21.2375 31.6802 21.2375 31.6672 21.2375C31.6542 21.2375 31.6413 21.2375 31.6283 21.2375C31.6154 21.2375 31.6024 21.2375 31.5895 21.2375C31.5766 21.2375 31.5636 21.2375 31.5507 21.2375C31.5378 21.2375 31.5249 21.2375 31.512 21.2375C31.4991 21.2375 31.4863 21.2375 31.4734 21.2375C31.4605 21.2375 31.4477 21.2375 31.4348 21.2375C31.422 21.2375 31.4092 21.2375 31.3964 21.2375C31.3835 21.2375 31.3707 21.2375 31.3579 21.2375C31.3451 21.2375 31.3323 21.2375 31.3196 21.2375C31.3068 21.2375 31.294 21.2375 31.2813 21.2375C31.2685 21.2375 31.2558 21.2375 31.2431 21.2375C31.2303 21.2375 31.2176 21.2375 31.2049 21.2375C31.1922 21.2375 31.1795 21.2375 31.1668 21.2375C31.1542 21.2375 31.1415 21.2375 31.1288 21.2375C31.1162 21.2375 31.1035 21.2375 31.0909 21.2375C31.0783 21.2375 31.0656 21.2375 31.053 21.2375C31.0404 21.2375 31.0278 21.2375 31.0152 21.2375C31.0026 21.2375 30.99 21.2375 30.9775 21.2375C30.9649 21.2375 30.9524 21.2375 30.9398 21.2375C30.9273 21.2375 30.9147 21.2375 30.9022 21.2375C30.8897 21.2375 30.8772 21.2375 30.8647 21.2375C30.8522 21.2375 30.8397 21.2375 30.8272 21.2375C30.8147 21.2375 30.8023 21.2375 30.7898 21.2375C30.7774 21.2375 30.7649 21.2375 30.7525 21.2375C30.7401 21.2375 30.7277 21.2375 30.7153 21.2375C30.7028 21.2375 30.6905 21.2375 30.6781 21.2375C30.6657 21.2375 30.6533 21.2375 30.641 21.2375C30.6286 21.2375 30.6162 21.2375 30.6039 21.2375C30.5916 21.2375 30.5793 21.2375 30.5669 21.2375C30.5546 21.2375 30.5423 21.2375 30.53 21.2375C30.5177 21.2375 30.5055 21.2375 30.4932 21.2375C30.4809 21.2375 30.4687 21.2375 30.4564 21.2375C30.4442 21.2375 30.4319 21.2375 30.4197 21.2375C30.4075 21.2375 30.3953 21.2375 30.3831 21.2375C30.3709 21.2375 30.3587 21.2375 30.3465 21.2375C30.3344 21.2375 30.3222 21.2375 30.3101 21.2375C30.2979 21.2375 30.2858 21.2375 30.2736 21.2375C30.2615 21.2375 30.2494 21.2375 30.2373 21.2375C30.2252 21.2375 30.2131 21.2375 30.201 21.2375C30.1889 21.2375 30.1769 21.2375 30.1648 21.2375C30.1527 21.2375 30.1407 21.2375 30.1287 21.2375C30.1166 21.2375 30.1046 21.2375 30.0926 21.2375C30.0806 21.2375 30.0686 21.2375 30.0566 21.2375C30.0446 21.2375 30.0326 21.2375 30.0207 21.2375C30.0087 21.2375 29.9967 21.2375 29.9848 21.2375C29.9729 21.2375 29.9609 21.2375 29.949 21.2375C29.9371 21.2375 29.9252 21.2375 29.9133 21.2375C29.9014 21.2375 29.8895 21.2375 29.8777 21.2375C29.8658 21.2375 29.8539 21.2375 29.8421 21.2375C29.8302 21.2375 29.8184 21.2375 29.8066 21.2375C29.7947 21.2375 29.7829 21.2375 29.7711 21.2375C29.7593 21.2375 29.7475 21.2375 29.7358 21.2375C29.724 21.2375 29.7122 21.2375 29.7005 21.2375C29.6887 21.2375 29.677 21.2375 29.6652 21.2375C29.6535 21.2375 29.6418 21.2375 29.6301 21.2375C29.6184 21.2375 29.6067 21.2375 29.595 21.2375C29.5833 21.2375 29.5717 21.2375 29.56 21.2375C29.5483 21.2375 29.5367 21.2375 29.5251 21.2375C29.5134 21.2375 29.5018 21.2375 29.4902 21.2375C29.4786 21.2375 29.467 21.2375 29.4554 21.2375C29.4438 21.2375 29.4322 21.2375 29.4207 21.2375C29.4091 21.2375 29.3975 21.2375 29.386 21.2375C29.3745 21.2375 29.3629 21.2375 29.3514 21.2375C29.3399 21.2375 29.3284 21.2375 29.3169 21.2375C29.3054 21.2375 29.2939 21.2375 29.2825 21.2375C29.271 21.2375 29.2595 21.2375 29.2481 21.2375C29.2366 21.2375 29.2252 21.2375 29.2138 21.2375C29.2024 21.2375 29.1909 21.2375 29.1796 21.2375C29.1682 21.2375 29.1568 21.2375 29.1454 21.2375C29.134 21.2375 29.1227 21.2375 29.1113 21.2375C29.1 21.2375 29.0886 21.2375 29.0773 21.2375C29.066 21.2375 29.0546 21.2375 29.0433 21.2375C29.032 21.2375 29.0207 21.2375 29.0095 21.2375C28.9982 21.2375 28.9869 21.2375 28.9757 21.2375C28.9644 21.2375 28.9532 21.2375 28.9419 21.2375C28.9307 21.2375 28.9195 21.2375 28.9083 21.2375C28.8971 21.2375 28.8859 21.2375 28.8747 21.2375C28.8635 21.2375 28.8523 21.2375 28.8412 21.2375C28.83 21.2375 28.8189 21.2375 28.8077 21.2375C28.7966 21.2375 28.7855 21.2375 28.7744 21.2375C28.7633 21.2375 28.7522 21.2375 28.7411 21.2375C28.73 21.2375 28.7189 21.2375 28.7078 21.2375C28.6968 21.2375 28.6857 21.2375 28.6747 21.2375C28.6636 21.2375 28.6526 21.2375 28.6416 21.2375C28.6306 21.2375 28.6196 21.2375 28.6086 21.2375C28.5976 21.2375 28.5866 21.2375 28.5756 21.2375C28.5647 21.2375 28.5537 21.2375 28.5428 21.2375C28.5318 21.2375 28.5209 21.2375 28.51 21.2375C28.4991 21.2375 28.4882 21.2375 28.4773 21.2375C28.4664 21.2375 28.4555 21.2375 28.4446 21.2375C28.4337 21.2375 28.4229 21.2375 28.412 21.2375C28.4012 21.2375 28.3904 21.2375 28.3795 21.2375C28.3687 21.2375 28.3579 21.2375 28.3471 21.2375C28.3363 21.2375 28.3255 21.2375 28.3147 21.2375C28.304 21.2375 28.2932 21.2375 28.2825 21.2375C28.2717 21.2375 28.261 21.2375 28.2502 21.2375C28.2395 21.2375 28.2288 21.2375 28.2181 21.2375C28.2074 21.2375 28.1967 21.2375 28.186 21.2375C28.1754 21.2375 28.1647 21.2375 28.154 21.2375C28.1434 21.2375 28.1327 21.2375 28.1221 21.2375C28.1115 21.2375 28.1009 21.2375 28.0903 21.2375C28.0797 21.2375 28.0691 21.2375 28.0585 21.2375C28.0479 21.2375 28.0373 21.2375 28.0268 21.2375C28.0162 21.2375 28.0057 21.2375 27.9952 21.2375C27.9846 21.2375 27.9741 21.2375 27.9636 21.2375C27.9531 21.2375 27.9426 21.2375 27.9321 21.2375C27.9216 21.2375 27.9112 21.2375 27.9007 21.2375C27.8902 21.2375 27.8798 21.2375 27.8694 21.2375C27.8589 21.2375 27.8485 21.2375 27.8381 21.2375C27.8277 21.2375 27.8173 21.2375 27.8069 21.2375C27.7965 21.2375 27.7861 21.2375 27.7758 21.2375C27.7654 21.2375 27.7551 21.2375 27.7447 21.2375C27.7344 21.2375 27.7241 21.2375 27.7138 21.2375C27.7035 21.2375 27.6932 21.2375 27.6829 21.2375C27.6726 21.2375 27.6623 21.2375 27.6521 21.2375C27.6418 21.2375 27.6315 21.2375 27.6213 21.2375C27.6111 21.2375 27.6008 21.2375 27.5906 21.2375C27.5804 21.2375 27.5702 21.2375 27.56 21.2375C27.5498 21.2375 27.5397 21.2375 27.5295 21.2375C27.5193 21.2375 27.5092 21.2375 27.499 21.2375C27.4889 21.2375 27.4788 21.2375 27.4687 21.2375C27.4585 21.2375 27.4484 21.2375 27.4384 21.2375C27.4283 21.2375 27.4182 21.2375 27.4081 21.2375C27.3981 21.2375 27.388 21.2375 27.378 21.2375C27.3679 21.2375 27.3579 21.2375 27.3479 21.2375C27.3379 21.2375 27.3279 21.2375 27.3179 21.2375C27.3079 21.2375 27.2979 21.2375 27.2879 21.2375C27.278 21.2375 27.268 21.2375 27.2581 21.2375C27.2481 21.2375 27.2382 21.2375 27.2283 21.2375C27.2184 21.2375 27.2085 21.2375 27.1986 21.2375C27.1887 21.2375 27.1788 21.2375 27.1689 21.2375C27.1591 21.2375 27.1492 21.2375 27.1394 21.2375C27.1295 21.2375 27.1197 21.2375 27.1099 21.2375C27.1 21.2375 27.0902 21.2375 27.0805 21.2375C27.0707 21.2375 27.0609 21.2375 27.0511 21.2375C27.0413 21.2375 27.0316 21.2375 27.0218 21.2375C27.0121 21.2375 27.0024 21.2375 26.9927 21.2375C26.9829 21.2375 26.9732 21.2375 26.9635 21.2375C26.9538 21.2375 26.9442 21.2375 26.9345 21.2375C26.9248 21.2375 26.9152 21.2375 26.9055 21.2375C26.8959 21.2375 26.8863 21.2375 26.8766 21.2375C26.867 21.2375 26.8574 21.2375 26.8478 21.2375C26.8382 21.2375 26.8286 21.2375 26.8191 21.2375C26.8095 21.2375 26.7999 21.2375 26.7904 21.2375C26.7809 21.2375 26.7713 21.2375 26.7618 21.2375C26.7523 21.2375 26.7428 21.2375 26.7333 21.2375C26.7238 21.2375 26.7143 21.2375 26.7049 21.2375C26.6954 21.2375 26.6859 21.2375 26.6765 21.2375C26.667 21.2375 26.6576 21.2375 26.6482 21.2375C26.6388 21.2375 26.6294 21.2375 26.62 21.2375C26.6106 21.2375 26.6012 21.2375 26.5918 21.2375C26.5825 21.2375 26.5731 21.2375 26.5638 21.2375C26.5544 21.2375 26.5451 21.2375 26.5358 21.2375C26.5265 21.2375 26.5172 21.2375 26.5079 21.2375C26.4986 21.2375 26.4893 21.2375 26.48 21.2375C26.4708 21.2375 26.4615 21.2375 26.4523 21.2375C26.443 21.2375 26.4338 21.2375 26.4246 21.2375C26.4154 21.2375 26.4062 21.2375 26.397 21.2375C26.3878 21.2375 26.3786 21.2375 26.3694 21.2375C26.3603 21.2375 26.3511 21.2375 26.342 21.2375C26.3328 21.2375 26.3237 21.2375 26.3146 21.2375C26.3055 21.2375 26.2964 21.2375 26.2873 21.2375C26.2782 21.2375 26.2691 21.2375 26.26 21.2375C26.251 21.2375 26.2419 21.2375 26.2329 21.2375C26.2238 21.2375 26.2148 21.2375 26.2058 21.2375C26.1968 21.2375 26.1878 21.2375 26.1788 21.2375C26.1698 21.2375 26.1608 21.2375 26.1519 21.2375C26.1429 21.2375 26.134 21.2375 26.125 21.2375C26.1161 21.2375 26.1071 21.2375 26.0982 21.2375C26.0893 21.2375 26.0804 21.2375 26.0715 21.2375C26.0626 21.2375 26.0538 21.2375 26.0449 21.2375C26.0361 21.2375 26.0272 21.2375 26.0184 21.2375C26.0095 21.2375 26.0007 21.2375 25.9919 21.2375C25.9831 21.2375 25.9743 21.2375 25.9655 21.2375C25.9567 21.2375 25.9479 21.2375 25.9392 21.2375C25.9304 21.2375 25.9217 21.2375 25.9129 21.2375C25.9042 21.2375 25.8955 21.2375 25.8868 21.2375C25.8781 21.2375 25.8694 21.2375 25.8607 21.2375C25.852 21.2375 25.8433 21.2375 25.8347 21.2375C25.826 21.2375 25.8174 21.2375 25.8087 21.2375C25.8001 21.2375 25.7915 21.2375 25.7829 21.2375C25.7743 21.2375 25.7657 21.2375 25.7571 21.2375C25.7485 21.2375 25.74 21.2375 25.7314 21.2375C25.7228 21.2375 25.7143 21.2375 25.7058 21.2375C25.6972 21.2375 25.6887 21.2375 25.6802 21.2375C25.6717 21.2375 25.6632 21.2375 25.6548 21.2375C25.6463 21.2375 25.6378 21.2375 25.6294 21.2375C25.6209 21.2375 25.6125 21.2375 25.604 21.2375C25.5956 21.2375 25.5872 21.2375 25.5788 21.2375C25.5704 21.2375 25.562 21.2375 25.5536 21.2375C25.5453 21.2375 25.5369 21.2375 25.5286 21.2375C25.5202 21.2375 25.5119 21.2375 25.5035 21.2375C25.4952 21.2375 25.4869 21.2375 25.4786 21.2375C25.4703 21.2375 25.462 21.2375 25.4538 21.2375C25.4455 21.2375 25.4372 21.2375 25.429 21.2375C25.4207 21.2375 25.4125 21.2375 25.4043 21.2375C25.3961 21.2375 25.3879 21.2375 25.3797 21.2375C25.3715 21.2375 25.3633 21.2375 25.3551 21.2375C25.347 21.2375 25.3388 21.2375 25.3307 21.2375C25.3225 21.2375 25.3144 21.2375 25.3063 21.2375C25.2981 21.2375 25.29 21.2375 25.282 21.2375C25.2739 21.2375 25.2658 21.2375 25.2577 21.2375C25.2497 21.2375 25.2416 21.2375 25.2336 21.2375C25.2255 21.2375 25.2175 21.2375 25.2095 21.2375C25.2015 21.2375 25.1935 21.2375 25.1855 21.2375C25.1775 21.2375 25.1695 21.2375 25.1616 21.2375C25.1536 21.2375 25.1457 21.2375 25.1377 21.2375C25.1298 21.2375 25.1219 21.2375 25.114 21.2375C25.1061 21.2375 25.0982 21.2375 25.0903 21.2375C25.0824 21.2375 25.0745 21.2375 25.0667 21.2375C25.0588 21.2375 25.051 21.2375 25.0431 21.2375C25.0353 21.2375 25.0275 21.2375 25.0197 21.2375C25.0119 21.2375 25.0041 21.2375 24.9963 21.2375C24.9885 21.2375 24.9808 21.2375 24.973 21.2375C24.9653 21.2375 24.9575 21.2375 24.9498 21.2375C24.9421 21.2375 24.9344 21.2375 24.9267 21.2375C24.919 21.2375 24.9113 21.2375 24.9036 21.2375C24.8959 21.2375 24.8883 21.2375 24.8806 21.2375C24.873 21.2375 24.8654 21.2375 24.8577 21.2375C24.8501 21.2375 24.8425 21.2375 24.8349 21.2375C24.8273 21.2375 24.8197 21.2375 24.8122 21.2375C24.8046 21.2375 24.797 21.2375 24.7895 21.2375C24.782 21.2375 24.7744 21.2375 24.7669 21.2375C24.7594 21.2375 24.7519 21.2375 24.7444 21.2375C24.7369 21.2375 24.7294 21.2375 24.722 21.2375C24.7145 21.2375 24.7071 21.2375 24.6996 21.2375C24.6922 21.2375 24.6848 21.2375 24.6774 21.2375C24.67 21.2375 24.6626 21.2375 24.6552 21.2375C24.6478 21.2375 24.6404 21.2375 24.6331 21.2375C24.6257 21.2375 24.6184 21.2375 24.611 21.2375C24.6037 21.2375 24.5964 21.2375 24.5891 21.2375C24.5818 21.2375 24.5745 21.2375 24.5672 21.2375C24.5599 21.2375 24.5527 21.2375 24.5454 21.2375C24.5382 21.2375 24.5309 21.2375 24.5237 21.2375C24.5165 21.2375 24.5093 21.2375 24.5021 21.2375C24.4949 21.2375 24.4877 21.2375 24.4805 21.2375C24.4733 21.2375 24.4662 21.2375 24.459 21.2375C24.4519 21.2375 24.4447 21.2375 24.4376 21.2375C24.4305 21.2375 24.4234 21.2375 24.4163 21.2375C24.4092 21.2375 24.4021 21.2375 24.3951 21.2375C24.388 21.2375 24.381 21.2375 24.3739 21.2375C24.3669 21.2375 24.3599 21.2375 24.3528 21.2375C24.3458 21.2375 24.3388 21.2375 24.3318 21.2375C24.3249 21.2375 24.3179 21.2375 24.3109 21.2375C24.304 21.2375 24.297 21.2375 24.2901 21.2375C24.2832 21.2375 24.2762 21.2375 24.2693 21.2375C24.2624 21.2375 24.2555 21.2375 24.2487 21.2375C24.2418 21.2375 24.2349 21.2375 24.2281 21.2375C24.2212 21.2375 24.2144 21.2375 24.2075 21.2375C24.2007 21.2375 24.1939 21.2375 24.1871 21.2375C24.1803 21.2375 24.1735 21.2375 24.1667 21.2375C24.16 21.2375 24.1532 21.2375 24.1465 21.2375C24.1397 21.2375 24.133 21.2375 24.1263 21.2375C24.1196 21.2375 24.1128 21.2375 24.1062 21.2375C24.0995 21.2375 24.0928 21.2375 24.0861 21.2375C24.0795 21.2375 24.0728 21.2375 24.0662 21.2375C24.0595 21.2375 24.0529 21.2375 24.0463 21.2375C24.0397 21.2375 24.0331 21.2375 24.0265 21.2375C24.0199 21.2375 24.0133 21.2375 24.0068 21.2375C24.0002 21.2375 23.9937 21.2375 23.9872 21.2375C23.9806 21.2375 23.9741 21.2375 23.9676 21.2375C23.9611 21.2375 23.9546 21.2375 23.9481 21.2375C23.9417 21.2375 23.9352 21.2375 23.9287 21.2375C23.9223 21.2375 23.9159 21.2375 23.9094 21.2375C23.903 21.2375 23.8966 21.2375 23.8902 21.2375C23.8838 21.2375 23.8774 21.2375 23.8711 21.2375C23.8647 21.2375 23.8583 21.2375 23.852 21.2375C23.8456 21.2375 23.8393 21.2375 23.833 21.2375C23.8267 21.2375 23.8204 21.2375 23.8141 21.2375C23.8078 21.2375 23.8015 21.2375 23.7953 21.2375C23.789 21.2375 23.7828 21.2375 23.7765 21.2375C23.7703 21.2375 23.7641 21.2375 23.7579 21.2375C23.7517 21.2375 23.7455 21.2375 23.7393 21.2375C23.7331 21.2375 23.727 21.2375 23.7208 21.2375C23.7146 21.2375 23.7085 21.2375 23.7024 21.2375C23.6963 21.2375 23.6901 21.2375 23.684 21.2375C23.6779 21.2375 23.6719 21.2375 23.6658 21.2375C23.6597 21.2375 23.6537 21.2375 23.6476 21.2375C23.6416 21.2375 23.6356 21.2375 23.6295 21.2375C23.6235 21.2375 23.6175 21.2375 23.6115 21.2375C23.6055 21.2375 23.5996 21.2375 23.5936 21.2375C23.5876 21.2375 23.5817 21.2375 23.5758 21.2375C23.5698 21.2375 23.5639 21.2375 23.558 21.2375C23.5521 21.2375 23.5462 21.2375 23.5403 21.2375C23.5344 21.2375 23.5286 21.2375 23.5227 21.2375C23.5169 21.2375 23.511 21.2375 23.5052 21.2375C23.4994 21.2375 23.4936 21.2375 23.4878 21.2375C23.482 21.2375 23.4762 21.2375 23.4704 21.2375C23.4646 21.2375 23.4589 21.2375 23.4531 21.2375C23.4474 21.2375 23.4417 21.2375 23.436 21.2375C23.4302 21.2375 23.4245 21.2375 23.4188 21.2375C23.4132 21.2375 23.4075 21.2375 23.4018 21.2375C23.3962 21.2375 23.3905 21.2375 23.3849 21.2375C23.3792 21.2375 23.3736 21.2375 23.368 21.2375C23.3624 21.2375 23.3568 21.2375 23.3512 21.2375C23.3457 21.2375 23.3401 21.2375 23.3345 21.2375C23.329 21.2375 23.3235 21.2375 23.3179 21.2375C23.3124 21.2375 23.3069 21.2375 23.3014 21.2375C23.2959 21.2375 23.2904 21.2375 23.285 21.2375C23.2795 21.2375 23.274 21.2375 23.2686 21.2375C23.2632 21.2375 23.2577 21.2375 23.2523 21.2375C23.2469 21.2375 23.2415 21.2375 23.2361 21.2375C23.2307 21.2375 23.2254 21.2375 23.22 21.2375C23.2146 21.2375 23.2093 21.2375 23.204 21.2375C23.1986 21.2375 23.1933 21.2375 23.188 21.2375C23.1827 21.2375 23.1774 21.2375 23.1722 21.2375C23.1669 21.2375 23.1616 21.2375 23.1564 21.2375C23.1511 21.2375 23.1459 21.2375 23.1407 21.2375C23.1354 21.2375 23.1302 21.2375 23.125 21.2375C23.1199 21.2375 23.1147 21.2375 23.1095 21.2375C23.1043 21.2375 23.0992 21.2375 23.0941 21.2375C23.0889 21.2375 23.0838 21.2375 23.0787 21.2375C23.0736 21.2375 23.0685 21.2375 23.0634 21.2375C23.0583 21.2375 23.0533 21.2375 23.0482 21.2375C23.0432 21.2375 23.0381 21.2375 23.0331 21.2375C23.0281 21.2375 23.0231 21.2375 23.0181 21.2375C23.0131 21.2375 23.0081 21.2375 23.0031 21.2375C22.9981 21.2375 22.9932 21.2375 22.9882 21.2375C22.9833 21.2375 22.9784 21.2375 22.9735 21.2375C22.9685 21.2375 22.9636 21.2375 22.9588 21.2375C22.9539 21.2375 22.949 21.2375 22.9441 21.2375C22.9393 21.2375 22.9344 21.2375 22.9296 21.2375C22.9248 21.2375 22.92 21.2375 22.9152 21.2375C22.9103 21.2375 22.9056 21.2375 22.9008 21.2375C22.896 21.2375 22.8913 21.2375 22.8865 21.2375C22.8818 21.2375 22.877 21.2375 22.8723 21.2375C22.8676 21.2375 22.8629 21.2375 22.8582 21.2375C22.8535 21.2375 22.8488 21.2375 22.8442 21.2375C22.8395 21.2375 22.8349 21.2375 22.8302 21.2375C22.8256 21.2375 22.821 21.2375 22.8164 21.2375C22.8118 21.2375 22.8072 21.2375 22.8026 21.2375C22.798 21.2375 22.7934 21.2375 22.7889 21.2375C22.7843 21.2375 22.7798 21.2375 22.7753 21.2375C22.7708 21.2375 22.7662 21.2375 22.7618 21.2375C22.7573 21.2375 22.7528 21.2375 22.7483 21.2375C22.7438 21.2375 22.7394 21.2375 22.735 21.2375C22.7305 21.2375 22.7261 21.2375 22.7217 21.2375C22.7173 21.2375 22.7129 21.2375 22.7085 21.2375C22.7041 21.2375 22.6998 21.2375 22.6954 21.2375C22.691 21.2375 22.6867 21.2375 22.6824 21.2375C22.6781 21.2375 22.6737 21.2375 22.6694 21.2375C22.6652 21.2375 22.6609 21.2375 22.6566 21.2375C22.6523 21.2375 22.6481 21.2375 22.6438 21.2375C22.6396 21.2375 22.6354 21.2375 22.6312 21.2375C22.6269 21.2375 22.6228 21.2375 22.6186 21.2375C22.6144 21.2375 22.6102 21.2375 22.6061 21.2375C22.6019 21.2375 22.5978 21.2375 22.5936 21.2375C22.5895 21.2375 22.5854 21.2375 22.5813 21.2375C22.5772 21.2375 22.5731 21.2375 22.569 21.2375C22.565 21.2375 22.5609 21.2375 22.5569 21.2375C22.5528 21.2375 22.5488 21.2375 22.5448 21.2375C22.5408 21.2375 22.5368 21.2375 22.5328 21.2375C22.5288 21.2375 22.5248 21.2375 22.5209 21.2375C22.5169 21.2375 22.513 21.2375 22.5091 21.2375C22.5051 21.2375 22.5012 21.2375 22.4973 21.2375C22.4934 21.2375 22.4895 21.2375 22.4857 21.2375C22.4818 21.2375 22.4779 21.2375 22.4741 21.2375C22.4702 21.2375 22.4664 21.2375 22.4626 21.2375C22.4588 21.2375 22.455 21.2375 22.4512 21.2375C22.4474 21.2375 22.4436 21.2375 22.4399 21.2375C22.4361 21.2375 22.4324 21.2375 22.4287 21.2375C22.4249 21.2375 22.4212 21.2375 22.4175 21.2375C22.4138 21.2375 22.4101 21.2375 22.4065 21.2375C22.4028 21.2375 22.3991 21.2375 22.3955 21.2375C22.3918 21.2375 22.3882 21.2375 22.3846 21.2375C22.381 21.2375 22.3774 21.2375 22.3738 21.2375C22.3702 21.2375 22.3666 21.2375 22.3631 21.2375C22.3595 21.2375 22.356 21.2375 22.3525 21.2375C22.3489 21.2375 22.3454 21.2375 22.3419 21.2375C22.3384 21.2375 22.3349 21.2375 22.3315 21.2375C22.328 21.2375 22.3245 21.2375 22.3211 21.2375C22.3176 21.2375 22.3142 21.2375 22.3108 21.2375C22.3074 21.2375 22.304 21.2375 22.3006 21.2375C22.2972 21.2375 22.2938 21.2375 22.2905 21.2375C22.2871 21.2375 22.2838 21.2375 22.2805 21.2375C22.2771 21.2375 22.2738 21.2375 22.2705 21.2375C22.2672 21.2375 22.2639 21.2375 22.2607 21.2375C22.2574 21.2375 22.2542 21.2375 22.2509 21.2375C22.2477 21.2375 22.2444 21.2375 22.2412 21.2375C22.238 21.2375 22.2348 21.2375 22.2316 21.2375C22.2285 21.2375 22.2253 21.2375 22.2221 21.2375C22.219 21.2375 22.2158 21.2375 22.2127 21.2375C22.2096 21.2375 22.2065 21.2375 22.2034 21.2375C22.2003 21.2375 22.1972 21.2375 22.1941 21.2375C22.1911 21.2375 22.188 21.2375 22.185 21.2375C22.1819 21.2375 22.1789 21.2375 22.1759 21.2375C22.1729 21.2375 22.1699 21.2375 22.1669 21.2375C22.1639 21.2375 22.161 21.2375 22.158 21.2375C22.1551 21.2375 22.1521 21.2375 22.1492 21.2375C22.1463 21.2375 22.1434 21.2375 22.1405 21.2375C22.1376 21.2375 22.1347 21.2375 22.1318 21.2375C22.129 21.2375 22.1261 21.2375 22.1233 21.2375C22.1205 21.2375 22.1176 21.2375 22.1148 21.2375C22.112 21.2375 22.1092 21.2375 22.1065 21.2375C22.1037 21.2375 22.1009 21.2375 22.0982 21.2375C22.0954 21.2375 22.0927 21.2375 22.09 21.2375C22.0873 21.2375 22.0845 21.2375 22.0819 21.2375C22.0792 21.2375 22.0765 21.2375 22.0738 21.2375C22.0712 21.2375 22.0685 21.2375 22.0659 21.2375C22.0633 21.2375 22.0606 21.2375 22.058 21.2375C22.0554 21.2375 22.0529 21.2375 22.0503 21.2375C22.0477 21.2375 22.0452 21.2375 22.0426 21.2375C22.0401 21.2375 22.0375 21.2375 22.035 21.2375C22.0325 21.2375 22.03 21.2375 22.0275 21.2375C22.025 21.2375 22.0226 21.2375 22.0201 21.2375C22.0177 21.2375 22.0152 21.2375 22.0128 21.2375C22.0104 21.2375 22.0079 21.2375 22.0055 21.2375C22.0031 21.2375 22.0008 21.2375 21.9984 21.2375C21.996 21.2375 21.9937 21.2375 21.9913 21.2375C21.989 21.2375 21.9867 21.2375 21.9844 21.2375C21.9821 21.2375 21.9798 21.2375 21.9775 21.2375C21.9752 21.2375 21.9729 21.2375 21.9707 21.2375C21.9684 21.2375 21.9662 21.2375 21.964 21.2375C21.9618 21.2375 21.9595 21.2375 21.9574 21.2375C21.9552 21.2375 21.953 21.2375 21.9508 21.2375C21.9487 21.2375 21.9465 21.2375 21.9444 21.2375C21.9423 21.2375 21.9401 21.2375 21.938 21.2375C21.9359 21.2375 21.9338 21.2375 21.9318 21.2375C21.9297 21.2375 21.9276 21.2375 21.9256 21.2375C21.9235 21.2375 21.9215 21.2375 21.9195 21.2375C21.9175 21.2375 21.9155 21.2375 21.9135 21.2375C21.9115 21.2375 21.9095 21.2375 21.9076 21.2375C21.9056 21.2375 21.9037 21.2375 21.9018 21.2375C21.8998 21.2375 21.8979 21.2375 21.896 21.2375C21.8941 21.2375 21.8922 21.2375 21.8904 21.2375C21.8885 21.2375 21.8867 21.2375 21.8848 21.2375C21.883 21.2375 21.8812 21.2375 21.8794 21.2375C21.8775 21.2375 21.8758 21.2375 21.874 21.2375C21.8722 21.2375 21.8704 21.2375 21.8687 21.2375C21.8669 21.2375 21.8652 21.2375 21.8635 21.2375C21.8618 21.2375 21.8601 21.2375 21.8584 21.2375C21.8567 21.2375 21.855 21.2375 21.8533 21.2375C21.8517 21.2375 21.85 21.2375 21.8484 21.2375C21.8468 21.2375 21.8452 21.2375 21.8436 21.2375C21.842 21.2375 21.8404 21.2375 21.8388 21.2375C21.8372 21.2375 21.8357 21.2375 21.8341 21.2375C21.8326 21.2375 21.8311 21.2375 21.8296 21.2375C21.8281 21.2375 21.8266 21.2375 21.8251 21.2375C21.8236 21.2375 21.8221 21.2375 21.8207 21.2375C21.8192 21.2375 21.8178 21.2375 21.8164 21.2375C21.815 21.2375 21.8136 21.2375 21.8122 21.2375C21.8108 21.2375 21.8094 21.2375 21.808 21.2375C21.8067 21.2375 21.8053 21.2375 21.804 21.2375C21.8027 21.2375 21.8013 21.2375 21.8 21.2375C21.7987 21.2375 21.7975 21.2375 21.7962 21.2375C21.7949 21.2375 21.7937 21.2375 21.7924 21.2375C21.7912 21.2375 21.7899 21.2375 21.7887 21.2375C21.7875 21.2375 21.7863 21.2375 21.7851 21.2375C21.784 21.2375 21.7828 21.2375 21.7816 21.2375C21.7805 21.2375 21.7794 21.2375 21.7782 21.2375C21.7771 21.2375 21.776 21.2375 21.7749 21.2375C21.7738 21.2375 21.7727 21.2375 21.7717 21.2375C21.7706 21.2375 21.7696 21.2375 21.7685 21.2375C21.7675 21.2375 21.7665 21.2375 21.7655 21.2375C21.7645 21.2375 21.7635 21.2375 21.7625 21.2375C21.7616 21.2375 21.7606 21.2375 21.7597 21.2375C21.7587 21.2375 21.7578 21.2375 21.7569 21.2375C21.756 21.2375 21.7551 21.2375 21.7542 21.2375C21.7533 21.2375 21.7524 21.2375 21.7516 21.2375C21.7507 21.2375 21.7499 21.2375 21.7491 21.2375C21.7483 21.2375 21.7475 21.2375 21.7467 21.2375C21.7459 21.2375 21.7451 21.2375 21.7443 21.2375C21.7436 21.2375 21.7428 21.2375 21.7421 21.2375C21.7414 21.2375 21.7407 21.2375 21.74 21.2375C21.7393 21.2375 21.7386 21.2375 21.7379 21.2375C21.7372 21.2375 21.7366 21.2375 21.7359 21.2375C21.7353 21.2375 21.7347 21.2375 21.7341 21.2375C21.7335 21.2375 21.7329 21.2375 21.7323 21.2375C21.7317 21.2375 21.7311 21.2375 21.7306 21.2375C21.7301 21.2375 21.7295 21.2375 21.729 21.2375C21.7285 21.2375 21.728 21.2375 21.7275 21.2375C21.727 21.2375 21.7265 21.2375 21.7261 21.2375C21.7256 21.2375 21.7252 21.2375 21.7247 21.2375C21.7243 21.2375 21.7239 21.2375 21.7235 21.2375C21.7231 21.2375 21.7227 21.2375 21.7224 21.2375C21.722 21.2375 21.7216 21.2375 21.7213 21.2375C21.721 21.2375 21.7207 21.2375 21.7203 21.2375C21.72 21.2375 21.7198 21.2375 21.7195 21.2375C21.7192 21.2375 21.7189 21.2375 21.7187 21.2375C21.7185 21.2375 21.7182 21.2375 21.718 21.2375C21.7178 21.2375 21.7176 21.2375 21.7174 21.2375C21.7172 21.2375 21.7171 21.2375 21.7169 21.2375C21.7168 21.2375 21.7166 21.2375 21.7165 21.2375C21.7164 21.2375 21.7163 21.2375 21.7162 21.2375C21.7161 21.2375 21.716 21.2375 21.7159 21.2375C21.7159 21.2375 21.7158 21.2375 21.7158 21.2375C21.7158 21.2375 21.7158 21.2375 21.7158 22.7375C21.7158 24.2375 21.7158 24.2375 21.7158 24.2375C21.7158 24.2375 21.7159 24.2375 21.7159 24.2375C21.716 24.2375 21.7161 24.2375 21.7162 24.2375C21.7163 24.2375 21.7164 24.2375 21.7165 24.2375C21.7166 24.2375 21.7168 24.2375 21.7169 24.2375C21.7171 24.2375 21.7172 24.2375 21.7174 24.2375C21.7176 24.2375 21.7178 24.2375 21.718 24.2375C21.7182 24.2375 21.7185 24.2375 21.7187 24.2375C21.7189 24.2375 21.7192 24.2375 21.7195 24.2375C21.7198 24.2375 21.72 24.2375 21.7203 24.2375C21.7207 24.2375 21.721 24.2375 21.7213 24.2375C21.7216 24.2375 21.722 24.2375 21.7224 24.2375C21.7227 24.2375 21.7231 24.2375 21.7235 24.2375C21.7239 24.2375 21.7243 24.2375 21.7247 24.2375C21.7252 24.2375 21.7256 24.2375 21.7261 24.2375C21.7265 24.2375 21.727 24.2375 21.7275 24.2375C21.728 24.2375 21.7285 24.2375 21.729 24.2375C21.7295 24.2375 21.7301 24.2375 21.7306 24.2375C21.7311 24.2375 21.7317 24.2375 21.7323 24.2375C21.7329 24.2375 21.7335 24.2375 21.7341 24.2375C21.7347 24.2375 21.7353 24.2375 21.7359 24.2375C21.7366 24.2375 21.7372 24.2375 21.7379 24.2375C21.7386 24.2375 21.7393 24.2375 21.74 24.2375C21.7407 24.2375 21.7414 24.2375 21.7421 24.2375C21.7428 24.2375 21.7436 24.2375 21.7443 24.2375C21.7451 24.2375 21.7459 24.2375 21.7467 24.2375C21.7475 24.2375 21.7483 24.2375 21.7491 24.2375C21.7499 24.2375 21.7507 24.2375 21.7516 24.2375C21.7524 24.2375 21.7533 24.2375 21.7542 24.2375C21.7551 24.2375 21.756 24.2375 21.7569 24.2375C21.7578 24.2375 21.7587 24.2375 21.7597 24.2375C21.7606 24.2375 21.7616 24.2375 21.7625 24.2375C21.7635 24.2375 21.7645 24.2375 21.7655 24.2375C21.7665 24.2375 21.7675 24.2375 21.7685 24.2375C21.7696 24.2375 21.7706 24.2375 21.7717 24.2375C21.7727 24.2375 21.7738 24.2375 21.7749 24.2375C21.776 24.2375 21.7771 24.2375 21.7782 24.2375C21.7794 24.2375 21.7805 24.2375 21.7816 24.2375C21.7828 24.2375 21.784 24.2375 21.7851 24.2375C21.7863 24.2375 21.7875 24.2375 21.7887 24.2375C21.7899 24.2375 21.7912 24.2375 21.7924 24.2375C21.7937 24.2375 21.7949 24.2375 21.7962 24.2375C21.7975 24.2375 21.7987 24.2375 21.8 24.2375C21.8013 24.2375 21.8027 24.2375 21.804 24.2375C21.8053 24.2375 21.8067 24.2375 21.808 24.2375C21.8094 24.2375 21.8108 24.2375 21.8122 24.2375C21.8136 24.2375 21.815 24.2375 21.8164 24.2375C21.8178 24.2375 21.8192 24.2375 21.8207 24.2375C21.8221 24.2375 21.8236 24.2375 21.8251 24.2375C21.8266 24.2375 21.8281 24.2375 21.8296 24.2375C21.8311 24.2375 21.8326 24.2375 21.8341 24.2375C21.8357 24.2375 21.8372 24.2375 21.8388 24.2375C21.8404 24.2375 21.842 24.2375 21.8436 24.2375C21.8452 24.2375 21.8468 24.2375 21.8484 24.2375C21.85 24.2375 21.8517 24.2375 21.8533 24.2375C21.855 24.2375 21.8567 24.2375 21.8584 24.2375C21.8601 24.2375 21.8618 24.2375 21.8635 24.2375C21.8652 24.2375 21.8669 24.2375 21.8687 24.2375C21.8704 24.2375 21.8722 24.2375 21.874 24.2375C21.8758 24.2375 21.8775 24.2375 21.8794 24.2375C21.8812 24.2375 21.883 24.2375 21.8848 24.2375C21.8867 24.2375 21.8885 24.2375 21.8904 24.2375C21.8922 24.2375 21.8941 24.2375 21.896 24.2375C21.8979 24.2375 21.8998 24.2375 21.9018 24.2375C21.9037 24.2375 21.9056 24.2375 21.9076 24.2375C21.9095 24.2375 21.9115 24.2375 21.9135 24.2375C21.9155 24.2375 21.9175 24.2375 21.9195 24.2375C21.9215 24.2375 21.9235 24.2375 21.9256 24.2375C21.9276 24.2375 21.9297 24.2375 21.9318 24.2375C21.9338 24.2375 21.9359 24.2375 21.938 24.2375C21.9401 24.2375 21.9423 24.2375 21.9444 24.2375C21.9465 24.2375 21.9487 24.2375 21.9508 24.2375C21.953 24.2375 21.9552 24.2375 21.9574 24.2375C21.9595 24.2375 21.9618 24.2375 21.964 24.2375C21.9662 24.2375 21.9684 24.2375 21.9707 24.2375C21.9729 24.2375 21.9752 24.2375 21.9775 24.2375C21.9798 24.2375 21.9821 24.2375 21.9844 24.2375C21.9867 24.2375 21.989 24.2375 21.9913 24.2375C21.9937 24.2375 21.996 24.2375 21.9984 24.2375C22.0008 24.2375 22.0031 24.2375 22.0055 24.2375C22.0079 24.2375 22.0104 24.2375 22.0128 24.2375C22.0152 24.2375 22.0177 24.2375 22.0201 24.2375C22.0226 24.2375 22.025 24.2375 22.0275 24.2375C22.03 24.2375 22.0325 24.2375 22.035 24.2375C22.0375 24.2375 22.0401 24.2375 22.0426 24.2375C22.0452 24.2375 22.0477 24.2375 22.0503 24.2375C22.0529 24.2375 22.0554 24.2375 22.058 24.2375C22.0606 24.2375 22.0633 24.2375 22.0659 24.2375C22.0685 24.2375 22.0712 24.2375 22.0738 24.2375C22.0765 24.2375 22.0792 24.2375 22.0819 24.2375C22.0845 24.2375 22.0873 24.2375 22.09 24.2375C22.0927 24.2375 22.0954 24.2375 22.0982 24.2375C22.1009 24.2375 22.1037 24.2375 22.1065 24.2375C22.1092 24.2375 22.112 24.2375 22.1148 24.2375C22.1176 24.2375 22.1205 24.2375 22.1233 24.2375C22.1261 24.2375 22.129 24.2375 22.1318 24.2375C22.1347 24.2375 22.1376 24.2375 22.1405 24.2375C22.1434 24.2375 22.1463 24.2375 22.1492 24.2375C22.1521 24.2375 22.1551 24.2375 22.158 24.2375C22.161 24.2375 22.1639 24.2375 22.1669 24.2375C22.1699 24.2375 22.1729 24.2375 22.1759 24.2375C22.1789 24.2375 22.1819 24.2375 22.185 24.2375C22.188 24.2375 22.1911 24.2375 22.1941 24.2375C22.1972 24.2375 22.2003 24.2375 22.2034 24.2375C22.2065 24.2375 22.2096 24.2375 22.2127 24.2375C22.2158 24.2375 22.219 24.2375 22.2221 24.2375C22.2253 24.2375 22.2285 24.2375 22.2316 24.2375C22.2348 24.2375 22.238 24.2375 22.2412 24.2375C22.2444 24.2375 22.2477 24.2375 22.2509 24.2375C22.2542 24.2375 22.2574 24.2375 22.2607 24.2375C22.2639 24.2375 22.2672 24.2375 22.2705 24.2375C22.2738 24.2375 22.2771 24.2375 22.2805 24.2375C22.2838 24.2375 22.2871 24.2375 22.2905 24.2375C22.2938 24.2375 22.2972 24.2375 22.3006 24.2375C22.304 24.2375 22.3074 24.2375 22.3108 24.2375C22.3142 24.2375 22.3176 24.2375 22.3211 24.2375C22.3245 24.2375 22.328 24.2375 22.3315 24.2375C22.3349 24.2375 22.3384 24.2375 22.3419 24.2375C22.3454 24.2375 22.3489 24.2375 22.3525 24.2375C22.356 24.2375 22.3595 24.2375 22.3631 24.2375C22.3666 24.2375 22.3702 24.2375 22.3738 24.2375C22.3774 24.2375 22.381 24.2375 22.3846 24.2375C22.3882 24.2375 22.3918 24.2375 22.3955 24.2375C22.3991 24.2375 22.4028 24.2375 22.4065 24.2375C22.4101 24.2375 22.4138 24.2375 22.4175 24.2375C22.4212 24.2375 22.4249 24.2375 22.4287 24.2375C22.4324 24.2375 22.4361 24.2375 22.4399 24.2375C22.4436 24.2375 22.4474 24.2375 22.4512 24.2375C22.455 24.2375 22.4588 24.2375 22.4626 24.2375C22.4664 24.2375 22.4702 24.2375 22.4741 24.2375C22.4779 24.2375 22.4818 24.2375 22.4857 24.2375C22.4895 24.2375 22.4934 24.2375 22.4973 24.2375C22.5012 24.2375 22.5051 24.2375 22.5091 24.2375C22.513 24.2375 22.5169 24.2375 22.5209 24.2375C22.5248 24.2375 22.5288 24.2375 22.5328 24.2375C22.5368 24.2375 22.5408 24.2375 22.5448 24.2375C22.5488 24.2375 22.5528 24.2375 22.5569 24.2375C22.5609 24.2375 22.565 24.2375 22.569 24.2375C22.5731 24.2375 22.5772 24.2375 22.5813 24.2375C22.5854 24.2375 22.5895 24.2375 22.5936 24.2375C22.5978 24.2375 22.6019 24.2375 22.6061 24.2375C22.6102 24.2375 22.6144 24.2375 22.6186 24.2375C22.6228 24.2375 22.6269 24.2375 22.6312 24.2375C22.6354 24.2375 22.6396 24.2375 22.6438 24.2375C22.6481 24.2375 22.6523 24.2375 22.6566 24.2375C22.6609 24.2375 22.6652 24.2375 22.6694 24.2375C22.6737 24.2375 22.6781 24.2375 22.6824 24.2375C22.6867 24.2375 22.691 24.2375 22.6954 24.2375C22.6998 24.2375 22.7041 24.2375 22.7085 24.2375C22.7129 24.2375 22.7173 24.2375 22.7217 24.2375C22.7261 24.2375 22.7305 24.2375 22.735 24.2375C22.7394 24.2375 22.7438 24.2375 22.7483 24.2375C22.7528 24.2375 22.7573 24.2375 22.7618 24.2375C22.7662 24.2375 22.7708 24.2375 22.7753 24.2375C22.7798 24.2375 22.7843 24.2375 22.7889 24.2375C22.7934 24.2375 22.798 24.2375 22.8026 24.2375C22.8072 24.2375 22.8118 24.2375 22.8164 24.2375C22.821 24.2375 22.8256 24.2375 22.8302 24.2375C22.8349 24.2375 22.8395 24.2375 22.8442 24.2375C22.8488 24.2375 22.8535 24.2375 22.8582 24.2375C22.8629 24.2375 22.8676 24.2375 22.8723 24.2375C22.877 24.2375 22.8818 24.2375 22.8865 24.2375C22.8913 24.2375 22.896 24.2375 22.9008 24.2375C22.9056 24.2375 22.9103 24.2375 22.9152 24.2375C22.92 24.2375 22.9248 24.2375 22.9296 24.2375C22.9344 24.2375 22.9393 24.2375 22.9441 24.2375C22.949 24.2375 22.9539 24.2375 22.9588 24.2375C22.9636 24.2375 22.9685 24.2375 22.9735 24.2375C22.9784 24.2375 22.9833 24.2375 22.9882 24.2375C22.9932 24.2375 22.9981 24.2375 23.0031 24.2375C23.0081 24.2375 23.0131 24.2375 23.0181 24.2375C23.0231 24.2375 23.0281 24.2375 23.0331 24.2375C23.0381 24.2375 23.0432 24.2375 23.0482 24.2375C23.0533 24.2375 23.0583 24.2375 23.0634 24.2375C23.0685 24.2375 23.0736 24.2375 23.0787 24.2375C23.0838 24.2375 23.0889 24.2375 23.0941 24.2375C23.0992 24.2375 23.1043 24.2375 23.1095 24.2375C23.1147 24.2375 23.1199 24.2375 23.125 24.2375C23.1302 24.2375 23.1354 24.2375 23.1407 24.2375C23.1459 24.2375 23.1511 24.2375 23.1564 24.2375C23.1616 24.2375 23.1669 24.2375 23.1722 24.2375C23.1774 24.2375 23.1827 24.2375 23.188 24.2375C23.1933 24.2375 23.1986 24.2375 23.204 24.2375C23.2093 24.2375 23.2146 24.2375 23.22 24.2375C23.2254 24.2375 23.2307 24.2375 23.2361 24.2375C23.2415 24.2375 23.2469 24.2375 23.2523 24.2375C23.2577 24.2375 23.2632 24.2375 23.2686 24.2375C23.274 24.2375 23.2795 24.2375 23.285 24.2375C23.2904 24.2375 23.2959 24.2375 23.3014 24.2375C23.3069 24.2375 23.3124 24.2375 23.3179 24.2375C23.3235 24.2375 23.329 24.2375 23.3345 24.2375C23.3401 24.2375 23.3457 24.2375 23.3512 24.2375C23.3568 24.2375 23.3624 24.2375 23.368 24.2375C23.3736 24.2375 23.3792 24.2375 23.3849 24.2375C23.3905 24.2375 23.3962 24.2375 23.4018 24.2375C23.4075 24.2375 23.4132 24.2375 23.4188 24.2375C23.4245 24.2375 23.4302 24.2375 23.436 24.2375C23.4417 24.2375 23.4474 24.2375 23.4531 24.2375C23.4589 24.2375 23.4646 24.2375 23.4704 24.2375C23.4762 24.2375 23.482 24.2375 23.4878 24.2375C23.4936 24.2375 23.4994 24.2375 23.5052 24.2375C23.511 24.2375 23.5169 24.2375 23.5227 24.2375C23.5286 24.2375 23.5344 24.2375 23.5403 24.2375C23.5462 24.2375 23.5521 24.2375 23.558 24.2375C23.5639 24.2375 23.5698 24.2375 23.5758 24.2375C23.5817 24.2375 23.5876 24.2375 23.5936 24.2375C23.5996 24.2375 23.6055 24.2375 23.6115 24.2375C23.6175 24.2375 23.6235 24.2375 23.6295 24.2375C23.6356 24.2375 23.6416 24.2375 23.6476 24.2375C23.6537 24.2375 23.6597 24.2375 23.6658 24.2375C23.6719 24.2375 23.6779 24.2375 23.684 24.2375C23.6901 24.2375 23.6963 24.2375 23.7024 24.2375C23.7085 24.2375 23.7146 24.2375 23.7208 24.2375C23.727 24.2375 23.7331 24.2375 23.7393 24.2375C23.7455 24.2375 23.7517 24.2375 23.7579 24.2375C23.7641 24.2375 23.7703 24.2375 23.7765 24.2375C23.7828 24.2375 23.789 24.2375 23.7953 24.2375C23.8015 24.2375 23.8078 24.2375 23.8141 24.2375C23.8204 24.2375 23.8267 24.2375 23.833 24.2375C23.8393 24.2375 23.8456 24.2375 23.852 24.2375C23.8583 24.2375 23.8647 24.2375 23.8711 24.2375C23.8774 24.2375 23.8838 24.2375 23.8902 24.2375C23.8966 24.2375 23.903 24.2375 23.9094 24.2375C23.9159 24.2375 23.9223 24.2375 23.9287 24.2375C23.9352 24.2375 23.9417 24.2375 23.9481 24.2375C23.9546 24.2375 23.9611 24.2375 23.9676 24.2375C23.9741 24.2375 23.9806 24.2375 23.9872 24.2375C23.9937 24.2375 24.0002 24.2375 24.0068 24.2375C24.0133 24.2375 24.0199 24.2375 24.0265 24.2375C24.0331 24.2375 24.0397 24.2375 24.0463 24.2375C24.0529 24.2375 24.0595 24.2375 24.0662 24.2375C24.0728 24.2375 24.0795 24.2375 24.0861 24.2375C24.0928 24.2375 24.0995 24.2375 24.1062 24.2375C24.1128 24.2375 24.1196 24.2375 24.1263 24.2375C24.133 24.2375 24.1397 24.2375 24.1465 24.2375C24.1532 24.2375 24.16 24.2375 24.1667 24.2375C24.1735 24.2375 24.1803 24.2375 24.1871 24.2375C24.1939 24.2375 24.2007 24.2375 24.2075 24.2375C24.2144 24.2375 24.2212 24.2375 24.2281 24.2375C24.2349 24.2375 24.2418 24.2375 24.2487 24.2375C24.2555 24.2375 24.2624 24.2375 24.2693 24.2375C24.2762 24.2375 24.2832 24.2375 24.2901 24.2375C24.297 24.2375 24.304 24.2375 24.3109 24.2375C24.3179 24.2375 24.3249 24.2375 24.3318 24.2375C24.3388 24.2375 24.3458 24.2375 24.3528 24.2375C24.3599 24.2375 24.3669 24.2375 24.3739 24.2375C24.381 24.2375 24.388 24.2375 24.3951 24.2375C24.4021 24.2375 24.4092 24.2375 24.4163 24.2375C24.4234 24.2375 24.4305 24.2375 24.4376 24.2375C24.4447 24.2375 24.4519 24.2375 24.459 24.2375C24.4662 24.2375 24.4733 24.2375 24.4805 24.2375C24.4877 24.2375 24.4949 24.2375 24.5021 24.2375C24.5093 24.2375 24.5165 24.2375 24.5237 24.2375C24.5309 24.2375 24.5382 24.2375 24.5454 24.2375C24.5527 24.2375 24.5599 24.2375 24.5672 24.2375C24.5745 24.2375 24.5818 24.2375 24.5891 24.2375C24.5964 24.2375 24.6037 24.2375 24.611 24.2375C24.6184 24.2375 24.6257 24.2375 24.6331 24.2375C24.6404 24.2375 24.6478 24.2375 24.6552 24.2375C24.6626 24.2375 24.67 24.2375 24.6774 24.2375C24.6848 24.2375 24.6922 24.2375 24.6996 24.2375C24.7071 24.2375 24.7145 24.2375 24.722 24.2375C24.7294 24.2375 24.7369 24.2375 24.7444 24.2375C24.7519 24.2375 24.7594 24.2375 24.7669 24.2375C24.7744 24.2375 24.782 24.2375 24.7895 24.2375C24.797 24.2375 24.8046 24.2375 24.8122 24.2375C24.8197 24.2375 24.8273 24.2375 24.8349 24.2375C24.8425 24.2375 24.8501 24.2375 24.8577 24.2375C24.8654 24.2375 24.873 24.2375 24.8806 24.2375C24.8883 24.2375 24.8959 24.2375 24.9036 24.2375C24.9113 24.2375 24.919 24.2375 24.9267 24.2375C24.9344 24.2375 24.9421 24.2375 24.9498 24.2375C24.9575 24.2375 24.9653 24.2375 24.973 24.2375C24.9808 24.2375 24.9885 24.2375 24.9963 24.2375C25.0041 24.2375 25.0119 24.2375 25.0197 24.2375C25.0275 24.2375 25.0353 24.2375 25.0431 24.2375C25.051 24.2375 25.0588 24.2375 25.0667 24.2375C25.0745 24.2375 25.0824 24.2375 25.0903 24.2375C25.0982 24.2375 25.1061 24.2375 25.114 24.2375C25.1219 24.2375 25.1298 24.2375 25.1377 24.2375C25.1457 24.2375 25.1536 24.2375 25.1616 24.2375C25.1695 24.2375 25.1775 24.2375 25.1855 24.2375C25.1935 24.2375 25.2015 24.2375 25.2095 24.2375C25.2175 24.2375 25.2255 24.2375 25.2336 24.2375C25.2416 24.2375 25.2497 24.2375 25.2577 24.2375C25.2658 24.2375 25.2739 24.2375 25.282 24.2375C25.29 24.2375 25.2981 24.2375 25.3063 24.2375C25.3144 24.2375 25.3225 24.2375 25.3307 24.2375C25.3388 24.2375 25.347 24.2375 25.3551 24.2375C25.3633 24.2375 25.3715 24.2375 25.3797 24.2375C25.3879 24.2375 25.3961 24.2375 25.4043 24.2375C25.4125 24.2375 25.4207 24.2375 25.429 24.2375C25.4372 24.2375 25.4455 24.2375 25.4538 24.2375C25.462 24.2375 25.4703 24.2375 25.4786 24.2375C25.4869 24.2375 25.4952 24.2375 25.5035 24.2375C25.5119 24.2375 25.5202 24.2375 25.5286 24.2375C25.5369 24.2375 25.5453 24.2375 25.5536 24.2375C25.562 24.2375 25.5704 24.2375 25.5788 24.2375C25.5872 24.2375 25.5956 24.2375 25.604 24.2375C25.6125 24.2375 25.6209 24.2375 25.6294 24.2375C25.6378 24.2375 25.6463 24.2375 25.6548 24.2375C25.6632 24.2375 25.6717 24.2375 25.6802 24.2375C25.6887 24.2375 25.6972 24.2375 25.7058 24.2375C25.7143 24.2375 25.7228 24.2375 25.7314 24.2375C25.74 24.2375 25.7485 24.2375 25.7571 24.2375C25.7657 24.2375 25.7743 24.2375 25.7829 24.2375C25.7915 24.2375 25.8001 24.2375 25.8087 24.2375C25.8174 24.2375 25.826 24.2375 25.8347 24.2375C25.8433 24.2375 25.852 24.2375 25.8607 24.2375C25.8694 24.2375 25.8781 24.2375 25.8868 24.2375C25.8955 24.2375 25.9042 24.2375 25.9129 24.2375C25.9217 24.2375 25.9304 24.2375 25.9392 24.2375C25.9479 24.2375 25.9567 24.2375 25.9655 24.2375C25.9743 24.2375 25.9831 24.2375 25.9919 24.2375C26.0007 24.2375 26.0095 24.2375 26.0184 24.2375C26.0272 24.2375 26.0361 24.2375 26.0449 24.2375C26.0538 24.2375 26.0626 24.2375 26.0715 24.2375C26.0804 24.2375 26.0893 24.2375 26.0982 24.2375C26.1071 24.2375 26.1161 24.2375 26.125 24.2375C26.134 24.2375 26.1429 24.2375 26.1519 24.2375C26.1608 24.2375 26.1698 24.2375 26.1788 24.2375C26.1878 24.2375 26.1968 24.2375 26.2058 24.2375C26.2148 24.2375 26.2238 24.2375 26.2329 24.2375C26.2419 24.2375 26.251 24.2375 26.26 24.2375C26.2691 24.2375 26.2782 24.2375 26.2873 24.2375C26.2964 24.2375 26.3055 24.2375 26.3146 24.2375C26.3237 24.2375 26.3328 24.2375 26.342 24.2375C26.3511 24.2375 26.3603 24.2375 26.3694 24.2375C26.3786 24.2375 26.3878 24.2375 26.397 24.2375C26.4062 24.2375 26.4154 24.2375 26.4246 24.2375C26.4338 24.2375 26.443 24.2375 26.4523 24.2375C26.4615 24.2375 26.4708 24.2375 26.48 24.2375C26.4893 24.2375 26.4986 24.2375 26.5079 24.2375C26.5172 24.2375 26.5265 24.2375 26.5358 24.2375C26.5451 24.2375 26.5544 24.2375 26.5638 24.2375C26.5731 24.2375 26.5825 24.2375 26.5918 24.2375C26.6012 24.2375 26.6106 24.2375 26.62 24.2375C26.6294 24.2375 26.6388 24.2375 26.6482 24.2375C26.6576 24.2375 26.667 24.2375 26.6765 24.2375C26.6859 24.2375 26.6954 24.2375 26.7049 24.2375C26.7143 24.2375 26.7238 24.2375 26.7333 24.2375C26.7428 24.2375 26.7523 24.2375 26.7618 24.2375C26.7713 24.2375 26.7809 24.2375 26.7904 24.2375C26.7999 24.2375 26.8095 24.2375 26.8191 24.2375C26.8286 24.2375 26.8382 24.2375 26.8478 24.2375C26.8574 24.2375 26.867 24.2375 26.8766 24.2375C26.8863 24.2375 26.8959 24.2375 26.9055 24.2375C26.9152 24.2375 26.9248 24.2375 26.9345 24.2375C26.9442 24.2375 26.9538 24.2375 26.9635 24.2375C26.9732 24.2375 26.9829 24.2375 26.9927 24.2375C27.0024 24.2375 27.0121 24.2375 27.0218 24.2375C27.0316 24.2375 27.0413 24.2375 27.0511 24.2375C27.0609 24.2375 27.0707 24.2375 27.0805 24.2375C27.0902 24.2375 27.1 24.2375 27.1099 24.2375C27.1197 24.2375 27.1295 24.2375 27.1394 24.2375C27.1492 24.2375 27.1591 24.2375 27.1689 24.2375C27.1788 24.2375 27.1887 24.2375 27.1986 24.2375C27.2085 24.2375 27.2184 24.2375 27.2283 24.2375C27.2382 24.2375 27.2481 24.2375 27.2581 24.2375C27.268 24.2375 27.278 24.2375 27.2879 24.2375C27.2979 24.2375 27.3079 24.2375 27.3179 24.2375C27.3279 24.2375 27.3379 24.2375 27.3479 24.2375C27.3579 24.2375 27.3679 24.2375 27.378 24.2375C27.388 24.2375 27.3981 24.2375 27.4081 24.2375C27.4182 24.2375 27.4283 24.2375 27.4384 24.2375C27.4484 24.2375 27.4585 24.2375 27.4687 24.2375C27.4788 24.2375 27.4889 24.2375 27.499 24.2375C27.5092 24.2375 27.5193 24.2375 27.5295 24.2375C27.5397 24.2375 27.5498 24.2375 27.56 24.2375C27.5702 24.2375 27.5804 24.2375 27.5906 24.2375C27.6008 24.2375 27.6111 24.2375 27.6213 24.2375C27.6315 24.2375 27.6418 24.2375 27.6521 24.2375C27.6623 24.2375 27.6726 24.2375 27.6829 24.2375C27.6932 24.2375 27.7035 24.2375 27.7138 24.2375C27.7241 24.2375 27.7344 24.2375 27.7447 24.2375C27.7551 24.2375 27.7654 24.2375 27.7758 24.2375C27.7861 24.2375 27.7965 24.2375 27.8069 24.2375C27.8173 24.2375 27.8277 24.2375 27.8381 24.2375C27.8485 24.2375 27.8589 24.2375 27.8694 24.2375C27.8798 24.2375 27.8902 24.2375 27.9007 24.2375C27.9112 24.2375 27.9216 24.2375 27.9321 24.2375C27.9426 24.2375 27.9531 24.2375 27.9636 24.2375C27.9741 24.2375 27.9846 24.2375 27.9952 24.2375C28.0057 24.2375 28.0162 24.2375 28.0268 24.2375C28.0373 24.2375 28.0479 24.2375 28.0585 24.2375C28.0691 24.2375 28.0797 24.2375 28.0903 24.2375C28.1009 24.2375 28.1115 24.2375 28.1221 24.2375C28.1327 24.2375 28.1434 24.2375 28.154 24.2375C28.1647 24.2375 28.1754 24.2375 28.186 24.2375C28.1967 24.2375 28.2074 24.2375 28.2181 24.2375C28.2288 24.2375 28.2395 24.2375 28.2502 24.2375C28.261 24.2375 28.2717 24.2375 28.2825 24.2375C28.2932 24.2375 28.304 24.2375 28.3147 24.2375C28.3255 24.2375 28.3363 24.2375 28.3471 24.2375C28.3579 24.2375 28.3687 24.2375 28.3795 24.2375C28.3904 24.2375 28.4012 24.2375 28.412 24.2375C28.4229 24.2375 28.4337 24.2375 28.4446 24.2375C28.4555 24.2375 28.4664 24.2375 28.4773 24.2375C28.4882 24.2375 28.4991 24.2375 28.51 24.2375C28.5209 24.2375 28.5318 24.2375 28.5428 24.2375C28.5537 24.2375 28.5647 24.2375 28.5756 24.2375C28.5866 24.2375 28.5976 24.2375 28.6086 24.2375C28.6196 24.2375 28.6306 24.2375 28.6416 24.2375C28.6526 24.2375 28.6636 24.2375 28.6747 24.2375C28.6857 24.2375 28.6968 24.2375 28.7078 24.2375C28.7189 24.2375 28.73 24.2375 28.7411 24.2375C28.7522 24.2375 28.7633 24.2375 28.7744 24.2375C28.7855 24.2375 28.7966 24.2375 28.8077 24.2375C28.8189 24.2375 28.83 24.2375 28.8412 24.2375C28.8523 24.2375 28.8635 24.2375 28.8747 24.2375C28.8859 24.2375 28.8971 24.2375 28.9083 24.2375C28.9195 24.2375 28.9307 24.2375 28.9419 24.2375C28.9532 24.2375 28.9644 24.2375 28.9757 24.2375C28.9869 24.2375 28.9982 24.2375 29.0095 24.2375C29.0207 24.2375 29.032 24.2375 29.0433 24.2375C29.0546 24.2375 29.066 24.2375 29.0773 24.2375C29.0886 24.2375 29.1 24.2375 29.1113 24.2375C29.1227 24.2375 29.134 24.2375 29.1454 24.2375C29.1568 24.2375 29.1682 24.2375 29.1796 24.2375C29.1909 24.2375 29.2024 24.2375 29.2138 24.2375C29.2252 24.2375 29.2366 24.2375 29.2481 24.2375C29.2595 24.2375 29.271 24.2375 29.2825 24.2375C29.2939 24.2375 29.3054 24.2375 29.3169 24.2375C29.3284 24.2375 29.3399 24.2375 29.3514 24.2375C29.3629 24.2375 29.3745 24.2375 29.386 24.2375C29.3975 24.2375 29.4091 24.2375 29.4207 24.2375C29.4322 24.2375 29.4438 24.2375 29.4554 24.2375C29.467 24.2375 29.4786 24.2375 29.4902 24.2375C29.5018 24.2375 29.5134 24.2375 29.5251 24.2375C29.5367 24.2375 29.5483 24.2375 29.56 24.2375C29.5717 24.2375 29.5833 24.2375 29.595 24.2375C29.6067 24.2375 29.6184 24.2375 29.6301 24.2375C29.6418 24.2375 29.6535 24.2375 29.6652 24.2375C29.677 24.2375 29.6887 24.2375 29.7005 24.2375C29.7122 24.2375 29.724 24.2375 29.7358 24.2375C29.7475 24.2375 29.7593 24.2375 29.7711 24.2375C29.7829 24.2375 29.7947 24.2375 29.8066 24.2375C29.8184 24.2375 29.8302 24.2375 29.8421 24.2375C29.8539 24.2375 29.8658 24.2375 29.8777 24.2375C29.8895 24.2375 29.9014 24.2375 29.9133 24.2375C29.9252 24.2375 29.9371 24.2375 29.949 24.2375C29.9609 24.2375 29.9729 24.2375 29.9848 24.2375C29.9967 24.2375 30.0087 24.2375 30.0207 24.2375C30.0326 24.2375 30.0446 24.2375 30.0566 24.2375C30.0686 24.2375 30.0806 24.2375 30.0926 24.2375C30.1046 24.2375 30.1166 24.2375 30.1287 24.2375C30.1407 24.2375 30.1527 24.2375 30.1648 24.2375C30.1769 24.2375 30.1889 24.2375 30.201 24.2375C30.2131 24.2375 30.2252 24.2375 30.2373 24.2375C30.2494 24.2375 30.2615 24.2375 30.2736 24.2375C30.2858 24.2375 30.2979 24.2375 30.3101 24.2375C30.3222 24.2375 30.3344 24.2375 30.3465 24.2375C30.3587 24.2375 30.3709 24.2375 30.3831 24.2375C30.3953 24.2375 30.4075 24.2375 30.4197 24.2375C30.4319 24.2375 30.4442 24.2375 30.4564 24.2375C30.4687 24.2375 30.4809 24.2375 30.4932 24.2375C30.5055 24.2375 30.5177 24.2375 30.53 24.2375C30.5423 24.2375 30.5546 24.2375 30.5669 24.2375C30.5793 24.2375 30.5916 24.2375 30.6039 24.2375C30.6162 24.2375 30.6286 24.2375 30.641 24.2375C30.6533 24.2375 30.6657 24.2375 30.6781 24.2375C30.6905 24.2375 30.7028 24.2375 30.7153 24.2375C30.7277 24.2375 30.7401 24.2375 30.7525 24.2375C30.7649 24.2375 30.7774 24.2375 30.7898 24.2375C30.8023 24.2375 30.8147 24.2375 30.8272 24.2375C30.8397 24.2375 30.8522 24.2375 30.8647 24.2375C30.8772 24.2375 30.8897 24.2375 30.9022 24.2375C30.9147 24.2375 30.9273 24.2375 30.9398 24.2375C30.9524 24.2375 30.9649 24.2375 30.9775 24.2375C30.99 24.2375 31.0026 24.2375 31.0152 24.2375C31.0278 24.2375 31.0404 24.2375 31.053 24.2375C31.0656 24.2375 31.0783 24.2375 31.0909 24.2375C31.1035 24.2375 31.1162 24.2375 31.1288 24.2375C31.1415 24.2375 31.1542 24.2375 31.1668 24.2375C31.1795 24.2375 31.1922 24.2375 31.2049 24.2375C31.2176 24.2375 31.2303 24.2375 31.2431 24.2375C31.2558 24.2375 31.2685 24.2375 31.2813 24.2375C31.294 24.2375 31.3068 24.2375 31.3196 24.2375C31.3323 24.2375 31.3451 24.2375 31.3579 24.2375C31.3707 24.2375 31.3835 24.2375 31.3964 24.2375C31.4092 24.2375 31.422 24.2375 31.4348 24.2375C31.4477 24.2375 31.4605 24.2375 31.4734 24.2375C31.4863 24.2375 31.4991 24.2375 31.512 24.2375C31.5249 24.2375 31.5378 24.2375 31.5507 24.2375C31.5636 24.2375 31.5766 24.2375 31.5895 24.2375C31.6024 24.2375 31.6154 24.2375 31.6283 24.2375C31.6413 24.2375 31.6542 24.2375 31.6672 24.2375C31.6802 24.2375 31.6932 24.2375 31.7062 24.2375C31.7192 24.2375 31.7322 24.2375 31.7452 24.2375C31.7582 24.2375 31.7713 24.2375 31.7843 24.2375C31.7974 24.2375 31.8104 24.2375 31.8235 24.2375C31.8366 24.2375 31.8497 24.2375 31.8627 24.2375C31.8758 24.2375 31.8889 24.2375 31.9021 24.2375C31.9152 24.2375 31.9283 24.2375 31.9414 24.2375C31.9546 24.2375 31.9677 24.2375 31.9809 24.2375C31.994 24.2375 32.0072 24.2375 32.0204 24.2375C32.0336 24.2375 32.0468 24.2375 32.06 24.2375C32.0732 24.2375 32.0864 24.2375 32.0996 24.2375C32.1128 24.2375 32.1261 24.2375 32.1393 24.2375C32.1526 24.2375 32.1658 24.2375 32.1791 24.2375C32.1924 24.2375 32.2057 24.2375 32.2189 24.2375C32.2322 24.2375 32.2455 24.2375 32.2589 24.2375C32.2722 24.2375 32.2855 24.2375 32.2988 24.2375C32.3122 24.2375 32.3255 24.2375 32.3389 24.2375C32.3523 24.2375 32.3656 24.2375 32.379 24.2375C32.3924 24.2375 32.4058 24.2375 32.4192 24.2375C32.4326 24.2375 32.446 24.2375 32.4594 24.2375C32.4729 24.2375 32.4863 24.2375 32.4998 24.2375C32.5132 24.2375 32.5267 24.2375 32.5402 24.2375C32.5536 24.2375 32.5671 24.2375 32.5806 24.2375C32.5941 24.2375 32.6076 24.2375 32.6211 24.2375C32.6346 24.2375 32.6482 24.2375 32.6617 24.2375V21.2375ZM20.2158 22.7375V55.7744H23.2158V22.7375H20.2158ZM21.7158 54.2744H6.87793V57.2744H21.7158V54.2744ZM8.37793 55.7744V25.7315H5.37793V55.7744H8.37793Z" fill="#891C60" mask="url(#path-2-inside-1_111_142)"/>
<mask id="path-4-inside-2_111_142" fill="white">
<path d="M6.87848 39.1527C1.04065 39.1527 0.675781 34.8166 0.675781 34.8166V25.0088C0.675781 20.1565 5.2974 16.1301 11.1352 16.1301H21.8379H40.4461"/>
</mask>
<path d="M0.675781 34.8166H-0.824219V34.8796L-0.818936 34.9424L0.675781 34.8166ZM6.87848 37.6527C4.38931 37.6527 3.29785 36.758 2.78373 36.0791C2.50162 35.7066 2.34364 35.3316 2.25734 35.0519C2.2146 34.9134 2.19109 34.8035 2.17906 34.7368C2.17308 34.7036 2.17007 34.6819 2.16897 34.6734C2.16843 34.6692 2.16837 34.6684 2.16867 34.6712C2.16882 34.6726 2.16906 34.6749 2.16937 34.6782C2.16952 34.6798 2.1697 34.6817 2.16989 34.6838C2.16998 34.6848 2.17008 34.686 2.17018 34.6871C2.17023 34.6877 2.17031 34.6887 2.17034 34.689C2.17042 34.6899 2.1705 34.6909 0.675781 34.8166C-0.818936 34.9424 -0.818852 34.9434 -0.818766 34.9444C-0.818736 34.9448 -0.818647 34.9458 -0.818585 34.9465C-0.81846 34.948 -0.818326 34.9495 -0.818185 34.9511C-0.817902 34.9542 -0.817585 34.9577 -0.817232 34.9614C-0.816527 34.9688 -0.815677 34.9774 -0.814659 34.987C-0.812624 35.0062 -0.809919 35.0297 -0.806364 35.0573C-0.799262 35.1123 -0.788735 35.1837 -0.773333 35.2691C-0.742608 35.4395 -0.692012 35.6684 -0.609321 35.9364C-0.444776 36.4697 -0.146683 37.1788 0.392154 37.8903C1.51993 39.3794 3.52982 40.6527 6.87848 40.6527V37.6527ZM2.17578 34.8166V25.0088H-0.824219V34.8166H2.17578ZM2.17578 25.0088C2.17578 21.1957 5.89806 17.6301 11.1352 17.6301V14.6301C4.69675 14.6301 -0.824219 19.1173 -0.824219 25.0088H2.17578ZM11.1352 17.6301H21.8379V14.6301H11.1352V17.6301ZM21.8379 17.6301H40.4461V14.6301H21.8379V17.6301Z" fill="#891C60" mask="url(#path-4-inside-2_111_142)"/>
<path d="M14.1753 38.119V55.7731" stroke="#891C60" stroke-width="1.5"/>
</svg>
