<svg width="58" height="69" viewBox="0 0 58 69" fill="none" xmlns="http://www.w3.org/2000/svg">
<path d="M25.2788 18.5204V15.6904H27.6768V12.8604H30.0749V15.6904H32.4729V18.5204H30.0749V21.3505H27.6768V18.5204H25.2788Z" fill="white"/>
<path fill-rule="evenodd" clip-rule="evenodd" d="M20.0992 23.8508L17.7275 15.9183C17.0849 13.7674 18.0009 11.3336 19.9205 10.6162C22.1495 9.78133 25.7945 8.61536 28.8759 8.61536C31.9574 8.61536 35.6024 9.78133 37.8326 10.6162C39.751 11.335 40.667 13.7688 40.0244 15.9183L37.6515 23.8508C38.2956 25.574 38.5652 27.4596 38.4359 29.3368C38.3066 31.214 37.7825 33.0235 36.911 34.6013C36.0395 36.1791 34.8482 37.4753 33.4451 38.3726C32.0419 39.2698 30.4712 39.7397 28.8753 39.7397C27.2795 39.7397 25.7088 39.2698 24.3056 38.3726C22.9025 37.4753 21.7112 36.1791 20.8397 34.6013C19.9682 33.0235 19.4441 31.214 19.3148 29.3368C19.1855 27.4596 19.4551 25.574 20.0992 23.8508ZM28.8759 11.4454C31.5617 11.4454 34.9058 12.4897 37.1072 13.3132C37.6587 13.5198 37.9825 14.2443 37.763 14.9773L35.3362 23.091C31.0354 21.4779 26.7165 21.4779 22.4157 23.091L19.9889 14.9773C19.7694 14.2443 20.0932 13.5198 20.6447 13.3146C22.8461 12.4897 26.1914 11.4454 28.8759 11.4454ZM21.9145 26.2762H21.9157C21.9794 26.261 22.0419 26.2397 22.1027 26.2125C26.6278 24.2103 31.1241 24.2103 35.6492 26.2125C35.7103 26.2398 35.7733 26.2611 35.8374 26.2762C36.1143 27.5315 36.1438 28.845 35.9236 30.1159C35.7034 31.3867 35.2393 32.5811 34.5671 33.6074C33.8949 34.6337 33.0323 35.4645 32.0457 36.0362C31.059 36.6078 29.9745 36.905 28.8753 36.905C27.7762 36.905 26.6917 36.6078 25.705 36.0362C24.7184 35.4645 23.8558 34.6337 23.1836 33.6074C22.5114 32.5811 22.0473 31.3867 21.8271 30.1159C21.6069 28.845 21.6364 27.5315 21.9133 26.2762H21.9145Z" fill="white"/>
<path d="M16.8857 48.2359H14.4877V51.0659H16.8857V53.896H19.2837V51.0659H21.6818V48.2359H19.2837V45.4059H16.8857V48.2359Z" fill="white"/>
<path fill-rule="evenodd" clip-rule="evenodd" d="M37.4141 39.7456C37.4141 39.7456 50.4581 44.5468 50.4581 50.3115V59.5558H7.29366V50.3115C7.29366 44.5468 20.3377 39.7456 20.3377 39.7456L27.4982 45.6788C27.9018 46.0131 28.3828 46.1924 28.8759 46.1924C29.3689 46.1924 29.85 46.0131 30.2536 45.6788L37.4141 39.7456ZM19.954 42.8869L26.1194 47.9952C26.9267 48.6643 27.8893 49.0234 28.8759 49.0234C29.8625 49.0234 30.8251 48.6643 31.6324 47.9952L37.7978 42.8869C39.5287 43.6028 41.2212 44.4421 42.866 45.4C44.4199 46.3141 45.8419 47.3287 46.8419 48.3602C47.9222 49.4738 48.0601 50.1361 48.0601 50.3115V56.7258H9.69168V50.3115C9.69168 50.1361 9.82957 49.4738 10.9099 48.3588C11.9099 47.3287 13.3319 46.3141 14.887 45.3986C16.2725 44.5928 17.692 43.8712 19.1399 43.2364C19.4397 43.1034 19.713 42.9874 19.954 42.8855V42.8869Z" fill="white"/>
</svg>
