<svg width="66" height="69" viewBox="0 0 66 69" fill="none" xmlns="http://www.w3.org/2000/svg">
<path fill-rule="evenodd" clip-rule="evenodd" d="M42.7684 13.949L42.6939 13.6094C42.5515 12.9783 42.3184 12.0501 41.8372 11.136C41.3465 10.2049 40.586 9.26107 39.3932 8.63987C38.2044 8.02151 36.7146 7.79086 34.8725 8.04557C32.8392 8.32857 28.755 9.03042 25.1465 10.9464C21.5178 12.8736 18.1181 16.189 18.1181 21.7104C18.1181 24.5631 19.1754 27.6237 20.2002 29.6189C20.6923 30.5783 21.2765 31.4952 21.8621 31.9891C21.9963 32.1023 22.1874 32.2438 22.4246 32.3428C23.0753 34.5751 24.3706 36.5431 26.1334 37.9778C27.8962 39.4124 30.0405 40.2437 32.273 40.358C34.5056 40.4723 36.7174 39.864 38.6062 38.6162C40.495 37.3685 41.9686 35.5422 42.8254 33.3871L42.8579 33.3928L43.3391 32.7829L42.2926 31.8829L43.3391 32.7829L43.3405 32.7801L43.3432 32.7772L43.3499 32.7673L43.373 32.739C43.489 32.5883 43.6006 32.434 43.7078 32.2763C44.0005 31.8525 44.2764 31.4163 44.5347 30.9688C45.1718 29.868 45.9404 28.3001 46.4324 26.4705C46.9231 24.6409 47.1481 22.4957 46.633 20.2826C46.1315 18.129 44.9481 16.0093 42.805 14.116L42.7684 13.949ZM40.4911 31.832C39.9032 33.5969 38.7743 35.1101 37.2791 36.1374C35.784 37.1647 34.006 37.6487 32.2207 37.5145C30.4353 37.3802 28.7422 36.6352 27.4035 35.3948C26.0648 34.1544 25.1553 32.4879 24.8158 30.6533L24.6626 30.7071C24.668 30.627 24.6707 30.5468 24.6708 30.4665C24.6708 28.1247 24.9825 26.4903 25.2726 25.4715C25.3293 25.2732 25.3921 25.0769 25.461 24.8828L25.5166 24.8857H25.5708C26.5844 24.9085 27.5978 24.828 28.5964 24.6451C30.9238 24.2348 34.0754 23.2103 37.7869 20.8373C37.8682 21.0269 37.9495 21.2406 38.0309 21.4783C38.2965 22.2637 38.5148 23.1961 38.7032 24.181C38.8699 25.0484 39.0068 25.9215 39.137 26.7393L39.1871 27.062C39.3267 27.9393 39.4664 28.801 39.629 29.4251C39.9137 30.509 40.2038 31.2787 40.4911 31.8306V31.832ZM42.3889 29.1958C42.8999 28.2676 43.4584 27.0591 43.8203 25.7078C44.2256 24.1994 44.3747 22.5665 43.9979 20.9519C43.6319 19.3813 42.7467 17.7299 40.9263 16.1649C40.5982 15.9329 40.4491 15.6216 40.4085 15.5381V15.5367C40.3373 15.3837 40.2801 15.224 40.2377 15.0598C40.1943 14.8985 40.1468 14.6777 40.1021 14.4796L40.0547 14.2575C39.9259 13.6872 39.7592 13.066 39.4609 12.4986C39.1709 11.9496 38.7737 11.4798 38.1827 11.1728C37.5889 10.8629 36.6699 10.6506 35.2303 10.8515C33.2607 11.1246 29.5561 11.7798 26.376 13.4693C23.2176 15.1461 20.8292 17.6847 20.8292 21.7104C20.8292 23.5641 21.4256 25.6724 22.144 27.3351C22.2796 26.2512 22.4748 25.3654 22.6754 24.6635C22.8153 24.1619 22.9897 23.6715 23.1973 23.1961C23.2756 23.02 23.3615 22.8476 23.4548 22.6797L23.4779 22.6415L23.486 22.6273L23.4901 22.6202L23.4928 22.616L24.6314 23.3801L23.4928 22.616L23.9943 21.8038L24.8917 21.992L24.9107 21.9962L25.0422 22.0146C25.2439 22.0381 25.4465 22.0522 25.6494 22.0571C26.4852 22.0739 27.3205 22.0057 28.1436 21.8533C30.3301 21.4684 33.5427 20.4199 37.4453 17.7073L38.3941 17.0465L39.179 17.9096C39.8256 18.62 40.2648 19.5893 40.586 20.5331C40.9141 21.5024 41.1621 22.5849 41.3614 23.6235C41.5376 24.5432 41.684 25.4672 41.8114 26.2837L41.8629 26.6007C42.008 27.5219 42.1259 28.2251 42.2452 28.6807C42.294 28.8675 42.3414 29.0402 42.3889 29.1958ZM23.5728 29.793L23.5674 29.7901L23.5728 29.793ZM23.5674 29.7901L23.5728 29.793L23.5687 29.7901H23.5674Z" fill="#E3008D"/>
<path fill-rule="evenodd" clip-rule="evenodd" d="M41.0536 41.5828C41.341 40.9857 41.6948 40.2485 42.2925 40.3914C49.6178 42.1319 57.2034 47.1566 57.2034 52.4997V60.1832H8.40431V52.4997C8.40431 48.2914 13.1107 44.2799 18.6887 41.9154L18.6955 41.9012C18.7017 41.8884 18.708 41.8757 18.7145 41.863L18.7592 41.8857C20.2408 41.2631 21.7834 40.7537 23.3151 40.3914C23.997 40.2287 24.7018 41.2079 25.0095 41.8206H40.937C40.975 41.747 41.0129 41.6649 41.0536 41.5828ZM22.7689 43.4507C22.1765 43.6219 21.5868 43.8143 21.0053 44.0266C20.9891 44.5105 21.0243 45.0822 21.1002 45.6652C21.1775 46.2688 21.3008 46.865 21.4689 47.4481H23.3151C23.5668 47.4482 23.8135 47.5215 24.0275 47.6597C24.2415 47.7979 24.4145 47.9956 24.527 48.2306L25.8825 51.0606C25.9768 51.257 26.026 51.4735 26.0262 51.6931V54.5232C26.0262 54.8985 25.8834 55.2584 25.6292 55.5237C25.375 55.7891 25.0302 55.9382 24.6707 55.9382H21.9596V53.1082H23.3151V52.0271L22.4774 50.2781H18.7307L17.893 52.0271V53.1082H19.2486V55.9382H16.5375C16.178 55.9382 15.8332 55.7891 15.579 55.5237C15.3248 55.2584 15.182 54.8985 15.182 54.5232V51.6931C15.1822 51.4735 15.2314 51.257 15.3256 51.0606L16.6812 48.2306C16.7937 47.9956 16.9666 47.7979 17.1807 47.6597C17.3947 47.5215 17.6413 47.4482 17.893 47.4481H18.6603C18.4928 46.6992 18.3804 45.9381 18.3241 45.1713C17.0024 45.8237 15.7743 46.5722 14.7102 47.3816C12.1049 49.3654 11.1154 51.2219 11.1154 52.4997V57.3532H54.4923V52.4997C54.4923 51.2219 53.5028 49.3654 50.8974 47.3816C49.588 46.384 48.0251 45.4812 46.3496 44.7341C46.332 45.1727 46.2914 45.6171 46.2358 46.0472C46.1423 46.7547 46.0026 47.4594 45.8332 48.065L45.8223 48.1047C46.6327 48.6398 47.2359 49.4567 47.5252 50.4111C47.8146 51.3654 47.7716 52.3958 47.4038 53.3203C47.036 54.2448 46.3671 55.0038 45.5152 55.4634C44.6633 55.9229 43.6832 56.0534 42.748 55.8318C41.8129 55.6102 40.9829 55.0508 40.4045 54.2524C39.8262 53.4539 39.5367 52.4678 39.5873 51.4681C39.6379 50.4685 40.0253 49.5197 40.681 48.7893C41.3367 48.0589 42.2186 47.5939 43.1709 47.4764C43.3441 46.8844 43.4711 46.2786 43.5505 45.6652C43.6259 45.1165 43.6572 44.5623 43.644 44.0082C43.6399 43.8893 43.6318 43.7846 43.6237 43.6912C43.461 43.6389 43.2983 43.5879 43.1357 43.5398L42.5731 44.652H23.3734L22.7689 43.4521V43.4507ZM43.6481 53.1308C42.9188 53.1308 42.2925 52.5082 42.2925 51.6946C42.2925 50.8823 42.9188 50.2583 43.6481 50.2583C44.3774 50.2583 45.0036 50.8809 45.0036 51.6946C45.0036 52.5068 44.3774 53.1308 43.6481 53.1308Z" fill="#E3008D"/>
</svg>
