<svg width="30" height="36" viewBox="0 0 30 36" fill="none" xmlns="http://www.w3.org/2000/svg">
<g clip-path="url(#clip0_308_6)">
<path opacity="0.35" d="M13.9646 33.0915C12.9308 33.0915 12.0896 32.0616 12.0896 30.7957V26.8303H6.85053C6.81081 26.8303 6.77165 26.829 6.7325 26.8258C4.20761 26.7472 2.16162 24.175 2.16162 21.0644C2.16162 18.7106 3.32561 16.6462 5.01638 15.7608C5.11075 14.8291 5.37216 13.925 5.79894 13.0592C6.61306 11.406 7.9224 10.2505 9.39147 9.88897C9.76078 9.79825 10.1377 9.75203 10.5107 9.75203C10.531 9.75203 10.5512 9.75203 10.5715 9.75237C11.1076 8.11498 12.0316 6.71076 13.255 5.70287C14.448 4.72015 15.8334 4.20068 17.2619 4.20068C17.9757 4.20068 18.6963 4.32969 19.4037 4.58356C21.5283 5.34551 23.2554 7.32888 24.0236 9.88862C24.2878 10.7689 24.4419 11.6816 24.4839 12.5939C25.0321 12.6864 25.5732 12.8757 26.1006 13.16C27.6516 13.9971 28.8452 15.6873 29.2942 17.6817C29.792 19.893 29.4463 22.1889 28.3466 23.9808C27.2789 25.72 25.6569 26.7538 23.8898 26.8238C23.843 26.8283 23.7962 26.8303 23.7495 26.8303H19.5716V30.7957C19.5716 32.0616 18.7304 33.0915 17.6966 33.0915H13.9646Z" fill="black"/>
<path d="M13.3875 32.3851C12.3536 32.3851 11.5125 31.3551 11.5125 30.0892V26.1238H6.27338C6.23366 26.1238 6.19451 26.1225 6.15535 26.1194C3.63047 26.0407 1.58447 23.4686 1.58447 20.358C1.58447 18.0041 2.74846 15.9397 4.43923 15.0543C4.5336 14.1226 4.79502 13.2185 5.22179 12.3528C6.03591 10.6995 7.34525 9.54397 8.81432 9.18248C9.18363 9.09177 9.56055 9.04555 9.93352 9.04555C9.9538 9.04555 9.97408 9.04555 9.99437 9.04589C10.5304 7.4085 11.4544 6.00428 12.6778 4.99638C13.8709 4.01367 15.2563 3.4942 16.6848 3.4942C17.3986 3.4942 18.1192 3.62321 18.8265 3.87708C20.9511 4.63903 22.6782 6.6224 23.4464 9.18214C23.7107 10.0624 23.8647 10.9751 23.9067 11.8874C24.4549 11.9799 24.9961 12.1693 25.5234 12.4535C27.0744 13.2906 28.268 14.9808 28.717 16.9752C29.2148 19.1866 28.8692 21.4824 27.7694 23.2744C26.7018 25.0135 25.0797 26.0473 23.3126 26.1173C23.2659 26.1218 23.2191 26.1238 23.1723 26.1238H18.9944V30.0892C18.9944 31.3551 18.1533 32.3851 17.1194 32.3851H13.3875Z" fill="#F2F2F2"/>
<path d="M24.7681 14.5548C23.6959 13.9762 22.6713 14.014 21.7851 14.4082C22.1365 13.0688 22.159 11.5479 21.6865 9.97401C21.1237 8.09952 19.8574 6.63899 18.2991 6.08021C14.8537 4.84468 11.7011 7.75867 11.3731 11.703C10.7195 11.3586 9.96832 11.2403 9.1837 11.4335C8.1937 11.6772 7.35082 12.4751 6.82726 13.5383C6.22899 14.7537 6.18053 15.8836 6.3764 16.8973C6.34236 16.8959 6.3089 16.8909 6.27457 16.8909C4.71976 16.8909 3.45947 18.4433 3.45947 20.3581C3.45947 22.2725 4.71947 23.8245 6.2737 23.8252L6.27342 23.828H23.1724L23.1721 23.8248C25.6912 23.786 27.6424 20.8413 26.9094 17.585C26.6059 16.2368 25.8086 15.1164 24.7681 14.5548Z" fill="#E3008D"/>
<path d="M15.2626 16.3885V16.3885L15.2626 16.3885L15.2626 16.3885V16.3885L11.9121 20.4919H13.8142V30.0893H15.2626H15.2626H16.711V20.4919H18.6131L15.2626 16.3885Z" fill="white" fill-opacity="0.85"/>
<path d="M17.1195 30.619H13.3875C13.1486 30.619 12.9548 30.3817 12.9548 30.0892V24.3578H6.27346C6.2574 24.3578 6.24162 24.3568 6.22585 24.3547C4.45761 24.3223 3.02686 22.5414 3.02686 20.358C3.02686 18.3242 4.26775 16.6406 5.8664 16.3926C5.76837 15.3106 5.96612 14.2609 6.45684 13.2648C7.0625 12.0347 8.02535 11.1779 9.09835 10.9141C9.74711 10.7544 10.4032 10.7819 11.0226 10.9917C11.3184 9.148 12.1954 7.52234 13.483 6.46167C14.9343 5.26613 16.6882 4.94983 18.421 5.57174C20.1086 6.1771 21.4814 7.75448 22.0926 9.7913C22.4755 11.0662 22.5729 12.389 22.3825 13.6656C23.2344 13.4835 24.106 13.619 24.9426 14.0698C26.1007 14.6949 26.9917 15.9563 27.3266 17.4443C27.7047 19.1241 27.4458 20.8623 26.6165 22.2134C25.8038 23.5372 24.5705 24.3147 23.2265 24.3537C23.2085 24.3564 23.1904 24.3578 23.1724 24.3578H17.5522V30.0892C17.5522 30.3817 17.3584 30.619 17.1195 30.619ZM13.8202 29.5594H16.6868V23.828C16.6868 23.5355 16.8806 23.2982 17.1195 23.2982H23.1256C23.1392 23.2964 23.153 23.2954 23.1668 23.2951C24.2592 23.2782 25.2646 22.6518 25.9246 21.5766C26.5917 20.4901 26.7987 19.0865 26.4922 17.7258C26.2258 16.5416 25.5162 15.5375 24.5936 15.0395C23.7059 14.5607 22.8101 14.5158 21.9332 14.9063C21.7777 14.975 21.6042 14.9301 21.4853 14.7897C21.3661 14.6497 21.3228 14.4386 21.3735 14.2461C21.7194 12.9264 21.6873 11.5122 21.2802 10.1569C20.7633 8.43399 19.6035 7.09979 18.1776 6.5886C16.6967 6.05741 15.2003 6.32404 13.9661 7.34056C12.7413 8.34948 11.9531 9.95929 11.8035 11.7567C11.7897 11.9244 11.7111 12.0741 11.5925 12.1596C11.4734 12.2455 11.3283 12.2565 11.2021 12.1896C10.599 11.8716 9.9305 11.7898 9.26906 11.953C8.43354 12.1586 7.67858 12.836 7.19772 13.8118C6.72756 14.767 6.59657 15.7362 6.7977 16.7752C6.82869 16.9359 6.79686 17.1049 6.7115 17.2329C6.62615 17.3605 6.49656 17.436 6.36219 17.4267L6.27458 17.4209C4.96101 17.4209 3.89224 18.7385 3.89224 20.358C3.89224 21.9771 4.96073 23.2947 6.27402 23.2954C6.28867 23.2954 6.30332 23.2964 6.31797 23.2982H13.3875C13.6264 23.2982 13.8202 23.5355 13.8202 23.828V29.5594Z" fill="#40396E"/>
</g>
<defs>
<clipPath id="clip0_308_6">
<rect width="28.8462" height="35.3211" fill="white" transform="translate(0.839355 0.339478)"/>
</clipPath>
</defs>
</svg>
