<svg width="22" height="23" viewBox="0 0 22 23" fill="none" xmlns="http://www.w3.org/2000/svg">
<path d="M20.5333 5.83309C19.8315 6.14476 19.0777 6.35449 18.2864 6.44909C19.0945 5.96509 19.7142 5.19876 20.0061 4.28502C19.2507 4.73309 18.4133 5.05869 17.5215 5.23469C16.808 4.47422 15.7916 3.99902 14.6667 3.99902C12.5063 3.99902 10.7551 5.75096 10.7551 7.91062C10.7551 8.21716 10.7903 8.51636 10.8563 8.80162C7.60541 8.63882 4.72341 7.08122 2.79328 4.71402C2.45741 5.29189 2.26454 5.96362 2.26454 6.68156C2.26454 8.03822 2.95461 9.23576 4.00401 9.93682C3.36308 9.91629 2.75954 9.74029 2.23228 9.44769C2.23228 9.46456 2.23228 9.47996 2.23228 9.49682C2.23228 11.3925 3.58014 12.9736 5.37021 13.3322C5.04241 13.4216 4.69628 13.4693 4.33914 13.4693C4.08761 13.4693 3.84194 13.4444 3.60361 13.3996C4.10154 14.9536 5.54621 16.0851 7.25781 16.1166C5.91948 17.166 4.23281 17.7916 2.39948 17.7916C2.08414 17.7916 1.77248 17.7732 1.46594 17.7366C3.19734 18.8461 5.25288 19.4936 7.46241 19.4936C14.6579 19.4936 18.5915 13.5331 18.5915 8.36382C18.5915 8.19442 18.5878 8.02576 18.5805 7.85782C19.3453 7.30562 20.009 6.61702 20.5333 5.83309Z" fill="url(#paint0_linear_59_27)"/>
<defs>
<linearGradient id="paint0_linear_59_27" x1="10.9996" y1="3.99902" x2="10.9996" y2="19.4936" gradientUnits="userSpaceOnUse">
<stop stop-color="#61CAFF"/>
<stop offset="0.765625" stop-color="#84D6FF"/>
</linearGradient>
</defs>
</svg>
