<svg width="22" height="23" viewBox="0 0 22 23" fill="none" xmlns="http://www.w3.org/2000/svg">
<path d="M20.5332 5.83333C19.8314 6.145 19.0776 6.35473 18.2863 6.44933C19.0944 5.96533 19.7141 5.199 20.006 4.28527C19.2506 4.73333 18.4132 5.05893 17.5214 5.23493C16.8079 4.47447 15.7915 3.99927 14.6666 3.99927C12.5062 3.99927 10.755 5.7512 10.755 7.91087C10.755 8.2174 10.7902 8.5166 10.8562 8.80187C7.60529 8.63907 4.72329 7.08147 2.79315 4.71427C2.45729 5.29213 2.26442 5.96387 2.26442 6.6818C2.26442 8.03847 2.95449 9.236 4.00389 9.93707C3.36295 9.91654 2.75942 9.74054 2.23215 9.44794C2.23215 9.4648 2.23215 9.4802 2.23215 9.49707C2.23215 11.3927 3.58002 12.9738 5.37009 13.3324C5.04229 13.4219 4.69615 13.4695 4.33902 13.4695C4.08749 13.4695 3.84182 13.4446 3.60349 13.3999C4.10142 14.9538 5.54609 16.0853 7.25769 16.1169C5.91935 17.1663 4.23269 17.7918 2.39935 17.7918C2.08402 17.7918 1.77235 17.7735 1.46582 17.7368C3.19722 18.8463 5.25275 19.4939 7.46229 19.4939C14.6578 19.4939 18.5914 13.5333 18.5914 8.36407C18.5914 8.19467 18.5877 8.026 18.5804 7.85807C19.3452 7.30587 20.0089 6.61727 20.5332 5.83333Z" fill="url(#paint0_linear_110_53)"/>
<defs>
<linearGradient id="paint0_linear_110_53" x1="10.9995" y1="3.99927" x2="10.9995" y2="19.4939" gradientUnits="userSpaceOnUse">
<stop stop-color="#61CAFF"/>
<stop offset="0.765625" stop-color="#84D6FF"/>
</linearGradient>
</defs>
</svg>
