<svg width="22" height="23" viewBox="0 0 22 23" fill="none" xmlns="http://www.w3.org/2000/svg">
<path d="M20.5332 5.83309C19.8314 6.14476 19.0776 6.35449 18.2863 6.44909C19.0944 5.96509 19.7141 5.19876 20.006 4.28502C19.2506 4.73309 18.4132 5.05869 17.5214 5.23469C16.8079 4.47422 15.7915 3.99902 14.6666 3.99902C12.5062 3.99902 10.755 5.75096 10.755 7.91062C10.755 8.21716 10.7902 8.51636 10.8562 8.80162C7.60529 8.63882 4.72329 7.08122 2.79315 4.71402C2.45729 5.29189 2.26442 5.96362 2.26442 6.68156C2.26442 8.03822 2.95449 9.23576 4.00389 9.93682C3.36295 9.91629 2.75942 9.74029 2.23215 9.44769C2.23215 9.46456 2.23215 9.47996 2.23215 9.49682C2.23215 11.3925 3.58002 12.9736 5.37009 13.3322C5.04229 13.4216 4.69615 13.4693 4.33902 13.4693C4.08749 13.4693 3.84182 13.4444 3.60349 13.3996C4.10142 14.9536 5.54609 16.0851 7.25769 16.1166C5.91935 17.166 4.23269 17.7916 2.39935 17.7916C2.08402 17.7916 1.77235 17.7732 1.46582 17.7366C3.19722 18.8461 5.25275 19.4936 7.46229 19.4936C14.6578 19.4936 18.5914 13.5331 18.5914 8.36382C18.5914 8.19442 18.5877 8.02576 18.5804 7.85782C19.3452 7.30562 20.0089 6.61702 20.5332 5.83309Z" fill="url(#paint0_linear_339_243)"/>
<defs>
<linearGradient id="paint0_linear_339_243" x1="10.9995" y1="3.99902" x2="10.9995" y2="19.4936" gradientUnits="userSpaceOnUse">
<stop stop-color="#61CAFF"/>
<stop offset="0.765625" stop-color="#84D6FF"/>
</linearGradient>
</defs>
</svg>
