<svg width="31" height="32" viewBox="0 0 31 32" fill="none" xmlns="http://www.w3.org/2000/svg">
<path d="M15.5 0C9.04796 0 3.79883 5.41846 3.79883 12.0785C3.79883 14.8316 5.67446 18.911 9.37369 24.2032C12.0742 28.0666 14.814 31.214 14.8413 31.2454L15.4999 32L16.1585 31.2454C16.1859 31.2141 18.9256 28.0667 21.6261 24.2032C25.3254 18.9109 27.201 14.8316 27.201 12.0785C27.2011 5.41846 21.9519 0 15.5 0ZM15.4999 29.2505C12.2144 25.3434 5.57206 16.5252 5.57206 12.0785C5.57197 6.42771 10.0257 1.83034 15.5 1.83034C20.9743 1.83034 25.4279 6.42771 25.4279 12.0785C25.4279 16.5225 18.7854 25.3425 15.4999 29.2505Z" fill="#E3008D"/>
<path d="M15.5 16.6268C17.9333 16.6268 19.9059 14.5906 19.9059 12.0788C19.9059 9.56699 17.9333 7.53076 15.5 7.53076C13.0667 7.53076 11.0941 9.56699 11.0941 12.0788C11.0941 14.5906 13.0667 16.6268 15.5 16.6268Z" fill="#E3008D"/>
</svg>
