<svg width="60" height="64" viewBox="0 0 60 64" fill="none" xmlns="http://www.w3.org/2000/svg">
<g clip-path="url(#clip0_109_155)">
<path d="M1.08179 40.4314H48.9877V44.3679H1.08179V40.4314Z" fill="#E3008D"/>
<path d="M36.6811 51.061C36.6811 48.4374 25.6153 48.7003 25.6153 51.096V59.9752C25.5047 61.1977 26.3552 62.397 27.531 62.397L57.1712 62.399C57.4511 62.3993 57.7283 62.3421 57.987 62.2305C58.2457 62.1189 58.4808 61.9551 58.6787 61.7485C58.8767 61.5419 59.0337 61.2966 59.1408 61.0266C59.2478 60.7566 59.3028 60.4672 59.3025 60.175L59.3053 32.0617C59.3053 14.3964 44.7799 0.198074 27.5375 1.83496C26.9744 1.88864 26.4546 2.17343 26.0925 2.62679C25.7303 3.08015 25.5554 3.66502 25.606 4.25294V13.8201H36.6811V7.04352C47.2672 10.0068 55.0389 20.096 55.0426 32.0529C55.0045 44.0021 47.2719 54.1379 36.6811 57.0856V51.0591V51.061Z" fill="#E3008D"/>
<path d="M40.4131 32.1296C40.4128 31.4754 40.5361 30.8276 40.7758 30.2232C41.0154 29.6187 41.3668 29.0695 41.8099 28.6069C42.253 28.1443 42.7791 27.7773 43.358 27.527C43.937 27.2767 44.5576 27.1479 45.1843 27.1481C46.4501 27.1486 47.664 27.6735 48.5594 28.6075C49.4548 29.5414 49.9586 30.8082 49.9601 32.1296C49.9574 33.4507 49.4533 34.717 48.5582 35.651C47.6631 36.585 46.4499 37.1107 45.1843 37.113C43.9189 37.1112 42.7059 36.5855 41.8114 35.6512C40.917 34.717 40.4141 33.4504 40.4131 32.1296Z" fill="#E3008D"/>
<path d="M34.3108 26.9734H18.3223L1.0437 29.7339V37.1062L13.6116 37.1081C13.2147 36.4483 13.0028 35.6856 13 34.9065C13.0017 33.7893 13.4277 32.7184 14.1846 31.9284C14.9414 31.1385 15.9675 30.6941 17.0377 30.6925H25.7946L32.8914 29.1449L33.2865 31.1117L25.9936 32.7011H17.0377C16.7605 32.6991 16.4857 32.7543 16.2289 32.8632C15.9721 32.9722 15.7383 33.1329 15.541 33.3362C15.1425 33.7467 14.9166 34.3056 14.9129 34.89C14.9092 35.4745 15.128 36.0365 15.5213 36.4525C15.9146 36.8684 16.45 37.1043 17.0099 37.1081L34.3452 37.1111C37.0278 37.0887 39.1786 34.8347 39.1786 32.049C39.1788 31.3819 39.0529 30.7212 38.8081 30.1049C38.5634 29.4886 38.2047 28.9288 37.7525 28.4573C37.3003 27.9859 36.7634 27.6122 36.1727 27.3575C35.582 27.1029 34.949 26.9724 34.3099 26.9734H34.3108Z" fill="#EB61B4"/>
</g>
<defs>
<clipPath id="clip0_109_155">
<rect width="59.4885" height="62.099" fill="white" transform="translate(0.465576 0.930664)"/>
</clipPath>
</defs>
</svg>
