<svg width="66" height="69" viewBox="0 0 66 69" fill="none" xmlns="http://www.w3.org/2000/svg">
<g clip-path="url(#clip0_109_127)">
<path d="M62.4562 5.49834C62.4827 5.44844 62.4994 5.39355 62.5055 5.33686C62.5115 5.28016 62.5068 5.22277 62.4915 5.16801C62.4761 5.11325 62.4506 5.06219 62.4163 5.0178C62.382 4.9734 62.3396 4.93654 62.2915 4.90934L59.2721 3.19222C59.2242 3.16468 59.1716 3.14733 59.1173 3.14118C59.063 3.13503 59.008 3.1402 58.9556 3.15639C58.9032 3.17258 58.8544 3.19947 58.8121 3.2355C58.7697 3.27153 58.7346 3.31598 58.7088 3.36627L57.498 5.67239C52.9201 4.23969 47.848 6.27731 45.466 10.8312L51.3168 14.1657C50.8521 15.0552 50.7449 16.1011 51.0189 17.0731C51.2929 18.0452 51.9256 18.8638 52.7777 19.3489C53.6299 19.834 54.6318 19.9458 55.5629 19.6598C56.4941 19.3738 57.2783 18.7134 57.743 17.8238L63.5959 21.1541C65.9799 16.6023 64.885 11.0477 61.2474 7.80553L62.4562 5.49728V5.49834Z" fill="#307172"/>
<path d="M21.2343 47.0382H1.54282V68.2868H21.2343V47.0382Z" fill="#307172"/>
<path d="M23.4912 57.6584H39.3946C40.7274 57.6581 42.0057 57.1056 42.9485 56.1222C43.8913 55.1388 44.4216 53.8049 44.423 52.4136C44.4222 51.0222 43.892 49.6882 42.949 48.7048C42.006 47.7215 40.7275 47.1694 39.3946 47.1699H23.4912V57.6584Z" fill="#307172"/>
<path d="M57.7797 61.913C57.7797 60.7403 56.8698 59.7883 55.7454 59.7883H23.4922V68.2848H57.7797V61.9119V61.913Z" fill="#307172"/>
<path d="M45.5494 51.327C45.551 53.0073 46.1918 54.6182 47.3309 55.8055C48.47 56.9928 50.0141 57.6593 51.6239 57.6585C52.421 57.6592 53.2105 57.4959 53.9473 57.1781C54.684 56.8603 55.3536 56.3941 55.9178 55.8062C56.4819 55.2183 56.9296 54.5201 57.2353 53.7515C57.541 52.983 57.6987 52.1591 57.6993 51.327C57.6993 47.8322 54.9798 44.9987 51.6239 44.9987C48.2699 44.9987 45.5494 47.8322 45.5494 51.327Z" fill="#307172"/>
<path d="M12.3457 33.5963L15.7626 23.4411C16.4255 21.5266 17.6983 20.0323 21.2912 20.0323H37.0655C40.6573 20.0323 41.9322 21.5266 42.592 23.4411L46.0079 33.5963C46.2631 34.2522 46.3952 35.7263 45.0055 36.7133L36.973 42.2382C36.4097 42.6259 35.7221 42.7646 35.061 42.624C34.3999 42.4833 33.8192 42.0748 33.4462 41.4879C33.2622 41.1966 33.135 40.8703 33.0719 40.5276C33.0088 40.185 33.0109 39.8327 33.0782 39.4909C33.1455 39.1491 33.2767 38.8245 33.4642 38.5357C33.6517 38.2468 33.8919 37.9994 34.1711 37.8074L40.5465 33.4212L38.7521 28.2539H36.2684L37.7232 32.4459L32.883 35.7762C32.3472 36.1424 31.8864 36.6161 31.5274 37.1698C31.1685 37.7234 30.9184 38.346 30.7917 39.0014C30.6603 39.6564 30.6548 40.3322 30.7755 40.9895C30.8963 41.6468 31.1409 42.2726 31.4953 42.8304C31.7793 43.2726 32.1278 43.6658 32.5282 43.9956H25.8264C26.2261 43.6647 26.5748 43.2717 26.8604 42.8304C27.2145 42.2725 27.4592 41.6468 27.5803 40.9896C27.7014 40.3324 27.6965 39.6566 27.5659 39.0014C27.4385 38.3462 27.188 37.7238 26.8288 37.1703C26.4697 36.6167 26.0091 36.1429 25.4737 35.7762L20.6304 32.4459L22.0913 28.2539H19.6056L17.8071 33.4212L24.1856 37.8074C25.3578 38.614 25.6851 40.2664 24.9094 41.4879C24.1337 42.7094 22.5539 43.0469 21.3817 42.2382L13.3501 36.7133C11.9594 35.7252 12.0905 34.2522 12.3447 33.5963H12.3457Z" fill="#307172"/>
<path d="M27.6086 10.0935C27.8006 10.5284 28.1079 10.8968 28.4942 11.155C28.8805 11.4133 29.3296 11.5506 29.7883 11.5506C30.2477 11.5508 30.6976 11.4137 31.0847 11.1555C31.4719 10.8973 31.7801 10.5288 31.9731 10.0935H36.3731C36.4443 10.4968 36.486 10.9096 36.486 11.3352C36.4846 13.1947 35.7758 14.9776 34.5154 16.2917C33.255 17.6058 31.5463 18.3435 29.7649 18.3427C28.8827 18.3434 28.0091 18.1627 27.1938 17.8109C26.3785 17.4591 25.6376 16.9431 25.0134 16.2924C24.3892 15.6417 23.8939 14.869 23.5558 14.0184C23.2177 13.1678 23.0434 12.2561 23.0428 11.3352C23.0428 10.9086 23.0866 10.4968 23.1547 10.0935H27.6076H27.6086Z" fill="#307172"/>
<path d="M32.1215 8.43914C31.9903 7.89694 31.6896 7.41592 31.267 7.07223C30.8444 6.72854 30.3241 6.54181 29.7883 6.5416C28.6639 6.5416 27.7154 7.3524 27.4592 8.43914H23.6468C24.1805 7.2128 25.0411 6.17278 26.1259 5.44335C27.2106 4.71391 28.4736 4.3259 29.7639 4.32568C31.0542 4.32617 32.3171 4.71428 33.4018 5.44368C34.4865 6.17309 35.3472 7.21296 35.8811 8.43914H32.1205H32.1215Z" fill="#307172"/>
</g>
<defs>
<clipPath id="clip0_109_127">
<rect width="65.0654" height="67.9208" fill="white" transform="translate(0.627808 0.930664)"/>
</clipPath>
</defs>
</svg>
