<svg width="31" height="32" viewBox="0 0 31 32" fill="none" xmlns="http://www.w3.org/2000/svg">
<g clip-path="url(#clip0_108_45)">
<path d="M30.4834 20.2615C28.577 20.2615 27.0255 18.6599 27.0255 16.692C27.0255 16.3971 26.7945 16.1587 26.5088 16.1587C26.2231 16.1587 25.9922 16.3971 25.9922 16.692C25.9922 19.2487 28.0066 21.3281 30.4834 21.3281C30.7691 21.3281 31.0001 21.0897 31.0001 20.7948C31.0001 20.4999 30.7686 20.2615 30.4834 20.2615Z" fill="#E3008D"/>
<path d="M30.0979 19.0126C30.3836 19.0126 30.6145 18.7742 30.6145 18.4792C30.6145 18.1843 30.3836 17.9459 30.0979 17.9459C29.6401 17.9459 29.2687 17.5619 29.2687 17.09C29.2687 16.795 29.0377 16.5566 28.752 16.5566C28.4663 16.5566 28.2354 16.795 28.2354 17.09C28.2348 18.1502 29.0703 19.0126 30.0979 19.0126Z" fill="#E3008D"/>
<path d="M10.334 1.59544C12.241 1.59544 13.792 3.19699 13.792 5.16492C13.792 5.45985 14.0234 5.69824 14.3086 5.69824C14.5938 5.69824 14.8253 5.45985 14.8253 5.16492C14.8253 2.60821 12.8103 0.528809 10.334 0.528809C10.0488 0.528809 9.81738 0.767201 9.81738 1.06212C9.81738 1.35705 10.0483 1.59544 10.334 1.59544Z" fill="#E3008D"/>
<path d="M10.2029 3.37755C10.2029 3.67248 10.4343 3.91087 10.7195 3.91087C11.1768 3.91087 11.5482 4.29486 11.5482 4.76684C11.5482 5.06176 11.7797 5.30016 12.0649 5.30016C12.3501 5.30016 12.5815 5.06176 12.5815 4.76684C12.5815 3.70661 11.7461 2.84424 10.7195 2.84424C10.4343 2.84424 10.2029 3.08263 10.2029 3.37755Z" fill="#E3008D"/>
<path d="M22.7718 20.2066C22.1126 19.8183 21.4301 19.6957 20.8493 19.862C20.4133 19.9868 20.0578 20.2716 19.8181 20.6866C19.2911 21.3372 18.6371 22.0977 18.479 22.2156C17.2561 23.071 16.2832 22.9702 15.2272 21.8801L9.29293 15.755C8.23639 14.6644 8.13926 13.6601 8.96693 12.3999C9.08266 12.2346 9.8194 11.5599 10.4497 11.0154C10.8517 10.7679 11.1276 10.401 11.2485 9.95091C11.4091 9.352 11.2908 8.64749 10.9116 7.96111C10.8222 7.80325 8.69465 4.08391 6.73449 3.01354C5.73942 2.47009 4.53614 2.65675 3.73999 3.47859L2.42821 4.83108C0.354382 6.97181 -0.39631 9.39786 0.19577 12.0415C0.689687 14.2452 2.12907 16.5902 4.47466 19.0109L12.072 26.8538C15.0489 29.9268 17.8884 31.4702 20.4923 31.4702C22.4045 31.4702 24.19 30.6372 25.8092 28.9663L27.1199 27.6133C27.9161 26.7914 28.0974 25.5493 27.5704 24.5222C26.533 22.4982 22.9304 20.3026 22.7718 20.2066ZM26.3894 26.8591L25.0786 28.2122C21.6848 31.7145 17.5547 31.0041 12.8031 26.0997L5.2052 18.2568C2.99859 15.979 1.65221 13.8068 1.20272 11.8015C0.688654 9.50772 1.32878 7.47526 3.15876 5.58572L4.46949 4.2327C4.76243 3.93084 5.14786 3.77298 5.53896 3.77298C5.78023 3.77298 6.02409 3.83271 6.24987 3.95644C7.9512 4.88601 9.99868 8.46509 10.0162 8.49549C10.2482 8.91521 10.3366 9.35306 10.2524 9.66665C10.2007 9.85865 10.085 10.0048 9.89896 10.1125L9.82147 10.168C9.38076 10.5477 8.33197 11.4661 8.11239 11.8004C7.7962 12.2826 7.58644 12.7561 7.47639 13.2217C7.10906 12.4655 6.81198 11.5898 6.71434 10.6186C6.68489 10.3264 6.4307 10.12 6.14706 10.1429C5.86341 10.1738 5.65675 10.4357 5.6862 10.729C6.05922 14.4372 8.85275 16.8509 8.97158 16.9517C8.98449 16.9624 8.99948 16.9667 9.01291 16.9757L14.4961 22.6358C14.5194 22.6598 14.5436 22.6812 14.5669 22.7046C14.585 22.7318 14.5969 22.7622 14.6206 22.7867C14.7183 22.8865 17.0509 25.2224 20.6132 25.6043C20.6313 25.6059 20.6494 25.6069 20.667 25.6069C20.9284 25.6069 21.1526 25.4027 21.1805 25.1291C21.21 24.8357 21.0038 24.5739 20.7197 24.543C19.6275 24.4262 18.6598 24.0955 17.8533 23.7121C18.2485 23.5894 18.6505 23.3857 19.0581 23.1009C19.3826 22.8737 20.2723 21.7916 20.6396 21.3367L20.6933 21.2561C20.7977 21.0647 20.9392 20.9452 21.1252 20.8913C21.429 20.8065 21.8532 20.8956 22.2546 21.1313C22.2893 21.1527 25.7565 23.2662 26.657 25.0224C26.9701 25.632 26.8626 26.3706 26.3894 26.8591Z" fill="#E3008D"/>
</g>
<defs>
<clipPath id="clip0_108_45">
<rect width="31" height="32" fill="white"/>
</clipPath>
</defs>
</svg>
